<svg xmlns="http://www.w3.org/2000/svg" width="44" height="46" viewBox="0 0 44 46"><defs><style>.a{opacity:0.75;}.b{fill:#fff;}</style></defs><g class="a"><path class="b" d="M22,46C9.87,46,0,35.68,0,23S9.87,0,22,0,44,10.32,44,23,34.13,46,22,46ZM22,.65C10.21.65.62,10.68.62,23S10.21,45.35,22,45.35,43.38,35.32,43.38,23,33.79.65,22,.65Z"/><path class="b" d="M6.32,38.65l-.57-.26L21.71.2l.57.26Z"/><path class="b" d="M37.62,38.65,21.71.46,22.28.2,38.19,38.39Z"/><path class="b" d="M22.45,45.8l-.58-.25L37.23,6.86l.57.25Z"/><path class="b" d="M21.87,45.8,6.2,7.11l.57-.25L22.44,45.54Z"/><path class="b" d="M43.57,23.24,6.37,7.49l.23-.6L43.81,22.63Z"/><path class="b" d="M6.15,38.82l-.23-.61L43.57,22.63l.23.61Z"/><path class="b" d="M37.8,38.82.2,23.41l.22-.61L38,38.21Z"/><path class="b" d="M.43,23.4l-.24-.6L37.4,6.89l.24.6Z"/></g></svg>