<svg xmlns="http://www.w3.org/2000/svg" width="21.194" height="13.492" viewBox="0 0 21.194 13.492"><g transform="translate(0 0)"><path d="M324.7,323.56a3.611,3.611,0,0,0,1.487-.66,3.653,3.653,0,0,0,.933-1.036,3.852,3.852,0,0,0,.586-2.1,3.487,3.487,0,0,0-.513-1.928,2.933,2.933,0,0,0-1.52-1.161,3.155,3.155,0,0,0,1-.75,2.931,2.931,0,0,0,.61-1.938,3.353,3.353,0,0,0-.6-2.009,4.038,4.038,0,0,0-3.411-1.4h-6.362v13.161h5.931A9.079,9.079,0,0,0,324.7,323.56Zm-5.166-10.7H322.4a4.934,4.934,0,0,1,1.556.205,1.178,1.178,0,0,1,.707,1.215,1.242,1.242,0,0,1-.535,1.156,2.646,2.646,0,0,1-1.392.326h-3.2Zm0,8.589v-3.509h3.239a3.331,3.331,0,0,1,1.317.224,1.412,1.412,0,0,1,.838,1.41,1.658,1.658,0,0,1-.865,1.643,3.1,3.1,0,0,1-1.332.232Z" transform="translate(-316.909 -310.578)" fill="#fff"/><g transform="translate(11.541 0.756)"><path d="M331.041,323.176a5.3,5.3,0,0,0,3.428,1.2,4.727,4.727,0,0,0,3.661-1.42,3.174,3.174,0,0,0,.944-1.759h-2.6a2.118,2.118,0,0,1-.525.669,2.149,2.149,0,0,1-1.413.447,2.587,2.587,0,0,1-1.4-.366,2.335,2.335,0,0,1-1.018-2.055h7.088a12.544,12.544,0,0,0-.083-1.931,4.783,4.783,0,0,0-.776-2.012,3.954,3.954,0,0,0-1.683-1.44,5.536,5.536,0,0,0-2.289-.455,4.694,4.694,0,0,0-3.48,1.35,5.269,5.269,0,0,0-1.34,3.878A4.72,4.72,0,0,0,331.041,323.176Zm1.819-6.47a2.021,2.021,0,0,1,1.518-.555,2.234,2.234,0,0,1,1.51.524,2.127,2.127,0,0,1,.678,1.538h-4.385A2.647,2.647,0,0,1,332.859,316.706Z" transform="translate(-329.556 -311.638)" fill="#fff"/><rect width="5.72" height="1.328" transform="translate(1.796)" fill="#fff"/></g></g></svg>