<svg xmlns="http://www.w3.org/2000/svg" width="422.693" height="422.693" viewBox="0 0 422.693 422.693"><text transform="translate(106.981 218.846)" fill="#fff" font-size="29" font-family="MontserratAlternates-Italic, Montserrat Alternates" font-style="italic"><tspan x="0" y="0">Contact</tspan></text><g transform="translate(233.895 20.978) rotate(45)" fill="none"><path d="M0,0H267V271S66.75,338.75,0,271,0,0,0,0Z" stroke="none"/><path d="M 0.72796630859375 1 C -0.2030181884765625 3.9066162109375 -3.94561767578125 15.81491088867188 -8.418731689453125 33.06735229492188 C -11.44255065917969 44.73001098632813 -14.2022705078125 56.51226806640625 -16.62123107910156 68.0869140625 C -19.64454650878906 82.55303955078125 -22.14091491699219 96.73309326171875 -24.04100036621094 110.2331390380859 C -28.87387084960938 144.5700836181641 -29.92532348632813 174.7603607177734 -27.16609191894531 199.9654083251953 C -26.36985778808594 207.2388153076172 -25.24095153808594 214.1864624023438 -23.81068420410156 220.6154174804688 C -22.30712890625 227.3737182617188 -20.4293212890625 233.7440490722656 -18.22946166992188 239.5494537353516 C -15.92640686035156 245.6270446777344 -13.20686340332031 251.2529907226563 -10.14631652832031 256.27099609375 C -6.953048706054688 261.5066528320313 -3.2996826171875 266.2260437011719 0.7123565673828125 270.2981872558594 C 20.20277404785156 290.0805969238281 53.234130859375 300.111083984375 98.88890838623047 300.111083984375 C 116.8812255859375 300.111083984375 136.8943176269531 298.5323181152344 158.3722686767578 295.4185791015625 C 175.5655059814453 292.9260864257813 193.7291412353516 289.4501342773438 212.358642578125 285.0872802734375 C 241.0075988769531 278.3780517578125 262.0247497558594 271.5891418457031 266 270.278564453125 L 266 1 L 0.72796630859375 1 M 0 0 L 267 0 L 267 271 C 267 271 177.9963836669922 301.1111145019531 98.88888549804688 301.1111145019531 C 59.32789611816406 301.1111145019531 22.25271606445313 293.5860900878906 0 271 C -66.75 203.25 0 0 0 0 Z" stroke="none" fill="#fff"/></g><path d="M16.137,1.472a1,1,0,0,1,1.725,0L33.117,27.494A1,1,0,0,1,32.255,29H1.745a1,1,0,0,1-.863-1.506Z" transform="translate(297.981 191.846) rotate(90)" fill="#c52032"/></svg>