<svg xmlns="http://www.w3.org/2000/svg" width="628.287" height="720.342" fill="#fff" xmlns:v="https://vecta.io/nano"><path d="M361.119 660.9L2.47 322.835l303.2-282.5 274.971 282.5zM18.914 322.835l340.765 321.95 211.343-321.951L306.684 51.681zm330.817 210.619L131.692 322.835l182.455-187.624L498.16 322.834zM146.545 322.835l201.829 195.38 139.2-195.38L315.237 147.4zm182.042-26.03c3.26.052 6.474.78 9.438 2.137a27.33 27.33 0 0 1 8.012 5.594 30.05 30.05 0 0 1 8.626 18.294 27.29 27.29 0 0 1-.878 10.129 23.77 23.77 0 0 1-4.281 8.362 21.25 21.25 0 0 1-7.055 5.732 20.99 20.99 0 0 1-9.18 2.2 23.42 23.42 0 0 1-9.632-1.979 27.23 27.23 0 0 1-8.267-5.647 30.04 30.04 0 0 1-8.764-18.8 27.11 27.11 0 0 1 1.076-10.282 23.55 23.55 0 0 1 4.531-8.308c4.058-4.819 10.075-7.55 16.374-7.432z"/></svg>