<svg xmlns="http://www.w3.org/2000/svg" width="25.229" height="25.229" viewBox="0 0 25.229 25.229"><g transform="translate(0 0)"><path d="M248.789,71.5A12.614,12.614,0,1,0,261.4,84.111,12.614,12.614,0,0,0,248.789,71.5Zm0,2.194a10.364,10.364,0,0,1,6.354,2.179,12.75,12.75,0,0,1-5.242,3.867,48.37,48.37,0,0,0-3.666-5.715A10.353,10.353,0,0,1,248.789,73.69Zm-4.7,1.133a47.026,47.026,0,0,1,3.718,5.657,33.45,33.45,0,0,1-9.13,1.163A10.451,10.451,0,0,1,244.089,74.823Zm-5.72,9.286c0-.089.013-.178.015-.267a35.255,35.255,0,0,0,10.458-1.391q.368.749.7,1.506a16.23,16.23,0,0,0-8.764,6.812A10.374,10.374,0,0,1,238.37,84.109Zm10.42,10.422a10.352,10.352,0,0,1-6.394-2.21,14.163,14.163,0,0,1,7.986-6.336,41.211,41.211,0,0,1,2.148,7.842A10.355,10.355,0,0,1,248.789,94.531Zm5.784-1.759a43.212,43.212,0,0,0-2.018-7.249,20.957,20.957,0,0,1,6.516.206A10.424,10.424,0,0,1,254.574,92.772Zm-2.859-9.326c-.255-.592-.522-1.182-.806-1.766a14.908,14.908,0,0,0,5.833-4.291,10.378,10.378,0,0,1,2.439,6.133A22.538,22.538,0,0,0,251.715,83.446Z" transform="translate(-236.176 -71.496)" fill="#fff"/></g></svg>