<svg xmlns="http://www.w3.org/2000/svg" width="103.48" height="136" viewBox="0 0 103.48 136"><defs><style>.a{fill:#fff;}.b{fill:#c52032;}</style></defs><path class="a" d="M14.65,0V1.15a9.83,9.83,0,0,0-3,.43A2.16,2.16,0,0,0,10.34,3,10.42,10.42,0,0,0,10,6.09v28.5a10.5,10.5,0,0,0,.34,3.1,2.07,2.07,0,0,0,1.35,1.38,12,12,0,0,0,3,.46v1.15q-1.32-.12-3.3-.15c-1.32,0-2.66,0-4,0s-2.89,0-4.19,0S.8,40.6,0,40.68V39.53a12,12,0,0,0,3-.46,2.07,2.07,0,0,0,1.35-1.38,10.5,10.5,0,0,0,.34-3.1V6.09A10.42,10.42,0,0,0,4.31,3,2.16,2.16,0,0,0,3,1.58a9.83,9.83,0,0,0-3-.43V0L3.16.12c1.3,0,2.7.05,4.19.05,1.34,0,2.68,0,4-.05Z"/><path class="a" d="M54.8,0V1.15a6.89,6.89,0,0,0-2.95.57,2.59,2.59,0,0,0-1.34,1.66,11.84,11.84,0,0,0-.35,3.26V40.83H48.84L24.8,3.66V33.9a11,11,0,0,0,.37,3.23,2.55,2.55,0,0,0,1.49,1.66,9.79,9.79,0,0,0,3.35.6v1.15c-.69-.08-1.59-.12-2.69-.14l-3.15,0-2.9,0c-1,0-1.78.06-2.43.14V39.39a7.86,7.86,0,0,0,2.95-.6,2.51,2.51,0,0,0,1.35-1.66,12.37,12.37,0,0,0,.34-3.23V6.07A10.73,10.73,0,0,0,23.14,3a2.16,2.16,0,0,0-1.35-1.38,9.81,9.81,0,0,0-2.95-.42V0c.65,0,1.46.08,2.43.11s1.94.06,2.9.06,1.64,0,2.4-.06S28,0,28.63,0L48.84,31.15V6.64a11,11,0,0,0-.37-3.26A2.66,2.66,0,0,0,47,1.72a8.61,8.61,0,0,0-3.35-.57V0c.69,0,1.6.08,2.72.11s2.17.06,3.12.06,2,0,3-.06S54.19,0,54.8,0Z"/><path class="a" d="M49.16,47.56A13.23,13.23,0,0,1,55,48.64a26.08,26.08,0,0,1,4.13,2.5,2.14,2.14,0,0,0,1.1.55q1.05,0,1.38-3.36h1.27c-.08,1.36-.13,3-.17,5s0,4.52,0,7.72H61.34c-.26-1.54-.57-3-.94-4.47a9.26,9.26,0,0,0-1.82-3.69,10.62,10.62,0,0,0-4.18-3.17,13.32,13.32,0,0,0-5.35-1.13,9.46,9.46,0,0,0-5,1.35,11.78,11.78,0,0,0-3.83,3.89,20.36,20.36,0,0,0-2.45,6.09,34.38,34.38,0,0,0-.85,8q0,9.91,3.19,14.52T50,87a9.3,9.3,0,0,0,3.45-.58,12,12,0,0,0,2.28-1.13A3.55,3.55,0,0,0,57.1,84a4.34,4.34,0,0,0,.27-1.68V77a9.74,9.74,0,0,0-.44-3.36,2.49,2.49,0,0,0-1.62-1.49,13.54,13.54,0,0,0-3.5-.44V70.6c.66,0,1.43.06,2.31.08l2.78.06c1,0,1.87,0,2.68,0,1.21,0,2.3,0,3.28-.05s1.79-.07,2.45-.11v1.1c-1.21.08-2,.37-2.32.88s-.49,1.8-.49,3.86V87.35H61.4a8.43,8.43,0,0,0-.42-2c-.24-.73-.6-1.1-1.07-1.1a1.47,1.47,0,0,0-.66.17,9.05,9.05,0,0,0-1.16.77,16.26,16.26,0,0,1-3.86,2.18,13,13,0,0,1-4.74.79q-8.54,0-13.31-5.2T31.41,68.5a24.93,24.93,0,0,1,2.32-11.13A17.64,17.64,0,0,1,40,50.12,16.57,16.57,0,0,1,49.16,47.56Z"/><path class="a" d="M103.48,47.55v1.12a7,7,0,0,0-2.9.57,2.59,2.59,0,0,0-1.32,1.63,11.93,11.93,0,0,0-.33,3.2V71a40.33,40.33,0,0,1-.51,6.85,14.57,14.57,0,0,1-1.8,5.06,10.19,10.19,0,0,1-4.1,3.79,13,13,0,0,1-6.18,1.43,20.11,20.11,0,0,1-5.14-.64,9.9,9.9,0,0,1-4.3-2.39,13.41,13.41,0,0,1-2.55-3.32,12.65,12.65,0,0,1-1.27-4.27,50.35,50.35,0,0,1-.33-6.34V53.51a10.06,10.06,0,0,0-.34-3.07,2.07,2.07,0,0,0-1.32-1.34,9.42,9.42,0,0,0-2.89-.43V47.55c.78,0,1.81.08,3.09.11s2.64.06,4.1.06,2.61,0,3.9-.06,2.37-.07,3.23-.11v1.12a9.36,9.36,0,0,0-2.89.43,2.07,2.07,0,0,0-1.32,1.34A10.06,10.06,0,0,0,78,53.51V72.1a41.1,41.1,0,0,0,.56,7A9.41,9.41,0,0,0,81,84.24q1.88,1.91,5.87,1.91a10.25,10.25,0,0,0,6.6-1.89,9.87,9.87,0,0,0,3.26-5.19,27.66,27.66,0,0,0,.93-7.47V54.07a8.41,8.41,0,0,0-.48-3.2,3,3,0,0,0-1.6-1.63,8.1,8.1,0,0,0-3-.57V47.55c.68,0,1.57.08,2.67.11s2.13.06,3.06.06,1.94,0,2.9-.06S102.88,47.59,103.48,47.55Z"/><path class="a" d="M51.48,95.25V96.4l-23,38.28H39.79a14.08,14.08,0,0,0,4.4-.58,5.76,5.76,0,0,0,2.71-1.81A8.41,8.41,0,0,0,48.42,129a34.15,34.15,0,0,0,.81-5.07h1.32c-.11,1.19-.17,2.77-.17,4.72,0,.73,0,1.78.09,3.14s.16,2.77.31,4.23c-2.11-.08-4.49-.12-7.16-.14l-7.17,0-7.16,0c-2.52,0-4.87.06-7,.14v-1.15L45.37,96.57H34.15a11.65,11.65,0,0,0-5.47,1A5.94,5.94,0,0,0,26,101a27.51,27.51,0,0,0-1.24,6.36H23.39c.07-.62.12-1.33.14-2.13s0-1.67,0-2.59c0-.73,0-1.78-.09-3.14s-.16-2.77-.31-4.23c2.15.08,4.54.13,7.19.14l7.14,0,7,0Q48.3,95.38,51.48,95.25Z"/><path class="b" d="M58.86,128.71a3.69,3.69,0,1,1-2.56,1.08A3.52,3.52,0,0,1,58.86,128.71Z"/></svg>