<svg xmlns="http://www.w3.org/2000/svg" width="20.611" height="20.612" viewBox="0 0 20.611 20.612"><g transform="translate(0)"><g transform="translate(0 0)"><path d="M91.967,230.637c2.752,0,3.078.01,4.165.06a5.688,5.688,0,0,1,1.913.355A3.408,3.408,0,0,1,100,233.008a5.736,5.736,0,0,1,.355,1.913c.049,1.087.059,1.413.059,4.165s-.01,3.078-.059,4.165a5.736,5.736,0,0,1-.355,1.913,3.413,3.413,0,0,1-1.956,1.956,5.688,5.688,0,0,1-1.913.355c-1.087.049-1.413.06-4.165.06s-3.078-.011-4.165-.06a5.688,5.688,0,0,1-1.913-.355,3.413,3.413,0,0,1-1.956-1.956,5.735,5.735,0,0,1-.355-1.913c-.049-1.087-.059-1.413-.059-4.165s.01-3.078.059-4.165a5.735,5.735,0,0,1,.355-1.913,3.408,3.408,0,0,1,1.956-1.955A5.688,5.688,0,0,1,87.8,230.7c1.087-.05,1.413-.06,4.165-.06m0-1.857c-2.8,0-3.15.012-4.249.062a7.568,7.568,0,0,0-2.5.479,5.268,5.268,0,0,0-3.014,3.014,7.527,7.527,0,0,0-.479,2.5c-.05,1.1-.062,1.45-.062,4.249s.012,3.15.062,4.249a7.532,7.532,0,0,0,.479,2.5,5.268,5.268,0,0,0,3.014,3.014,7.568,7.568,0,0,0,2.5.479c1.1.05,1.451.062,4.249.062s3.15-.012,4.249-.062a7.568,7.568,0,0,0,2.5-.479,5.268,5.268,0,0,0,3.014-3.014,7.532,7.532,0,0,0,.479-2.5c.05-1.1.062-1.45.062-4.249s-.012-3.15-.062-4.249a7.527,7.527,0,0,0-.479-2.5,5.268,5.268,0,0,0-3.014-3.014,7.568,7.568,0,0,0-2.5-.479c-1.1-.05-1.451-.062-4.249-.062" transform="translate(-81.661 -228.78)" fill="#fff"/><path d="M92.447,234.275a5.292,5.292,0,1,0,5.292,5.292,5.292,5.292,0,0,0-5.292-5.292m0,8.727a3.435,3.435,0,1,1,3.436-3.436A3.436,3.436,0,0,1,92.447,243" transform="translate(-82.142 -229.261)" fill="#fff"/><path d="M100.1,233.926a1.236,1.236,0,1,1-1.236-1.236,1.236,1.236,0,0,1,1.236,1.236" transform="translate(-83.058 -229.122)" fill="#fff"/></g></g></svg>