<svg xmlns="http://www.w3.org/2000/svg" width="101.92" height="166.522" viewBox="0 0 101.92 166.522"><g transform="translate(-2699.195 834.58)"><path d="M2750.16-834.58c-28.1,0-50.965,23.586-50.965,52.571a53.249,53.249,0,0,0,14.981,37.189v45.3l-5.671,7.427,6.526,8.547,6.526-8.547-5.671-7.427v-43.62a49.956,49.956,0,0,0,33.421,13.683v45.425l-5.671,7.428,6.526,8.546,6.517-8.546-5.663-7.428v-45.424a49.972,49.972,0,0,0,33.411-13.676c.581-.547,1.152-1.111,1.707-1.683a53.249,53.249,0,0,0,14.981-37.2C2801.115-810.994,2778.26-834.58,2750.16-834.58Zm.854,1.771a48.344,48.344,0,0,1,33.34,14.277l-25.846,26.66a12.447,12.447,0,0,0-7.5-3.207Zm-1.709,0v37.725a12.4,12.4,0,0,0-7.5,3.207l-25.843-26.655a48.3,48.3,0,0,1,33.344-14.277Zm-29.927,140.717-4.348,5.7-4.348-5.7,4.348-5.7Zm-4.629-54.64a51.864,51.864,0,0,1,0-70.553l25.846,26.66a13.377,13.377,0,0,0,0,17.233Zm1.213,1.242,25.844-26.659a12.384,12.384,0,0,0,7.5,3.206v37.727a48.309,48.309,0,0,1-33.344-14.275Zm38.546,68.889-4.348,5.7-4.348-5.7,4.348-5.7Zm-4.348-94.068a6.778,6.778,0,0,1-.854-.044,10.691,10.691,0,0,1-6.286-2.688,10.871,10.871,0,0,1-1.213-1.242,11.569,11.569,0,0,1,0-14.73,10.413,10.413,0,0,1,1.213-1.252,10.623,10.623,0,0,1,6.286-2.686,8.27,8.27,0,0,1,1.709,0,10.632,10.632,0,0,1,6.286,2.686,11.091,11.091,0,0,1,1.212,1.242,11.592,11.592,0,0,1-.009,14.74,10.814,10.814,0,0,1-7.489,3.929,6.79,6.79,0,0,1-.855.044Zm.854,39.452v-37.727a12.351,12.351,0,0,0,7.489-3.206l25.851,26.659a48.3,48.3,0,0,1-33.339,14.274Zm34.549-15.515-25.846-26.67a13.37,13.37,0,0,0,0-17.224l25.846-26.66a51.864,51.864,0,0,1,0,70.553Z" fill="#fff"/><path d="M2786.134-700.085v-46.109c-.555.583-1.126,1.157-1.707,1.713v44.4l-5.663,7.56,6.517,8.7,6.524-8.7Zm-5.2,7.56,4.348-5.8,4.346,5.8-4.346,5.8Z" fill="#fff"/></g></svg>