<svg xmlns="http://www.w3.org/2000/svg" width="628.287" height="720.342" viewBox="0 0 628.287 720.342"><g transform="translate(0 0)"><path d="M361.119,660.9,2.47,322.835l303.2-282.5,274.971,282.5ZM18.914,322.835l340.765,321.95L571.022,322.834,306.684,51.681Z" transform="translate(0 0)" fill="#fff"/><g transform="translate(125.274 118.343)"><path d="M224.457,415.111,6.418,204.492,188.873,16.868,372.886,204.491ZM21.271,204.492,223.1,399.872l139.2-195.38L189.963,29.057Z" transform="translate(0)" fill="#fff"/></g><g transform="translate(304.437 296.505)"><path d="M24.15.3a23.583,23.583,0,0,1,9.438,2.137A27.329,27.329,0,0,1,41.6,8.031a30.054,30.054,0,0,1,8.626,18.294,27.287,27.287,0,0,1-.878,10.129,23.768,23.768,0,0,1-4.281,8.362,21.251,21.251,0,0,1-7.055,5.732,20.987,20.987,0,0,1-9.18,2.2A23.417,23.417,0,0,1,19.2,50.769a27.228,27.228,0,0,1-8.267-5.647,30.041,30.041,0,0,1-8.764-18.8A27.109,27.109,0,0,1,3.245,16.04,23.551,23.551,0,0,1,7.776,7.732,20.894,20.894,0,0,1,24.15.3Z" fill="#fff"/></g></g></svg>