<svg xmlns="http://www.w3.org/2000/svg" width="546.534" height="766.631" viewBox="0 0 546.534 766.631"><g transform="translate(0)"><path d="M168.207,4.643c-21.919-.605-42.247,2.985-60.357,10.143A132.3,132.3,0,0,0,59.468,47.663a138.638,138.638,0,0,0-30.942,54.191c-6.691,21.816-8.865,46.579-5.321,73.333a207.659,207.659,0,0,0,9.124,39.331,231.868,231.868,0,0,0,17.165,38.8,249.714,249.714,0,0,0,24.871,36.641,257.093,257.093,0,0,0,31.954,32.716l38.51,226.663-19.366,48.541,39.586,45.614,21-58.044-33.435-37.571L114.588,329.425a233.585,233.585,0,0,0,34.288,22.5,216.768,216.768,0,0,0,36.532,15.518,194.448,194.448,0,0,0,37.248,8.03,170.92,170.92,0,0,0,36.458.278l58.048,230.327-13.4,49.525,41.327,45.576,14.006-59.126-34.8-37.581L265.572,374.953a147.147,147.147,0,0,0,32.925-8.785,134.345,134.345,0,0,0,28.277-15.354,129.162,129.162,0,0,0,22.98-20.938,131.612,131.612,0,0,0,17.225-25.561q.459-.881.906-1.77t.882-1.785q.434-.9.857-1.8t.831-1.8A153.445,153.445,0,0,0,380.9,264.548a170.826,170.826,0,0,0,3.338-34.064,191.454,191.454,0,0,0-3.221-34.5,212.747,212.747,0,0,0-9.316-34.1A240.944,240.944,0,0,0,337.26,98.6a253.083,253.083,0,0,0-48.374-48.633A232.829,232.829,0,0,0,231.41,17.628,191.607,191.607,0,0,0,168.207,4.643Zm3.9,5.008a178.915,178.915,0,0,1,29.174,3.735A197.4,197.4,0,0,1,229.976,21.8a213.361,213.361,0,0,1,27.776,12.825A225.011,225.011,0,0,1,284.17,51.708l-55.408,82.146a57.654,57.654,0,0,0-6.529-4.033,54.54,54.54,0,0,0-6.836-3.04,50.453,50.453,0,0,0-7.017-2,45.841,45.841,0,0,0-7.068-.907Zm-5.3-.136,28.846,114.458a37.663,37.663,0,0,0-6.609,1.185,34.238,34.238,0,0,0-6.065,2.295,31.926,31.926,0,0,0-5.4,3.362,30.919,30.919,0,0,0-4.615,4.387L66.153,49.683A122.362,122.362,0,0,1,87.408,31.849,128.712,128.712,0,0,1,111.729,19.27a140.451,140.451,0,0,1,26.663-7.43A156.338,156.338,0,0,1,166.81,9.515Zm9.33,577.973-14.118,38.42L135.773,595.77l14.642-37.331ZM107.223,314.059a246.147,246.147,0,0,1-53.229-66.847,213.691,213.691,0,0,1-24.08-72.279c-3.2-23.368-1.912-46.133,3.8-67.055a136.512,136.512,0,0,1,28.879-54.35L169.8,139.537a36.617,36.617,0,0,0-4.939,14.271,45.511,45.511,0,0,0,.828,15.949,56.078,56.078,0,0,0,6.439,16.07,63.113,63.113,0,0,0,11.8,14.5Zm5.868,4.969L189.3,204.68a57.489,57.489,0,0,0,6.967,4.371,54.145,54.145,0,0,0,7.327,3.228A49.715,49.715,0,0,0,211.1,214.3a44.8,44.8,0,0,0,7.51.758l38.521,152.849a166.033,166.033,0,0,1-36.581-.57,189.677,189.677,0,0,1-37.277-8.6,211.74,211.74,0,0,1-36.362-16.3,227.568,227.568,0,0,1-33.824-23.42ZM350.069,644.285l-9.5,39.156-27.393-30.123,10.075-38.078ZM219.983,208.542q-.37.025-.744.037t-.75.013q-.377,0-.757-.012t-.763-.037a38.926,38.926,0,0,1-6.267-.693,43.009,43.009,0,0,1-6.256-1.708,46.663,46.663,0,0,1-6.109-2.678,49.485,49.485,0,0,1-5.824-3.6q-.7-.493-1.389-1.01t-1.357-1.057q-.67-.54-1.322-1.1t-1.288-1.148a54.561,54.561,0,0,1-9.962-12.352,48.508,48.508,0,0,1-5.49-13.663,39.508,39.508,0,0,1-.8-13.6,31.858,31.858,0,0,1,4.054-12.25q.339-.589.707-1.156t.76-1.112q.394-.545.814-1.068t.867-1.023a26.476,26.476,0,0,1,3.877-3.671,27.363,27.363,0,0,1,4.528-2.831,29.248,29.248,0,0,1,5.079-1.956,32.06,32.06,0,0,1,5.536-1.043q.693-.089,1.4-.142t1.416-.069q.712-.016,1.433,0t1.447.078a39.247,39.247,0,0,1,5.945.779,43.089,43.089,0,0,1,5.9,1.684,46.536,46.536,0,0,1,5.754,2.546,49.153,49.153,0,0,1,5.5,3.37q.665.461,1.317.942t1.289.984q.638.5,1.26,1.025t1.23,1.065a54.8,54.8,0,0,1,9.725,11.542,49.55,49.55,0,0,1,5.807,13.037,41.029,41.029,0,0,1,1.5,13.428,33.044,33.044,0,0,1-3.269,12.641,27.528,27.528,0,0,1-3.735,5.75,27.118,27.118,0,0,1-5,4.594,28.462,28.462,0,0,1-6.1,3.293,31.489,31.489,0,0,1-7.036,1.844q-.358.065-.72.118t-.728.093q-.366.04-.736.068t-.745.044ZM263.56,367.123,224.57,214.713a36.525,36.525,0,0,0,6.832-1.571,33.338,33.338,0,0,0,6.131-2.764,31.44,31.44,0,0,0,5.305-3.866,30.935,30.935,0,0,0,4.364-4.877l116.511,93.451a127.7,127.7,0,0,1-16.528,26.118,124.537,124.537,0,0,1-22.556,21.4,129.3,129.3,0,0,1-28.1,15.659,141.989,141.989,0,0,1-32.963,8.855Zm102.558-77.234-116.04-92.944a38.1,38.1,0,0,0,3.881-14.8,47.426,47.426,0,0,0-1.785-15.705,57.325,57.325,0,0,0-6.869-15.2,63.27,63.27,0,0,0-11.471-13.383l55.034-82.569A247.286,247.286,0,0,1,335.772,104a231.828,231.828,0,0,1,30.854,58.094,196.882,196.882,0,0,1,11.793,63.7,157.836,157.836,0,0,1-12.3,64.089Z" transform="translate(0 0)" fill="#fff"/><g transform="translate(344.209 290.054)"><path d="M90.635,201.96,24.473,1.743q-.4.912-.821,1.821t-.847,1.812q-.43.9-.872,1.8t-.9,1.783L84.523,203.12l-8.539,41.893,38.8,40.265,8.633-49.947Zm-6.624,41.392,6.406-32.209L115.631,236.9l-5.876,33.071Z" fill="#fff"/></g></g></svg>