<svg xmlns="http://www.w3.org/2000/svg" width="543.912" height="603.93" viewBox="0 0 543.912 603.93"><path d="M232.477,556.409a215.613,215.613,0,0,1-94.156-38.69,225.438,225.438,0,0,1-62.538-70.046A252.145,252.145,0,0,1,45.431,360.6,281.55,281.55,0,0,1,47.1,265.88a303.718,303.718,0,0,1,84.979-160.222,285.3,285.3,0,0,1,71.466-51.742,252.714,252.714,0,0,1,86.42-25.978,225.321,225.321,0,0,1,90.368,8.035,216.849,216.849,0,0,1,79.7,44.233,230.279,230.279,0,0,1,58.471,79.408c14.674,32.636,22.824,70.039,22.368,110.618a295.754,295.754,0,0,1-26.94,119.487,304.1,304.1,0,0,1-71.224,98.061c-29.463,26.941-63.571,47.228-100.081,59.182C306.945,558.646,269.519,562.187,232.477,556.409ZM289.291,34.168A245.179,245.179,0,0,0,205.06,59.281a277.089,277.089,0,0,0-69.726,50.382A295.076,295.076,0,0,0,52.591,265.928a273.094,273.094,0,0,0-1.4,92.225A244.332,244.332,0,0,0,81.006,442.68a218.427,218.427,0,0,0,61.008,67.7,209.168,209.168,0,0,0,91.44,37.06c35.882,5.43,72.1,1.865,106.61-9.543,35.281-11.663,68.233-31.343,96.7-57.415a295.509,295.509,0,0,0,68.9-94.792A287.351,287.351,0,0,0,531.98,270.153c.564-39.293-7.186-75.551-21.259-107.232a223.6,223.6,0,0,0-56.352-77.3A210.32,210.32,0,0,0,377.158,42.3,218.455,218.455,0,0,0,289.291,34.168Z" transform="translate(0 0.001)" fill="#fff"/><g transform="translate(70.129 10.07)"><g transform="translate(0 19.422)"><path d="M5.556,410.875.514,407.21,216.717.638,222.3,2.51Z" transform="translate(0 0)" fill="#fff"/></g><g transform="translate(169.734 0)"><path d="M204.27,469.073,46.706,22.575l6.124-3.143L212.538,466.176Z" fill="#fff"/></g></g><g transform="translate(60.122 81.204)"><g transform="translate(171.114 0)"><path d="M6.9,473.245.379,468.709,224.8.549l7.007,2.2Z" transform="translate(0)" fill="#fff"/></g><g transform="translate(0 13.537)"><path d="M171.123,458.684,69.1,14.54l5.537-2.785L178.365,456.2Z" transform="translate(0 -0.001)" fill="#fff"/></g></g><g transform="translate(71.443 75.583)"><g transform="translate(32.975)"><path d="M430.294,197.719,25.751,37.147l3.026-5.829L433.721,189.9Z" transform="translate(0 0)" fill="#fff"/></g><g transform="translate(0 186.949)"><path d="M2.233,179.7,1.189,172.31,463.4,2.916l3.169,7.9Z" transform="translate(0)" fill="#fff"/></g></g><g transform="translate(17.401 81.704)"><g transform="translate(0 182.151)"><path d="M429.081,218.052,30.685,6.191,33.818.015,432.653,209.621Z" fill="#fff"/></g><g transform="translate(30.645)"><path d="M2.073,188.343l-.936-6.181L410.081.223,412.7,6.612Z" transform="translate(0 0)" fill="#fff"/></g></g></svg>