<svg xmlns="http://www.w3.org/2000/svg" width="375.29" height="78.63" viewBox="0 0 375.29 78.63"><defs><style>.a{fill:#fff;}</style></defs><path class="a" d="M20.62.32a20.88,20.88,0,0,1,8.12,1.23,29.43,29.43,0,0,1,4.91,2.72c.86.5,1.55.88,2.08,1.12a3.53,3.53,0,0,0,1.55.38c1.14,0,1.93-1.57,2.35-4.7h2.46Q42,2.89,41.82,5.39c-.1,1.68-.18,3.89-.21,6.63s0,6.35,0,10.84H39.1A30.86,30.86,0,0,0,36.86,13a19,19,0,0,0-5.61-7.69,14.9,14.9,0,0,0-9.67-3,13.21,13.21,0,0,0-9.35,3.42,11.69,11.69,0,0,0-3.68,9A13,13,0,0,0,11,22.81a24.71,24.71,0,0,0,6.57,5.87q4.11,2.63,8.92,5.61a109.06,109.06,0,0,1,9.89,6.79,28.24,28.24,0,0,1,6.83,7.42,18.37,18.37,0,0,1,2.51,9.83,19.5,19.5,0,0,1-3.09,11.32,19.07,19.07,0,0,1-8.23,6.73,27.87,27.87,0,0,1-11.32,2.25,25.38,25.38,0,0,1-9-1.29,37.24,37.24,0,0,1-5.66-2.67,7.8,7.8,0,0,0-3.63-1.49c-1.14,0-1.93,1.57-2.35,4.7H0c.14-1.5.23-3.26.27-5.29s.07-4.68.1-8,.06-7.4.06-12.39H2.88a44.4,44.4,0,0,0,2.41,12,19.71,19.71,0,0,0,6.09,8.92q4.11,3.38,10.95,3.37a15.19,15.19,0,0,0,9.56-3.37q4.32-3.36,4.32-10.84a14.12,14.12,0,0,0-4.59-10.79,72.78,72.78,0,0,0-12.07-8.76q-5-3.09-9.4-6.3a26.59,26.59,0,0,1-7-7.43A19,19,0,0,1,.53,18.8,17.93,17.93,0,0,1,3.37,8.39,17,17,0,0,1,10.79,2.3,24.56,24.56,0,0,1,20.62.32Z"/><path class="a" d="M114.2,1.5q-.42,4.05-.59,7.85c-.1,2.53-.16,4.47-.16,5.82,0,1.71,0,3.31.11,4.81s.14,2.81.21,3.95h-2.45a67.23,67.23,0,0,0-2-11.8,10.32,10.32,0,0,0-4.49-6.25Q101.59,3.95,94.86,4H89.1V64.74a19.21,19.21,0,0,0,.8,6.41A4.63,4.63,0,0,0,93.05,74a28,28,0,0,0,6.83,1v2.14q-2.77-.21-7-.27t-8.65,0q-4.8,0-9,0t-6.78.27V75a28.2,28.2,0,0,0,6.84-1,4.67,4.67,0,0,0,3.15-2.88,19.48,19.48,0,0,0,.8-6.41V4H73.39q-6.63,0-9.88,1.93A10.23,10.23,0,0,0,59,12.13a67.23,67.23,0,0,0-2,11.8H54.48A39,39,0,0,0,54.75,20c0-1.5,0-3.1,0-4.81,0-1.35,0-3.29-.16-5.82s-.3-5.15-.59-7.85l9.78.21q5.3.1,10.63.11H93.85q5.3,0,10.63-.11Z"/><path class="a" d="M187.27,1.5V3.63a13.22,13.22,0,0,0-5.5,1.07,4.89,4.89,0,0,0-2.51,3.1,22.16,22.16,0,0,0-.64,6.09V46a77.58,77.58,0,0,1-1,13,27.54,27.54,0,0,1-3.42,9.61,19.35,19.35,0,0,1-7.8,7.21,24.64,24.64,0,0,1-11.75,2.73,38.1,38.1,0,0,1-9.78-1.23,18.73,18.73,0,0,1-8.17-4.54,25.26,25.26,0,0,1-4.86-6.31,23.64,23.64,0,0,1-2.4-8.11,93.42,93.42,0,0,1-.65-12.08V12.82A19.26,19.26,0,0,0,128.19,7a4,4,0,0,0-2.51-2.57,18.22,18.22,0,0,0-5.5-.8V1.5c1.5.07,3.45.14,5.88.21s5,.11,7.8.11q3.73,0,7.42-.11c2.46-.07,4.5-.14,6.14-.21V3.63a18.27,18.27,0,0,0-5.5.8A4,4,0,0,0,139.41,7a19.26,19.26,0,0,0-.64,5.82V48.18a77.66,77.66,0,0,0,1.07,13.35,17.9,17.9,0,0,0,4.64,9.73q3.59,3.63,11.17,3.63,8.11,0,12.55-3.58a18.8,18.8,0,0,0,6.2-9.88,53,53,0,0,0,1.76-14.21V13.89a16,16,0,0,0-.91-6.09,5.73,5.73,0,0,0-3-3.1,15.44,15.44,0,0,0-5.77-1.07V1.5q1.92.1,5.07.21c2.1.07,4,.11,5.82.11s3.69,0,5.51-.11S186.13,1.57,187.27,1.5Z"/><path class="a" d="M223.8,1.5q19.13,0,28.42,9.56t9.3,27.4A43.49,43.49,0,0,1,257,58.81a32.14,32.14,0,0,1-13.2,13.51q-8.66,4.82-20.94,4.81c-1.56,0-3.88,0-6.94-.16s-5.73-.16-8-.16c-2.5,0-4.95,0-7.37,0s-4.38.13-5.88.27V75a21.78,21.78,0,0,0,5.5-.85,3.85,3.85,0,0,0,2.51-2.56,19.42,19.42,0,0,0,.64-5.77v-53A19.26,19.26,0,0,0,202.65,7a4,4,0,0,0-2.51-2.57,18.27,18.27,0,0,0-5.5-.8V1.5l5.88.26q3.63.17,7.15.06c2.5-.07,5.31-.15,8.44-.22S221.81,1.5,223.8,1.5Zm-2.67,1.92q-4.9,0-6.41,1.81c-1,1.22-1.49,3.67-1.49,7.38V66c0,3.7.51,6.16,1.55,7.37s3.18,1.82,6.46,1.82q11.64,0,18-4.22a22.18,22.18,0,0,0,9-12.34,66.2,66.2,0,0,0,2.56-19.76q0-18-6.57-26.71T221.13,3.42Z"/><path class="a" d="M298.16,1.5V3.63a18.22,18.22,0,0,0-5.5.8A4,4,0,0,0,290.15,7a19.26,19.26,0,0,0-.64,5.82v53a19.42,19.42,0,0,0,.64,5.77,3.83,3.83,0,0,0,2.51,2.56,21.7,21.7,0,0,0,5.5.85v2.14q-2.46-.21-6.14-.27t-7.43,0q-4.17,0-7.8,0t-5.87.27V75a21.78,21.78,0,0,0,5.5-.85,3.87,3.87,0,0,0,2.51-2.56,19.42,19.42,0,0,0,.64-5.77v-53A19.26,19.26,0,0,0,278.93,7a4,4,0,0,0-2.51-2.57,18.27,18.27,0,0,0-5.5-.8V1.5q2.24.1,5.87.21t7.8.11q3.74,0,7.43-.11T298.16,1.5Z"/><path class="a" d="M341.42,0a33.86,33.86,0,0,1,17.79,4.59,30.8,30.8,0,0,1,11.86,13.2q4.21,8.59,4.22,20.88A47.61,47.61,0,0,1,371,59.61a33.86,33.86,0,0,1-12,14,31.6,31.6,0,0,1-17.63,5A33.77,33.77,0,0,1,323.53,74a30.8,30.8,0,0,1-11.86-13.24q-4.21-8.65-4.22-20.84A47.18,47.18,0,0,1,311.83,19a34.33,34.33,0,0,1,12-14A31.23,31.23,0,0,1,341.42,0ZM341,1.92a17.08,17.08,0,0,0-12.07,4.81A31.4,31.4,0,0,0,321,20a61.36,61.36,0,0,0-2.83,19.55,56,56,0,0,0,3.15,19.71q3.15,8.38,8.54,12.92a18.08,18.08,0,0,0,11.92,4.54,17.1,17.1,0,0,0,12.07-4.8q5.13-4.82,8-13.3a61.84,61.84,0,0,0,2.83-19.5,55.84,55.84,0,0,0-3.15-19.76Q358.3,11,353,6.46A18,18,0,0,0,341,1.92Z"/></svg>