<svg xmlns="http://www.w3.org/2000/svg" width="313.12" height="78.63" viewBox="0 0 313.12 78.63"><defs><style>.a{fill:#fff;}</style></defs><path class="a" d="M27.24,1.5V3.63a18.27,18.27,0,0,0-5.5.8A4,4,0,0,0,19.23,7a19.26,19.26,0,0,0-.64,5.82v53a19.42,19.42,0,0,0,.64,5.77,3.85,3.85,0,0,0,2.51,2.56,21.78,21.78,0,0,0,5.5.85v2.14c-1.64-.14-3.68-.23-6.14-.27s-4.93,0-7.43,0q-4.15,0-7.79,0c-2.43,0-4.38.13-5.88.27V75a21.78,21.78,0,0,0,5.5-.85A3.85,3.85,0,0,0,8,71.58a19.42,19.42,0,0,0,.64-5.77v-53A19.26,19.26,0,0,0,8,7,4,4,0,0,0,5.5,4.43,18.27,18.27,0,0,0,0,3.63V1.5c1.5.07,3.45.14,5.88.21s5,.11,7.79.11c2.5,0,5,0,7.43-.11S25.6,1.57,27.24,1.5Z"/><path class="a" d="M103.3,1.5V3.63A13.26,13.26,0,0,0,97.8,4.7a4.89,4.89,0,0,0-2.51,3.1,22.16,22.16,0,0,0-.64,6.09V77.67H92.19L47.32,8.33V64.74a20.76,20.76,0,0,0,.7,6,4.8,4.8,0,0,0,2.78,3.1A18.69,18.69,0,0,0,57.05,75v2.14c-1.29-.14-3-.23-5-.27s-4,0-5.88,0-3.58,0-5.4,0-3.33.13-4.54.27V75a15,15,0,0,0,5.51-1.12,4.75,4.75,0,0,0,2.51-3.1,22.63,22.63,0,0,0,.64-6V12.82A19.59,19.59,0,0,0,44.23,7a4,4,0,0,0-2.51-2.57,18.35,18.35,0,0,0-5.51-.8V1.5c1.21.07,2.73.14,4.54.21s3.62.11,5.4.11c1.57,0,3.06,0,4.49-.11l3.84-.21L92.19,59.61V13.89A20.76,20.76,0,0,0,91.5,7.8a5,5,0,0,0-2.78-3.1,16.6,16.6,0,0,0-6.25-1.07V1.5c1.28.07,3,.14,5.08.21s4,.11,5.82.11,3.68,0,5.5-.11S102.16,1.57,103.3,1.5Z"/><path class="a" d="M146.57,0q6.94,0,11.22,2.08a51,51,0,0,1,8,4.86A4.08,4.08,0,0,0,167.94,8q2,0,2.67-6.51h2.45c-.14,2.63-.25,5.84-.32,9.61s-.1,8.76-.1,15h-2.46q-.75-4.49-1.82-8.66a18.17,18.17,0,0,0-3.52-7.15,20.5,20.5,0,0,0-8.12-6.15,25.67,25.67,0,0,0-10.36-2.19,18.33,18.33,0,0,0-9.67,2.62,22.87,22.87,0,0,0-7.43,7.53,39.21,39.21,0,0,0-4.75,11.81,66.3,66.3,0,0,0-1.66,15.54q0,19.23,6.2,28.15t19.23,8.92A18.08,18.08,0,0,0,155,75.37a24.94,24.94,0,0,0,4.43-2.19A7,7,0,0,0,162,70.56a8.2,8.2,0,0,0,.54-3.26V57.05a18.63,18.63,0,0,0-.86-6.52,4.82,4.82,0,0,0-3.15-2.88,25,25,0,0,0-6.78-.86V44.65c1.28.08,2.78.13,4.48.16l5.4.11c1.89,0,3.61.06,5.18.06q3.53,0,6.36-.11c1.88-.07,3.47-.14,4.75-.22v2.14q-3.52.21-4.49,1.71t-1,7.48V77.13h-2.13a16,16,0,0,0-.81-3.95C169,71.75,168.33,71,167.4,71a2.88,2.88,0,0,0-1.28.32,18.63,18.63,0,0,0-2.24,1.5,31.24,31.24,0,0,1-7.48,4.22,25.17,25.17,0,0,1-9.19,1.55q-16.56,0-25.8-10.1T112.17,40.6q0-12.51,4.49-21.58A34.22,34.22,0,0,1,128.89,5,32,32,0,0,1,146.57,0Z"/><path class="a" d="M251.48,1.5V3.63A13.28,13.28,0,0,0,246,4.7a4.92,4.92,0,0,0-2.51,3.1,22.56,22.56,0,0,0-.64,6.09V46a77.58,77.58,0,0,1-1,13,27.34,27.34,0,0,1-3.42,9.61,19.35,19.35,0,0,1-7.8,7.21,24.61,24.61,0,0,1-11.75,2.73,38,38,0,0,1-9.77-1.23,18.77,18.77,0,0,1-8.18-4.54,25.74,25.74,0,0,1-4.86-6.31,24.09,24.09,0,0,1-2.4-8.11A93.65,93.65,0,0,1,193,46.36V12.82A19.26,19.26,0,0,0,192.4,7a4,4,0,0,0-2.51-2.57,18.27,18.27,0,0,0-5.5-.8V1.5q2.24.1,5.87.21t7.8.11c2.49,0,5,0,7.42-.11s4.51-.14,6.15-.21V3.63a18.22,18.22,0,0,0-5.5.8A4,4,0,0,0,203.61,7a19.59,19.59,0,0,0-.64,5.82V48.18A77.66,77.66,0,0,0,204,61.53a17.84,17.84,0,0,0,4.65,9.73c2.38,2.42,6.11,3.63,11.16,3.63q8.13,0,12.56-3.58a18.79,18.79,0,0,0,6.19-9.88,52.59,52.59,0,0,0,1.76-14.21V13.89a16.21,16.21,0,0,0-.9-6.09,5.75,5.75,0,0,0-3.05-3.1,15.4,15.4,0,0,0-5.77-1.07V1.5c1.29.07,3,.14,5.08.21s4,.11,5.82.11,3.69,0,5.5-.11S250.33,1.57,251.48,1.5Z"/><path class="a" d="M313.12,1.5V3.63l-42.63,71h20.94a26,26,0,0,0,8.17-1.06,10.78,10.78,0,0,0,5-3.37,15.56,15.56,0,0,0,2.83-6.14,66.06,66.06,0,0,0,1.5-9.4h2.46c-.22,2.2-.32,5.12-.32,8.76,0,1.35.05,3.29.16,5.82s.3,5.15.58,7.85q-5.86-.21-13.3-.27t-13.3,0q-6.3,0-13.3,0c-4.66,0-9,.13-13.08.27V75L301.79,4H281q-6.63,0-10.15,1.93a11,11,0,0,0-5.07,6.25,51.11,51.11,0,0,0-2.3,11.8H261c.14-1.14.23-2.46.27-3.95s.05-3.1.05-4.81c0-1.35-.05-3.29-.16-5.82s-.3-5.15-.58-7.85q6,.21,13.35.26t13.25.06q6.09,0,13.08-.06T313.12,1.5Z"/></svg>