<svg xmlns="http://www.w3.org/2000/svg" width="245.327" height="73.523" fill="#fff" xmlns:v="https://vecta.io/nano"><path d="M245.24 1.19a.6.6 0 0 0-.26.14c-.06.06 0 .09.06.07a.92.92 0 0 0 .26-.14c.05-.06.03-.09-.06-.07zm-1-1.19a1.94 1.94 0 0 0-.51.08c-.39.1-.39.1.06.06s.63-.09.45-.14zm-3.06 1.11c-.09 0-.15 0-.16.06s.07.09.16.09.15 0 .15-.06-.06-.09-.15-.09zm-2.58 1.41c-.16.06-.26.13-.22.15a.35.35 0 0 0 .44-.14c.06-.08-.01-.09-.22-.01zm-.64 1.58c-.15.12-.24.22-.19.23s.18-.08.28-.2.2-.22-.09-.03zM236.73 3c-.09.05-.16.1-.16.12s.07 0 .16 0c.074 0 .139-.049.16-.12.01-.05-.07 0-.16 0zm-1.65 2.09a.62.62 0 0 0-.25.14h.14c.14 0 .33-.23.11-.14zm-.9-.72a.23.23 0 0 0-.17.12h.16a.2.2 0 0 0 .16-.12c0-.02-.06-.02-.15 0zm-1.74 2.38c-.13.08-.21.16-.18.17s.4-.17.4-.25-.1-.01-.22.08zm-1.05-1.59c-.37 0-.43 0-.23.13.155.098.359.068.48-.07.01-.07-.12-.06-.25-.06zm-.85.24c-.3.07-.34.1-.19.14a.41.41 0 0 0 .38-.1c.15-.1.11-.11-.19-.04zm.12 1.33c-.07 0-.14 0-.14.11s.06.08.13 0 .14-.09.14-.11-.05.01-.13 0zM229.63 6c-.2.06-.31.13-.27.18s0 .11-.17.14-.25.09-.25.12.21 0 .48-.08.43-.16.28-.17-.18 0 0-.15.2-.04-.07-.04zm-.98-.27c-.23 0-.48.18-.35.25s.17 0 .31-.08.15-.16.04-.17z"/><path d="M228.51 6.18a1.18 1.18 0 0 0-.52.17c-.15.1-.21.11-.26.05a.25.25 0 0 0-.2-.05c-.09 0-.11.08-.06.13s0 .12-.21.17-.29.07 0 .09a.88.88 0 0 0 .38-.06.43.43 0 0 1 .29 0c.15 0 .21 0 .21-.06s.1-.08.2-.08.1 0 0-.08-.15-.08-.06-.08a.76.76 0 0 0 .36-.1c.12-.11.09-.13-.13-.1z"/><path d="M228.51 6.71a.72.72 0 0 0-.32.08c-.2.08-.2.1 0 .11.32.03.59-.12.32-.19zm-.18 1.18c-.28 0-.57.17-.56.29s0 .05.09 0a.56.56 0 0 1 .38-.1c.22.01.31 0 .31-.08s-.1-.11-.22-.11zM227.3 7c-.19 0-.26.06-.27.17a.12.12 0 0 0 .16.11c.09 0 .13-.06.08-.08s0-.09.1-.13.1-.07-.07-.07zm-.73-.07a.56.56 0 0 0-.34.1c-.1.08-.1.12 0 .13a.57.57 0 0 0 .34-.11c.13-.05.12-.12 0-.12zm-.44 1.38a.58.58 0 0 0-.16.16c-.06.08 0 .11.05.07s.24-.26.11-.23zm-.17-.57a.17.17 0 0 0-.14.15c0 .07 0 .11.13.09a.19.19 0 0 0 .14-.15c-.02-.07-.07-.11-.13-.09zm-.12 1.42c-.09-.05-.15-.05-.15 0s.06.1.14.1.2 0 .01-.1zm-.58-1.85c-.27.07-.4.14-.36.19s0 .1 0 .13 0 0 .11 0 .47 0 .47.11a2.75 2.75 0 0 1-1 .22h-.2a.81.81 0 0 0 .33.09c.153.029.311-.004.44-.09.09-.09.15-.1.2 0s.11.06.28-.06.18-.2.06-.34-.12-.21 0-.27-.09-.04-.33.02z"/><path d="M224.64 8.32a.2.2 0 0 0-.16.12c0 .02.07 0 .16 0 .074 0 .139-.049.16-.12 0-.04-.07-.05-.16 0zm-.17 1.48c-.18 0-.22.08-.09.08a1.08 1.08 0 0 0 .3-.08c.05-.04-.04-.04-.21 0zm-.27-2.18a2.27 2.27 0 0 0-.47.18c-.3.17-.05.11.39-.09.21-.1.24-.13.08-.09zm-.58.52c-.3.08-.8.33-.54.28a1.86 1.86 0 0 0 .47-.19c.14-.08.17-.11.07-.09zm-.39 2.01c-.15 0-.19 0-.14.14s.13.15.25 0 0-.15-.11-.14zm-.41-1.29c-.3 0-.5 0-.46.05s0 .08-.11.1c-.33.08 0 .12.51.06s.66-.22.06-.21zm-.79-.14c-.32.11-.4.12-.34 0s-.09-.13-.3-.13c-.46 0-.5 0-.51.1s.12 0 .25 0 .23 0 0 .12-.19.17.05.07a.6.6 0 0 1 .36-.06 1.48 1.48 0 0 0 .87-.2 1.3 1.3 0 0 0-.38.1zm-.07 1.59v.15c0 .02.09 0 .08-.12s-.08-.1-.08-.03z"/><path d="M221.35 9.12l.32.07-.37.13a2.76 2.76 0 0 1-.82.12c-.41 0-.42 0-.14-.17a.72.72 0 0 1 .48-.14h.21c.104-.029.214-.033.32-.01zm-.34.22c.23-.12.19-.16-.1-.09-.13 0-.19.08-.14.11a.3.3 0 0 0 .24-.02zm.09 1.34a1.07 1.07 0 0 0-.32.11h.31c.18 0 .32-.07.32-.11s-.13-.04-.31 0zm-.29-2.88c-.2 0-.43.25-.33.28a.5.5 0 0 0 .28-.15c.13-.1.2-.15.05-.13zm-.33 1.02c-.18 0-.22.07-.1.07a.77.77 0 0 0 .3-.08c.05-.04-.04-.03-.2.01zm-.26 2.36c-.13 0-.23 0-.23.08s.09.05.23 0 .23-.07.23-.09a.57.57 0 0 0-.23.01zm-.09-1.51a2.9 2.9 0 0 0-.39.17c-.14.08-.17.12-.08.09a2.15 2.15 0 0 0 .39-.16c.14-.08.17-.12.08-.1zm-.07.44a1.4 1.4 0 0 0-.87.16c0 .05.13.06.4 0 .55-.05.64-.08.47-.16zm0 .64a.63.63 0 0 0-.27 0c-.11 0-.1.06 0 .09a.36.36 0 0 0 .26 0s.07-.08.01-.09z"/><path d="M219.7 8.69c-.18.05-.22.08-.1.07a.73.73 0 0 0 .31-.08c.05-.03-.04-.03-.21.01zm.06.79a.32.32 0 0 1-.25 0 1 1 0 0 0-.84.26c-.15.17-.17.18-.26.07a.18.18 0 0 0-.32.12c-.01.21.06.16.39.05a3.24 3.24 0 0 0 .59-.25 1.45 1.45 0 0 1 .52-.15c.19 0 .32-.06.32-.11s-.06-.04-.15.01z"/><path d="M219.54 9c-.19 0-.23.08-.1.08a.82.82 0 0 0 .3-.08c.05-.08-.04-.08-.2 0zm-.04.75c-.18.05-.22.08-.1.07a.63.63 0 0 0 .3-.08s-.04-.03-.2.01zm-.24 1.53c-.14 0-.2.08-.15.11a.32.32 0 0 0 .25 0c.22-.14.18-.18-.1-.11zm-.49-1.21c-.58.14-.56.19.05.1.24 0 .44-.1.44-.14s-.22-.03-.49.04zm.19 1.59c-.086-.006-.171.027-.23.09 0 .02.09 0 .23 0s.23 0 .23-.09-.1-.03-.23 0zm-.1-3.08a.21.21 0 0 0-.16.11c0 .05.07.07.16 0s.16-.07.16-.11-.06-.02-.16 0zm-.58 3.87c-.14 0-.21.08-.16.11a.41.41 0 0 0 .25 0c.069 0 .129-.044.15-.11 0-.04-.11-.04-.24 0zm-.05-3.69c-.08 0-.15 0-.16.08s.08.06.16.05.16-.06.16-.08-.07-.04-.16-.05z"/><path d="M218.06 9.39a.62.62 0 0 0-.25.14c0 .05 0 .07.15 0s.25-.09.25-.14-.06-.02-.15 0zm-.1 1.02a.19.19 0 0 0-.16.12c.047.036.113.036.16 0 .09-.06.16-.07.16-.12s-.03-.02-.16 0zm-.24-.41a.39.39 0 0 0-.3 0c-.11 0-.13.1-.05.15a.41.41 0 0 0 .31 0c.1-.02.12-.08.04-.15zm-.14.93c-.096-.008-.189.038-.24.12-.01.04.06 0 .15 0a.6.6 0 0 0 .24-.12c.05-.02-.02-.04-.15 0z"/><path d="M217.53 10.41c-.09.05-.16.1-.16.12s.06 0 .15 0a.18.18 0 0 0 .17-.12c.01-.05-.07-.05-.16 0zm-.25 2a.2.2 0 0 0-.16.12c0 .02.07 0 .16 0 .077 0 .144-.054.16-.13 0-.05-.07-.04-.16.01zm0-1.61a3.23 3.23 0 0 0-.74.21c-.7.26-.9.26-.58 0 .12-.1.14-.14 0-.09s-.21.07-.24 0a2.61 2.61 0 0 0-1.22.24c-.083.045-.175.072-.27.08-.15.01-.22 0-.14.08a2 2 0 0 0 .84-.13c.56-.16.73-.18.75-.09 0 .27.07.29.33.23a1.68 1.68 0 0 0 .44-.17 2.44 2.44 0 0 1 .52-.22c.24-.05.37-.12.31-.14zm-.2-.59c-.08 0-.16 0-.16.07s.07.06.16 0 .15-.05.15-.07-.06 0-.15 0z"/><path d="M216.89 10.56a.44.44 0 0 0-.32.12c-.11.11-.15.12-.14.05s-.12-.07-.27 0-.23.06 0 .09.85-.06.85-.16-.05-.1-.12-.1zm-1.02.91a.46.46 0 0 0-.32 0c-.06 0-.07 0 0-.07s0-.12-.3 0-.38.11-.23.17.11.08-.08.12c-.35.08-.34.23 0 .16l.43-.11.44-.13c.32-.09.32-.09.06-.14z"/><path d="M215.31 11.21c-.08 0-.16.07-.16.12s.07 0 .16 0a.2.2 0 0 0 .16-.12c0-.02-.07-.02-.16 0zm-.07 2.33c-.027.046-.027.104 0 .15 0 .01.09 0 .09-.12s-.04-.1-.09-.03z"/><path d="M214.96 13c-.18.05-.22.08-.1.08a1 1 0 0 0 .3-.08zm.11.17c-.09.05-.16.1-.16.12s.06 0 .15 0c.074 0 .139-.049.16-.12 0-.04-.06-.05-.15 0z"/><path d="M214.46 12.72a1.83 1.83 0 0 0-.56.15h.48c.67-.15.75-.26.08-.15zm-.14-1.19c.25-.06.32 0 .25.05a.54.54 0 0 1-.3.19 1.5 1.5 0 0 0-.43.2 2.17 2.17 0 0 1-.53.23c-.61.18-.87.29-.86.36s.07.06.16 0h.26a2.16 2.16 0 0 0 .38-.08.7.7 0 0 1 .38 0c.07 0 .05.06-.06 0s-.18.05-.19.14-.07.17-.6.24a2.33 2.33 0 0 0-.77.19.51.51 0 0 1-.4.07 1.12 1.12 0 0 0-.84.15 2.46 2.46 0 0 1-1.22.24c-.098-.012-.189.053-.21.15a.4.4 0 0 1-.33.2c-.11 0-.21 0-.22.1s-.11.11-.23.14a1 1 0 0 0-.38.22.65.65 0 0 1-.37.18 1 1 0 0 0-.42.16.5.5 0 0 1-.51.09 2.63 2.63 0 0 0-.63 0c-.43.05-.44-.08 0-.21.2-.06.37-.16.37-.21s.18-.13.56-.2.55-.13.55-.18-.27-.12-.39 0-.4.12-.39 0a2.52 2.52 0 0 1 1.13-.22 1 1 0 0 0 .52-.11c.06-.06 0-.08-.14 0-.31.07-.31 0 0-.27s.69-.33.69-.21.11 0 .25-.1a2.14 2.14 0 0 1 .68-.28 3.13 3.13 0 0 0 .56-.19 4.17 4.17 0 0 1 1.28-.34 1.51 1.51 0 0 0 .39 0h.2a.34.34 0 0 0 .28 0 .6.6 0 0 0 .31-.13c0-.05.1-.08.23-.09s.23 0 .23-.1a.13.13 0 0 1 .15-.08 1.35 1.35 0 0 0 .4-.1c.22-.09.23-.12.06-.13s-.11-.01.15-.07zm-1.61 1.28a1.16 1.16 0 0 0 .39-.09h-.2c-.2 0-.3.1-.19.09zm-.86.22c0 .07.08 0 .09-.1s0-.2-.2-.17-.24.09-.24.14.06.06.14 0a.2.2 0 0 1 .21.1zm-.49-.26c.07.004.133-.042.15-.11 0-.04-.11-.05-.24 0s-.21.08-.15.11a.31.31 0 0 0 .24 0zm-.81.2c.09 0 .17-.07.17-.11-.202-.025-.406.029-.57.15a2.61 2.61 0 0 1-.52.18c-.48.11-.93.34-.77.39a1.54 1.54 0 0 0 .5-.16c.23-.1.4-.16.4-.12s.18 0 .39-.06.36-.15.31-.18 0-.06.09-.06zm-2.59 1.28c.5-.25.63-.35.36-.29a.61.61 0 0 0-.25.14.31.31 0 0 1-.32.07 1.16 1.16 0 0 0-.5.07c-.24.09-.23.1.06.08s.31 0 .26.07.14-.01.39-.14zm-.76.37c.21 0 .18-.09-.08-.14s-.22 0-.14.06a.22.22 0 0 0 .24.08zm5.98-3.89c-.45.14-.61.28-.22.19a1 1 0 0 0 .43-.19c.06-.06-.03-.06-.21 0zm-.06.93c-.35.08-.4.15-.19.27s.16 0 .32-.14.14-.2-.13-.13z"/><path d="M213.26 13.1a1.57 1.57 0 0 0-.33.19c-.25.19-.21.19.17 0 .22-.07.35-.24.16-.19zm-.3.98c-.14.06-.24.11-.24.13s.1 0 .23 0 .24-.09.24-.13-.14-.08-.23 0zm0-3.54c-.18.05-.22.08-.1.08a1 1 0 0 0 .3-.08c.02-.04-.07-.04-.2 0zm-.73 1.46c-.18.05-.22.08-.1.07a.63.63 0 0 0 .3-.08c.05-.08-.04-.08-.2.01zm-.03 2.59c-.074 0-.139.049-.16.12 0 .04.06 0 .15 0a.2.2 0 0 0 .16-.12c0-.02-.06-.02-.15 0zm-.14-4.59c-.15.06-.25.13-.2.14.111.01.219-.035.29-.12.11-.12.13-.1-.09-.02zm-.73 4.78c-.23 0-.4.09-.4.13s.17 0 .39 0a1.17 1.17 0 0 0 .4-.13 1.27 1.27 0 0 0-.39 0zm-.49-1.14a.38.38 0 0 0-.25.09c0 .06 0 .08.14 0 .29-.02.33-.07.11-.09z"/><path d="M210.84 10.34c-.33.07-.72.31-.58.34a.27.27 0 0 0 .23-.08 1.34 1.34 0 0 1 .35-.21c.21-.09.21-.09 0-.05zm-.17 1.66c-.114.006-.209.088-.23.2 0 .08-.09.16-.36.2s-.33.05 0 .05a1.72 1.72 0 0 0 .54-.12c.26-.14.34-.39.05-.33z"/><path d="M209.75 12c-.53.19-.65.25-.53.29a2 2 0 0 0 .53-.22l.47-.23zm.08-1.24c-.12 0-.19.09-.15.14a.23.23 0 0 0 .22 0 .2.2 0 0 0 .15-.14c-.071-.025-.149-.025-.22 0zm-.63 4.13c-.09 0-.11.1-.05.13s.17.05.18-.09-.06-.08-.13-.04zm.01.34a.54.54 0 0 0-.24.12c0 .05 0 .06.15 0s.23-.08.24-.12-.06-.02-.15 0z"/><path d="M209.09 12.74c-.15 0-.21 0-.15.07s0 .12-.12.19-.14.1 0 .08a1 1 0 0 0 .37-.2c.1-.11.09-.14-.1-.14zm.07-3.13c-.09.05-.16.1-.16.12s.07 0 .16 0c.074 0 .139-.049.16-.12 0-.04-.07-.05-.16 0z"/><path d="M208.96 11c-.27.09-.5.25-.51.35a1.1 1.1 0 0 0 .39-.09c.45-.11.56-.37.12-.26zm-.49 1.35c-.38 0-.48.06-.16.07a1 1 0 0 0 .35 0 .2.2 0 0 0-.19-.07zm-.27.25a4.52 4.52 0 0 0-.5.18c-.4.17-.1.2.35 0s.48-.27.15-.18zm-.48 3.4c-.51.06-.69.15-.4.19a1.06 1.06 0 0 0 .51-.1c.29-.09.27-.09-.11-.09zm.08-5.79c-.18 0-.22.08-.1.08a.77.77 0 0 0 .31-.08s-.05-.04-.21 0zm-.09 4.52a2.11 2.11 0 0 0-.36.17c-.2.11-.2.12 0 .07a.93.93 0 0 0 .36-.17c.09-.06.08-.09 0-.07z"/><path d="M207.57 13.18a.25.25 0 0 0-.14.15.09.09 0 0 0 .13 0 .17.17 0 0 0 .13-.15c0-.02-.05-.04-.12 0zm.07-3.34v.15c0 .02.09 0 .09-.12s-.04-.1-.09-.03zm-.38 2.08a.58.58 0 0 1-.4.06c-.113-.003-.224.036-.31.11-.15.11-.14.16.28.06a1.88 1.88 0 0 0 .61-.24c.07-.08.01-.08-.18.01zm-.52.96c-.34.09-.46.13-.27.1a3.24 3.24 0 0 0 .63-.15c.15-.05-.01-.03-.36.05zm.34 2.19h-.37c-.17 0-.31.07-.31 0s-.07 0-.14.09a1.46 1.46 0 0 1-.59.35c-.29.1-.23.09.17 0s.8-.24 1-.28l.34-.09zm-.42 1.2a.13.13 0 0 0-.16.11c0 .07.07.09.15 0a.6.6 0 0 0 .16-.11z"/><path d="M206.45 16.68c-.27.06-.3.08-.12.09s.46 0 .47-.1-.16-.03-.35.01zm.2-3.17c-.075.004-.141.05-.17.12-.01.04.07 0 .16 0a.2.2 0 0 0 .16-.12c0-.02-.06-.02-.15 0zm-.23-.31a.54.54 0 0 1-.32.05.24.24 0 0 0-.28.11c-.06.09 0 .12.13.08l.35-.07a.26.26 0 0 0 .17-.14c.04-.07.02-.08-.05-.03zm-.26-1.2c-.18.05-.22.08-.1.08a.68.68 0 0 0 .3-.08zm-.31 2a.29.29 0 0 1-.3 0 .23.23 0 0 0-.25 0c-.14.1.22.28.49.24a.19.19 0 0 0 .2-.15c0-.07-.03-.16-.14-.09zm-.15 1c.29.19.29.26 0 .27-.13 0-.24 0-.23-.06s-.08 0-.17 0-.23.34-.06.34h-.06a.93.93 0 0 0-.38.18c-.14.12-.23.15-.31.1a1.06 1.06 0 0 0-.54.09c-.35.13-.41.18-.33.3s.05.14-.39.22-.48.1-.49.2 0 .11-.15 0-.1-.12 0-.17 0-.05-.08 0a.3.3 0 0 1-.26 0v.08a.21.21 0 0 1-.09.24h-.15c-.05-.42 0-.46.35-.6s.41-.18-.25-.05l-.68.12a.43.43 0 0 0-.28.13c0 .07 0 .1.06.08.29-.1.52-.12.52-.06a5.66 5.66 0 0 1-1.23.32c-.1 0-.2 0-.2.09s.08 0 .19 0h.24c.03 0-.07.11-.22.15-.41.1-.86.44-.87.65s-.07.18-.2.17a1.22 1.22 0 0 0-.34 0c-.27.06-.68-.29-.51-.44s.1-.13-.05-.13a.22.22 0 0 1-.24-.2c0-.12 0-.18.1-.13a4 4 0 0 0 .83.08h.72l.18-.37a.92.92 0 0 1 .38-.43 7 7 0 0 0 1.45-.52c.21-.15.63-.26.5-.12s0 .08.05.06a.58.58 0 0 0 .26-.13c.15-.15.56-.23.46-.09s.05.15.23.19.27.13.22.21 0 .12.06 0a.65.65 0 0 1 .37-.15c.18 0 .24-.07.25-.29s0-.26-.24-.19-.24.14-.23.21-.25.26-.27.14a1.37 1.37 0 0 0-.05-.19c0-.09.05-.14.33-.21s.39-.14.39-.21.09-.15.19-.21.15 0 .07.14-.06.22.11.18a.85.85 0 0 0 .33-.17.3.3 0 0 1 .32 0c.11 0 .22.06.22 0s.06.08.17.18zm-1 .35c.14-.06.26-.14.26-.18s-.14-.05-.42.15-.18.16.2 0zm-4 1.16a.49.49 0 0 0 .24-.17c.06-.09 0-.12-.14-.09s-.23.11-.24.18.08.07.16.05zm-1.58.76c.09 0 .16 0 .16-.07s-.06 0-.15 0-.16 0-.16.07.09-.01.17-.03zm6.41-4.92c-.13.06-.2.12-.15.15s.38-.07.38-.18-.09-.02-.23.03zm-.11 3.82c-.08 0-.16 0-.16.08s.07.06.15 0 .16-.05.16-.07-.06 0-.15-.01z"/><path d="M205.38 13.58c-.09 0-.12.07-.08.1a.28.28 0 0 0 .17 0 .09.09 0 0 0 .08-.09.33.33 0 0 0-.17-.01zm-.25.84a.26.26 0 0 0-.33.15c-.15.25-.08.26.27 0s.24-.12.06-.15zm-.04 2.11c-.08 0-.16.07-.16.12s.07 0 .16 0a.2.2 0 0 0 .16-.12c0-.02-.07-.03-.16 0zm-.26.37c-.18.05-.22.08-.1.07a.78.78 0 0 0 .3-.07c.05-.04-.07-.04-.2 0z"/><path d="M204.82 13.82l-.32.13v.07a.36.36 0 0 0 .46-.16c.08-.1 0-.12-.14-.04zm-.86 3.6c-.073 0-.14.043-.17.11-.01.04.07.06.16 0s.16-.07.16-.11-.05-.03-.15 0zm.12-4.72a.59.59 0 0 0-.26 0c-.11 0-.1.06 0 .09a.36.36 0 0 0 .26 0q.105-.06 0-.09zm-.12.5a1.08 1.08 0 0 0-.37.07c-.15.11.08.12.38 0s.25-.08-.01-.07zm-.73 4.68c-.26.09-.41.09-.47 0s-.15-.07-.3 0a1.89 1.89 0 0 1-.58.18l-.85.12c-.46.07-.46.07.05 0 .34 0 .48 0 .42.1s0 .09.11 0a7.29 7.29 0 0 1 1-.28 3.61 3.61 0 0 0 .91-.27c.05.06-.08.08-.29.15zm.3-3.88a3.29 3.29 0 0 0-.75.24l-.62.26.75-.18c.67-.16.95-.32.62-.32zm-.3 3.51c-.21 0-.22.08-.06.13a.69.69 0 0 0 .26.06c.032-.037.053-.082.06-.13 0-.06-.11-.1-.26-.06zm-.09-2.51a1.17 1.17 0 0 1-.47.15c-.08 0-.16 0-.16.07s-.09.09-.29.08a.55.55 0 0 0-.47.19c-.12.12-.13.19 0 .17s.16-.08.16-.12.13-.08.32-.06a.51.51 0 0 0 .44-.1 1.91 1.91 0 0 1 .47-.25c.2-.07.36-.17.36-.21s-.16-.05-.36.08z"/><path d="M203.12 14.41a.77.77 0 0 0-.42.23c-.19.19-.19.2 0 .06a.76.76 0 0 1 .32-.13.23.23 0 0 0 .19-.08c.06-.05.01-.09-.09-.08zm-1.06.35c-.078.008-.142.064-.16.14 0 .05-.05.07-.15 0a.25.25 0 0 0-.25 0c-.17.13.08.2.41.12.132.006.255-.069.31-.19.01-.07-.06-.09-.16-.07zm-.24 3.09c-.18 0-.22.08-.1.08a.6.6 0 0 0 .31-.09c.06-.03-.07-.03-.21.01zm-.63.15c-.18.05-.22.08-.1.08a.73.73 0 0 0 .31-.08z"/><path d="M201.06 15.67a1.08 1.08 0 0 0-.46.14.68.68 0 0 1-.38.12c-.18 0-.25 0-.18.07a1.87 1.87 0 0 0 1.11-.21c.23-.14.22-.15-.09-.12zm.11-.56a.79.79 0 0 1-.38.19c-.17 0-.31.1-.31.15s.1.07.48-.12c.17-.08.3-.19.3-.24s-.03-.09-.09.02zm-.41 1.98c-.24.06-.36.12-.28.13l.22.05c.105-.003.205-.046.28-.12.11-.12.14-.15-.22-.06zm-.54-2.9c-.09 0-.13.07-.07.1a.25.25 0 0 0 .16 0 .1.1 0 0 0 .07-.1.36.36 0 0 0-.16 0z"/><path d="M200.17 18.55l-.35.05a1 1 0 0 0-.36.11c-.12.13.29.09.55-.05s.2-.12.16-.11zm-.33-2.91c-.42 0-.51.1-.28.2s.22.06.39-.07.14-.15-.11-.13zm-.31 2.43c-.5.16-.5.17-.12.12s.63-.12.64-.22-.23.03-.52.1zm.17-1.42c-.18.05-.22.08-.1.07a.64.64 0 0 0 .31-.08c.05-.04-.04-.03-.21.01z"/><path d="M199.38 14.7a1 1 0 0 0-.43.18h.32c.49-.17.57-.29.11-.18zm.05 1.44c-.13 0-.23 0-.23.09s.09.05.23 0 .23-.06.23-.08-.09-.02-.23-.01zm-.19-.7a.82.82 0 0 0-.43.22.26.26 0 0 1-.23.12.3.3 0 0 0-.21.08c.058.066.142.103.23.1.17.01.3 0 .31-.13s.1-.18.23-.21a.85.85 0 0 0 .33-.16c.05-.05-.05-.06-.23-.02zm-.06 1.1c-.125-.006-.245.05-.32.15-.01.04.14 0 .32-.05a1.14 1.14 0 0 0 .32-.15 1.33 1.33 0 0 0-.32.05z"/><path d="M198.53 18.06c-.14 0-.36 0-.36.11s.1.06.23.06.32-.12.13-.17zm-.06-3.06a.17.17 0 0 0-.15.15v.1a1.42 1.42 0 0 0 .16-.15c.06-.08.08-.1-.01-.1zm-.14 1.2c-.14 0-.2.08-.15.11a.29.29 0 0 0 .25 0c.21-.14.17-.18-.1-.11zm-.23 1.5a1 1 0 0 1 .38.18c0 .09-.43.24-.75.28s-.59.25-.16.24.29 0-.17.08c-.3.05-.49.1-.43.13s-.15.2-.4.17-.18 0 0-.11-.41-.24-.76-.16c-.17 0-.17.06 0 .07s.16 0 0 .12a.39.39 0 0 1-.33 0c-.1-.06-.16-.05-.29.08-.28.27-.2.34.22.2.23-.08.39-.09.39 0s-.12.12-.25.15-.21.08-.14.13.08.06-.12 0a.54.54 0 0 0-.35.05.25.25 0 0 1-.24 0c-.11-.06-.18-.05-.39.09s-.31.31.09.22c.2 0 .08 0-.27.13a1.75 1.75 0 0 1-.68.16c-.08-.1-.47 0-.65.22s-.17.14-.17.09-.18 0-.44 0a1.11 1.11 0 0 1-.53.08c-.15-.09-.76.18-.67.3a.23.23 0 0 0 .23 0h.14a1.14 1.14 0 0 1-.47.16c-.3.04-.44.09-.38.16s-.18.21-.33.12a2.15 2.15 0 0 0-.58-.05 1.06 1.06 0 0 0-.67.12c-.12.09-.11.13 0 .12s.09 0-.16.17-.37.24-.35.34-.08.19-.31.27-.28.14-.22.18-.17.14-.38.06a.85.85 0 0 0-.42 0 .37.37 0 0 1-.31 0 .18.18 0 0 0-.22 0 .25.25 0 0 1-.22 0 .27.27 0 0 0-.4.18.2.2 0 0 1-.16.19.23.23 0 0 0-.17.14c0 .06-.22.16-.55.24a11.27 11.27 0 0 0-1.23.42c-1.09.45-1.71.63-1.59.47s0-.11-.08-.09a.23.23 0 0 0-.18.19c0 .11-.08.16-.32.18s-.31.07-.32.11a1.63 1.63 0 0 1-.63.26c-.53.15-.63.16-.63 0s-.38 0-.46.21-.14.19-.36.21-.3.06-.3.12-.1.09-.23.1-.24 0-.24.1-.1.09-.22.09a2.24 2.24 0 0 0-.62.21 1.66 1.66 0 0 1-.5.18c-.05 0-.09 0-.1.11s.09.1.19.06a1.34 1.34 0 0 1 .55 0c.34.09.34.09 0 .17s-.43.21-.18.23.19.17-.05.19-.19 0-.19-.08a.17.17 0 0 0-.1-.12c-.07 0-.12 0-.12.06s-.15.11-.49.14a2.29 2.29 0 0 0-.63.12c-.08 0-.14 0-.13-.14s-.06-.18-.22-.11-.26.07-.28 0a1 1 0 0 0-.47 0c-.32 0-.44.09-.44.17s.1.1.23.06.31.05.08.17a.57.57 0 0 1-.41-.05.63.63 0 0 0-.41 0 .18.18 0 0 1-.21 0c-.15-.17-.8 0-.92.28a2 2 0 0 1-1.46.55c-.22 0-.25 0-.2.09a.49.49 0 0 0 .41.14c.34 0 .34 0-.14.17s-.48.2-.42.29 0 .07-.16 0a.78.78 0 0 0-.38-.08c-.24 0-.16.27.09.26s.24 0 .23.06-.09.07-.22 0c-.109-.055-.241-.021-.31.08-.07.08-.1.06-.11 0 0-.28-.06-.3-.21-.26a.32.32 0 0 0-.17.28.57.57 0 0 1-.13.34c-.07.05-.12 0-.11-.1a1.5 1.5 0 0 0-.95-.47.18.18 0 0 0-.13.15c0 .08.07.09.18 0s.15 0 .1 0-.45.29-.44.14-.07-.08-.15 0a.34.34 0 0 0-.17.24c0 .08-.11.22-.25.32-.35.25-.31.3.07.11.18-.09.32-.21.32-.28s.08-.13.18-.15.13 0 .09.07c-.34.46-.35.45.4.27.56-.13.74-.14.73-.05s-.07.12-.16.12a.16.16 0 0 0-.17.13c0 .13 0 .14-.22.05a.39.39 0 0 0-.3 0h-.09a5.02 5.02 0 0 0-.82.09c-.84.17-.87.16-.76-.19a.82.82 0 0 1 .32-.18 1.47 1.47 0 0 0 .48-.31c.16-.19.13-.2-.29-.09s-.47.16-.47.23-.1.12-.31.14a.82.82 0 0 0-.4.12c-.11.11-.87.23-.86.13s-.13-.07-.31-.07-.3 0-.18.15.09.16-.16.18-.3.07-.31.12.07.08.17.05.14.05.09.17 0 .2 0 .18.14-.06.14-.11.11-.1.25-.13.22 0 .18.05-.84.32-.78.16-.16-.08-1 .11-1 .27-1 .37 0 .11-.09 0-.51-.07-.51.07-.12.07-.3.06a1.22 1.22 0 0 0-.59.11 2.32 2.32 0 0 1-.45.15 1.17 1.17 0 0 0-.36.21c-.18.16-.22.17-.3.07s-.16-.07-.41.06-.33.17 0 .23a2.49 2.49 0 0 0 .72 0c.2-.05.36-.05.36 0s.09 0 .21 0 .56-.05.56.09-.13.14-.28.19c-.42.14-1 .13-1 0s-.06-.12-.14-.1a1.58 1.58 0 0 1-.68 0c-.33 0-.89.15-.89.3s.06.09.15.07.16 0 .15.06a2.05 2.05 0 0 1-.86.44c-.15-.04-.09-.16.23-.23s.32-.11.32-.15a1.75 1.75 0 0 0-.91 0 .91.91 0 0 1-.36 0c-.24 0-.29 0-.3.12s0 .13-.19.09-.93.1-.83.22 0 .1-.28.13a3.51 3.51 0 0 1-.53 0c-.24 0-.39.11-.23.22s.08.13 0 .18-.14.12-.08.19a.24.24 0 0 0 .26 0c.08-.05.15-.05.15 0s.12.06.27 0 .07 0-.19.12a1.09 1.09 0 0 1-.57.13.91.91 0 0 0-.4.09.89.89 0 0 1-.61.1c-.22 0-.26-.06-.12-.12s.29-.32.06-.27a1.11 1.11 0 0 1-.67 0h-.39a3.34 3.34 0 0 1-.66.3 4.09 4.09 0 0 0-.76.34c-.25.18-.29.46-.07.48s.17 0 .17-.07.29-.15.43 0 .14.2-.31.28-.45.12-.46.2-.47.17-.66.07-.13-.26 0-.25.13 0 .07-.15 0-.21.17-.28.36-.37.12-.31a5.28 5.28 0 0 0-.67.39 4 4 0 0 1-.76.41c-.12 0-.17.08-.11.12a1.06 1.06 0 0 0 .49-.08c.28-.11.38-.11.37 0a.19.19 0 0 1-.16.16c-.081.008-.146.07-.16.15a.35.35 0 0 1-.17.2h-.07c.05 0 0-.13-.15-.12a1.22 1.22 0 0 0-.78.46c-.06.09-.12.1-.28.07s-.14-.1.15-.29a1.35 1.35 0 0 1 .51-.24c.24 0 .19-.19-.08-.31s-.52-.1-.53.11-.31.26-.48.07-.62-.11-.58.12 0 .18-.24.22a.71.71 0 0 0-.37.16c-.1.16-1 .33-1 .2s-.08 0-.18.1-.2.17-.3.11a4.06 4.06 0 0 0-1.4.25.58.58 0 0 1 .26.08c.14.08.25 0-.08.13s-.36.12-.36.16-.1.1-.24.14a.31.31 0 0 1-.22 0 1.2 1.2 0 0 0-.3.07c-.49.24-.82.29-.81.13s-.13-.14-.31-.12-.31.07-.32.19.07.11.16.07.15 0 .15.07-.11.19-.26.23-.2 0-.14 0 0-.09-.07-.07-.17.08-.17.12-.08.08-.19.1a.34.34 0 0 0-.25.18c-.05.1 0 .13.22.08.46-.1.68 0 .5.12s-.2.13-.39 0-.23-.1-.33.1-.42.21-.3-.1 0-.31-.12-.37-.22-.06-.23 0-.2.15-.47.21a1 1 0 0 0-.48.19c-.068.065-.15.113-.24.14-.38.09-.3.3.14.4s.36.13 0 .19a.2.2 0 0 0-.13.17c0 .15 0 .16-.54.13a2.38 2.38 0 0 0-.86.09c-.38.15-.4.12-.12-.16.11-.11.15-.21.09-.22a.41.41 0 0 0-.44.34c0 .22-.46.47-1 .54-.26 0-.33.08-.27.14s0 .09-.14.1-.18 0-.13-.11 0-.08-.32 0-.36.16-.3.2 0 0-.13 0a.54.54 0 0 0-.35 0c-.21.15-.08-.07.16-.29s.27-.2.39-.13.18 0 .33-.06.13-.16-.13-.22-.34-.06-.35 0a2 2 0 0 1-1 .41c-.2 0-.25 0-.26.15s.07.14.31.06.32-.08.31 0-.08.12-.26.13a.74.74 0 0 0-.38.13c-.22.22-.49.12-.29-.1s.12-.22-.06-.28-.24-.15-.23-.24-.1-.16-.23-.15a1.45 1.45 0 0 1-.23 0 1.32 1.32 0 0 1-.1.18q-.1.15.15.09c.16 0 .25 0 .24.13a.24.24 0 0 1-.16.23c-.09 0-.16 0-.16-.07s-.08-.12-.18-.12-.15 0-.1.13a.12.12 0 0 1-.07.19.25.25 0 0 1-.24-.1c-.08-.16-.34-.13-.63.08s-.26.44 0 .37.28.2-.06.52-.31.25-.47.22-.21 0-.21 0-.45.13-.5 0-.07-.1-.33.09-.34.2-.47.17 0-.26.75-.46c.4-.11.62-.13.71-.07s.36-.06.17-.26a.5.5 0 0 0-.71 0 1.49 1.49 0 0 1-.52.18 3.18 3.18 0 0 0-.62.18c-.11.06-.2.07-.19 0s-.65.1-.88.3-.2.17-.28 0-.15-.12-.37 0a8.46 8.46 0 0 1-1.12.38c-.26.07-.24.2 0 .28s.24 0 .24 0a.08.08 0 0 1 .1-.07.5.5 0 0 0 .32-.11c.17-.11.22-.12.22-.05s.09.07.21 0a.44.44 0 0 1 .31 0c.08.06.11.05.19 0 .089-.077.221-.077.31 0a.28.28 0 0 1 0 .53c-.13.07-.15 0-.06-.13s.07-.23-.35-.13a.91.91 0 0 1-.62 0c-.13-.08-.15-.08-.16 0a1.16 1.16 0 0 1-.82.44c-.35-.02-.29 0-.3.11s0 .12-.31.06-.31-.05-.32.07a1.27 1.27 0 0 1-.29.45l-.29.32-.07-.26c-.08-.29-.53-.29-.7 0s0 .37.24.17.13-.08.1 0-.11.2-.44.23l-.59.08h-.16c.02 0-.08-.09-.23-.12s-.24-.13-.2-.19 0-.09-.18 0l-.37.11a2.09 2.09 0 0 0-.37.23c-.23.17-.29.18-.42.12s-.17-.05-.32.11-.21.18-.31.12-.16-.06-.28.06-.16.07-.2-.09c-.025-.081-.025-.169 0-.25a.63.63 0 0 0 .14-.24c.02-.12 0-.22-.23 0s-.83.4-.83.24-.1-.07-.24 0-.23.11-.21.19 0 .14-.45.22a1.75 1.75 0 0 0-.61.2.43.43 0 0 1-.28.1c-.28 0-.73.06-.74.14s.3.41.45.33.16 0 .16 0a.39.39 0 0 1-.24.13.39.39 0 0 0-.35.28c-.08.2-.17.29-.25.3s-.06-.07 0-.19a.47.47 0 0 0-.26-.74.66.66 0 0 0-.55.21l-.29.24.11-.22c.09-.19.08-.2-.11 0a1.92 1.92 0 0 1-1 .3 1.08 1.08 0 0 0-.48.17c-.2.11-.37.17-.36.14s-.13-.06-.31 0-.32.07-.32.11a.89.89 0 0 1-.65.09c-.22-.09-.22-.05-.32.14a.4.4 0 0 1-.32.23l-.46.07a.76.76 0 0 1-.34 0c-.086-.011-.17.033-.21.11-.06.11.14.31.44.11s.24-.13.28-.07a3.89 3.89 0 0 0 1.13-.18c.85-.21 1.06-.23 1.05-.13s-.05.11-.1.1a.9.9 0 0 0-.39.12c-.2.09-.3.11-.36.06s-.11 0-.24.07-.17.14-.26.05-.15-.08-.32 0-.19.17-.14.19-.09.08-.28.12-.38.11-.42.26-.35.32-.38.16v-.2a1.55 1.55 0 0 1 0-.21.15.15 0 0 0-.17 0 .19.19 0 0 1-.23 0 .24.24 0 0 0-.24-.06c-.102 0-.185.083-.185.185s.083.185.185.185c.21.04.23.09.23.15s.07.09.15.07.16 0 .15.12a.22.22 0 0 1-.16.2h-.16c-.058-.067-.135-.116-.22-.14-.13-.03-.23-.05-.23.1a.38.38 0 0 0 .15.29c.15.11.15.11-.24.08-.22 0-.35-.1-.29-.17s0-.11-.1-.08-.17.1-.11.22 0 .18-.06.2-.12.08-.07.14 0 .11-.08.13a.29.29 0 0 1-.23 0c0-.07-.12 0-.32.08s-.26.14-.26.09a.56.56 0 0 1 .3-.19c.32-.13.41-.44.15-.54s-.14-.09 0-.15.25-.23-.06-.17-.26 0 0 0 .36-.21 0-.24a.63.63 0 0 0-.51.13 1.81 1.81 0 0 1-1.15.3c-.18-.05-.34 0-.79.16s-.54.25-.5.29 0 .13-.1.2-.09.15.07.19a.44.44 0 0 0 .33 0h.1c-.038.06-.094.105-.16.13-.31.07-.64.05-.63 0a1.32 1.32 0 0 0-1-.08c-.45.15-.41.19-.39.44s.19.43.35.2.12-.15.33-.07c.098.046.212.046.31 0 .06 0 .33-.18.33.07a.26.26 0 0 0 .2.26c.17 0 .16 0 0 .08a5.93 5.93 0 0 0-1.22.43c-.2.1-.35.21-.35.26s-.06.08-.11.07 0-.1.11-.2.18-.16.15-.16l-.53.09a4.29 4.29 0 0 1-.86 0c-.26 0-.4 0-.45.07s-.5.24-.49.14.11-.12.24-.17c.44-.19.07-.23-.47-.06s-.54.15-.6 0a.16.16 0 0 1 .08-.22c.24-.13.17-.2-.17-.16s-.31.06-.26.12 0 .09-.24.11-.31.06-.27.21-.55.7-1 .74c-.23 0-.21 0 .08-.07.48-.12.45-.23 0-.13-.21 0-.39.11-.39.15s-.1.08-.24.08-.23 0-.23.11.07 0 .16 0a.17.17 0 0 1 .24 0c.05.08.17.1.3 0 .43-.18.23 0-.27.23s-.64.31-.52 0-.15-.22-.39 0-.18.15-.32 0-.2-.16-.41 0-.21.2-.16.25 0 .14 0 .21a.66.66 0 0 0-.13.22c0 .05-.07.11-.16.13s-.13 0-.1-.13 0-.15-.12-.13a.3.3 0 0 1-.16 0 4 4 0 0 1 1.11-.8 1.31 1.31 0 0 0 .42-.28c.21-.19.25-.2.25-.09s.07.12.16.1a.21.21 0 0 0 .13-.24c0-.21.09-.28 1.11-.55.43-.11.48-.14.3-.19s-.33 0-.87.2a1.93 1.93 0 0 0-.66.32.68.68 0 0 1-.33.14h-.23a1.53 1.53 0 0 0-.78.11c-.27.17-.17.27.25.17s.29-.05.06.11a.85.85 0 0 0-.26.25.82.82 0 0 1-.26.14c-.14.04-.22.09-.16.15s0 .12-.25.17c-.62.12-.93.23-.84.29s-.11.1-.38.17a1.26 1.26 0 0 0-.55.23c0 .06-.08 0-.08-.1 0-.29.39-.55 1-.63.3 0 .46-.09.47-.15s.22-.14.47-.2a1.21 1.21 0 0 0 .48-.18c0-.12-.43-.06-1 .12-.35.11-.45.12-.3 0s.13-.12-.15-.09a.78.78 0 0 0-.51.19.74.74 0 0 1-.42.18c-.32 0-1 .55-.88.65s.16 0 .25-.11.59-.3.49-.06a.47.47 0 0 1-.34.26c-.17 0-.24.1-.21.2.1.27.08.35-.12.43s-.01.22-.01.22-.11-.11-.5 0c-.69.17-1.22.4-1.23.53s-.12.11-.57.15-.59.08-.71.2-.15.13-.15 0 0-.1-.15 0-.1.18 0 .21 0 .11-.35.23-.55.15-.63.1-.06-.1 0-.14.22-.3 0-.25a.62.62 0 0 0-.28.31c-.1.23-.15.26-.27.18a.31.31 0 0 0-.28 0c-.08 0-.11 0-.06-.05s0-.1-.49 0a4.59 4.59 0 0 0-.76.27 3.54 3.54 0 0 1-.57.26c-.26.07-.35.07-.2 0 .56-.22.28-.26-.46-.07-.51.13-.76.23-.77.3s.06.07.13 0 .12 0 .12.09 0 .19-.56.22c-.22 0-.37 0-.32.07s0 .11-.15.19-.23.12-.29 0 0-.13.11-.18.08 0-.07 0a.48.48 0 0 1-.35 0c-.07-.06-.11-.06-.19 0a.35.35 0 0 1-.25.12c-.2 0-.14-.43.09-.6s.12-.11 0-.06a.19.19 0 0 1-.27-.08c-.12-.23-.39-.15-.42.12s-.06.19-.1.15a.53.53 0 0 0-.39 0c-.31.08-.3.07 0-.15s.33-.27.27-.34-.58-.05-.59.08.07.07.16 0 .15 0 .15.08-.33.23-.33.09-.08 0-.2.09a.46.46 0 0 1-.45.12c-.21-.06-.75.12-.76.35s.21.2.39 0 .85-.27.8-.15.08 0 .24 0h.33c.04 0-.08.12-.32.18-.54.15-.85.37-.54.39s.26 0 .3-.11.11-.12.37-.1.33 0 .4-.1.32-.19.39 0 0 .17-.16.18a.58.58 0 0 0-.41.3c-.19.27-.44.43-.44.27s-.16-.08-.37-.06-.35 0-.29-.16 0-.18-.08-.18c-.102.004-.182.088-.18.19-.01.13-.07.22-.14.23s-.1-.31.08-.5.07-.1 0-.05a.38.38 0 0 1-.53-.26c0-.09-.05-.16-.12-.14a2.64 2.64 0 0 1-1 .16c.06-.16 0-.21-.25-.16s-.19.08-.09.14a.29.29 0 0 1 0 .33c-.07.19-.17.26-.53.34a1.3 1.3 0 0 0-.52.22q-.09.12-.09 0c0-.07-.17-.12-.36-.13s-.27 0 .32-.15a1.72 1.72 0 0 1 .66-.07h.16a.38.38 0 0 0 .17-.29c0-.18 0-.18-.25 0a.6.6 0 0 1-.46.16.45.45 0 0 0-.29 0 5 5 0 0 1-.83.23c-.63.14-.71.17-.55.23a.74.74 0 0 0 .46 0q.285-.12.06 0c-.15.08-.22.69 0 .58s.27-.22.06-.23 0-.18.27-.23c.15 0 .26 0 .24.09s0 .1.29 0c.41-.21.85-.14.57.09s-.13.13 0 .1.33.07.33-.02.14-.13.32-.19c.34-.13.4 0 .14.22-.1.1-.16.12-.16.06s-.1 0-.25 0-.22.11 0 .13-.3.16-.69.15-.31 0-.24.08-.07.24-.31.14a.3.3 0 0 0-.32 0 .79.79 0 0 1-.32.15c-.24.06-.52-.07-.41-.18s0-.09-.07-.09a1.35 1.35 0 0 0-.59.56c-.11.26 0 .14.17.07s.23-.06.23 0 .15.06.35 0 .14 0-.24.1-.64.12-.81 0-.19-.14 0-.23.15-.09.08-.07c-.51.11-.72.05-.62-.2s0-.21-.08-.22-.17 0-.17.07-.11.09-.24.09c-.29 0-.35.25-.08.27h.09c-.05 0 0-.07.11-.1s.17 0 .12.15 0 .18.14.15.22 0 .21.11a.67.67 0 0 0 0 .16h-.46a1.71 1.71 0 0 0-.52.06.93.93 0 0 1-.67.14c-.16-.07-.32.09-.34.31a.33.33 0 0 1-.22.28c-.16.07-.17 0 0-.15s0-.35-.29 0-.61.37-.73.24 0-.1.16-.11.23 0 .23-.13-.28-.17-.56 0-.23.12-.23.06.08-.12.17-.17.11-.11 0-.15-.19 0-.32.22-.2.24-.2.12 0-.12-.15 0a.37.37 0 0 1-.4.11c-.19 0-.2-.07 0-.16s.12-.1 0-.08a2 2 0 0 0-.44.2c-.33.2-.22.45.13.31.12-.06.21-.06.21 0s.12 0 .29 0a1 1 0 0 1 .49 0c.13 0 .13.08 0 .11a.54.54 0 0 1-.26 0 .28.28 0 0 0-.25 0c-.29.16-.77.29-.77.21s-.08 0-.18 0-.16.05-.09 0 0-.13-.19-.08-.28 0-.2-.09.07-.15-.23.06-.35.39 0 .22c.18-.08.23-.07.17 0a.38.38 0 0 1-.26.15 2.78 2.78 0 0 0-.68.27c-.38.18-.52.22-.61.17a.3.3 0 0 0-.26 0c-.07 0-.52.18-1 .32l-.58.14c.16-.06.28-.14.28-.18s.09-.08.18-.09a.44.44 0 0 0 .25-.14c.06-.09 0-.08-.33.07-.49.22-.63.22-.47 0s.14-.14.25-.09.13 0 .09 0c-.263-.037-.526.07-.69.28-.28.35-.3.35-.93.45l-.91.13c-.15 0-.27.06-.28.11s-.16.08-.38.06a.79.79 0 0 0-.46 0 2 2 0 0 1-.6.18c-.42.07-.48.1-.4.19s0 .12-.34.2c-.06 0-.09 0-.06-.14s0-.15-.1-.13-.13.08-.08.14-.1.17-.38.07-.21-.06-.14.17 0 .22 0 .18a1.61 1.61 0 0 0-.66.11l-1.46.39a2.92 2.92 0 0 1-1.39.13 1.22 1.22 0 0 0-.7 0c-.121.035-.21.136-.23.26 0 .06-.13.13-.26.16a1.22 1.22 0 0 0-.46.25.42.42 0 0 1-.45.13c-.13 0-.25-.11-.25-.17s0-.08-.12 0a3.35 3.35 0 0 1-1.26.62c-.49.15-.57.15-.41 0s.26-.32 0-.15a.8.8 0 0 1-.53.14c-.22 0-.32 0-.37.1a3.64 3.64 0 0 1-1.75.38.89.89 0 0 0-.62.08.45.45 0 0 1-.38.09.5.5 0 0 0-.33 0c-.06 0 0 .1.19.12s.29 0-.09.12a6.83 6.83 0 0 1-.77.12 3.1 3.1 0 0 0-.74.19c-.29.12-.33.11-.25 0s.06-.13-.13 0c-.36.31-1 .38-1 .13s-.33-.14-.35.11-.65.48-.9.37-.19-.07-.29.08a.67.67 0 0 1-.34.22c-.14 0-.19 0-.12-.07s.07-.09-.1 0-.47.23-.46.09-.09-.09-.19 0-.18.12-.16.19-.11.14-.43.21-.43.07-.37 0-.05-.1-.33 0-.38.06-.32 0c.22-.22-.18 0-.47.24a1.82 1.82 0 0 1-.63.33c-.27.07-.29.06-.1 0s.19-.14.11-.16a.63.63 0 0 0-.34.16c-.15.13-.25.18-.32.13a.49.49 0 0 0-.31 0 1.27 1.27 0 0 1-.62 0c-.44-.08-.75-.08-.43 0 .12 0 .13.1 0 .23s-.48.3-.47.13-.82.11-1.46.48c-.35.21-.44.24-.44.15s-.15-.08-.58 0-.54.13-.34 0 .24-.16 0-.23a.79.79 0 0 0-.38 0c-.08 0-.07.06 0 .09s.11.09-.18.2-.35.13-.05.17.29 0-.13.15c-.24.06-.42.08-.42 0s-.2 0-.51.14a3.33 3.33 0 0 1-1 .24c-.355.018-.709.058-1.06.12-.46.07-.59.12-.59.21a.19.19 0 0 1-.16.16c-.08 0-.12-.06-.09-.18s0-.18-.12-.09-.42.2-.43 0 0-.11-.09 0c-.077.111-.205.175-.34.17-.18.01-.2 0-.11 0a1.45 1.45 0 0 0 .47 0c.18 0-.07.08-.55.23a2.19 2.19 0 0 1-.92.19c-.04-.06-.49 0-.5.11a2.49 2.49 0 0 1-1.23.28h-.19a1.06 1.06 0 0 1-.47.18 1.2 1.2 0 0 0-.52.17h-.32a.68.68 0 0 0-.43 0c-.33.18-.13 0 .28-.32s.48-.27.63-.24a.52.52 0 0 0 .46-.15c.2-.15.5-.28.23-.06s-.09.29.24.22.31-.21 0-.2c-.11 0-.07 0 .1-.07s.24-.1.19-.13 0-.07.05-.09.2.06.25.18.22.24.61-.13a1.55 1.55 0 0 1 .74-.39c.38-.09.42-.08.29.07s-.1.16 0 .14a1.1 1.1 0 0 0 .36-.28.8.8 0 0 1 .9-.27c.25.06.26.06.17 0s0-.13.13-.17c.075-.024.155-.024.23 0h.14a.18.18 0 0 1 .21 0q0 .09.51-.18c.34-.18.47-.23.58-.17s.15.05.2-.16a2.73 2.73 0 0 1 1.55-.26c.37.11.7-.06.34-.17s-.25-.09 0-.17l.85-.27a22.26 22.26 0 0 1 2.51-.59 1.49 1.49 0 0 0 .54-.12 5.51 5.51 0 0 1 .74-.25l1.18-.34a4 4 0 0 1 .78-.17c.3 0 .72-.1.72-.21s.2-.15.48-.21.47-.08.47 0 .07.1.17.07.13-.08.08-.13.08-.14.74-.3l1-.24a1.45 1.45 0 0 0 .43-.19c.19-.11.21-.11.13 0s0 .13.59-.07a8.62 8.62 0 0 0 1-.37 6.38 6.38 0 0 1 1.9-.33c.27 0 .81-.07.81-.17s.12-.09.27-.12c.56-.1.58-.15.06-.13h-.55l.54-.09a1.62 1.62 0 0 1 .58 0 1.82 1.82 0 0 0 1-.38c0-.11.12-.1.27 0s.22.16.41 0 .21-.14.22-.09.21 0 .46 0 .45-.14.39-.2 0-.11.36-.16a7.88 7.88 0 0 0 .88-.18c.24-.06.44-.07.44 0s0 .08.09 0a.55.55 0 0 1 .28-.16.62.62 0 0 0 .31-.2.34.34 0 0 1 .27-.13c.33 0 .14-.14-.2-.17a.59.59 0 0 0-.56.13c-.23.17-.5.25-.49.15s-.74.12-1 .31-.26.13-.32.09a.64.64 0 0 0-.39 0q-.31.08-.21-.09c.07-.13.06-.13-.07 0a.76.76 0 0 1-.41.16c-.13 0-.25 0-.25.09s-.11.09-.23.1a.44.44 0 0 0-.28.09 1.1 1.1 0 0 1-.85.22.62.62 0 0 0-.48.06c-.51.23-.75.3-.55.15s.23-.27 0-.2a.26.26 0 0 0-.24.2c0 .08-.14.17-.8.32a1.82 1.82 0 0 1-1 .09 1.45 1.45 0 0 0-.9.08c0 .08.11.08.25.08s.21 0-.09.14-.3.08-.25 0 0-.1-.15-.12-.25 0-.22.1-.39.25-1.44.5a9 9 0 0 0-1.11.29 5 5 0 0 1-1 .24h-.4c-.22 0-.35.09-.35.16s-.11.12-.32.14a1.2 1.2 0 0 1-.31 0h-.23c-.14 0-.2.09-.15.15s-.07.13-.7.28-.81.16-.88.08 0-.15.09-.21.14-.12.08-.16 0-.08.15-.12.25-.1.25-.15.11-.09.23-.09.25 0 .27-.1a4.21 4.21 0 0 1 1.6.01c.46-.07.7 0 .7.19s.1 0 .31-.15l.32-.27h.49c.4 0 .51 0 .63-.12s.15-.1.15-.05.16.05.39 0 .4-.13.4-.17.14-.1.32-.14.31-.11.32-.15-.1-.06-.24 0c-.076.037-.164.037-.24 0a.9.9 0 0 1 .32-.15.65.65 0 0 1 .31 0c.028.056.088.088.15.08a.21.21 0 0 0 .17-.14c0-.14.55-.41.79-.4a2.64 2.64 0 0 0 .72-.14c.41-.12.57-.13.76 0s.24.08.24 0 .11-.09.25-.1.24-.06.24-.13c.256-.209.58-.316.91-.3a.39.39 0 0 0 .33 0 3.06 3.06 0 0 1 1.12-.35 3.13 3.13 0 0 0 .55-.06 1.42 1.42 0 0 0 .56-.2 3.9 3.9 0 0 1 1.6-.32c.11.06.17 0 .23 0a.26.26 0 0 1 .22-.1.15.15 0 0 0 .16-.12.14.14 0 0 1 .12-.13c.06 0 .11 0 .11-.08a1.93 1.93 0 0 0-.75.12c-.53.13-.79.16-.84.1s-.37-.06-.33.06-.27.17-1 .35l-1.49.41a2 2 0 0 1-.67.11h-.19a3.13 3.13 0 0 1-.79.27c-.47.13-.79.18-.79.13s-.1 0-.31.08-.32.14-.31 0-.46-.22-.74 0c-.11.11-.18.2-.14.22s0 .07-.13.1a7.88 7.88 0 0 0-2 .82c0 .1 0 .11.24 0s.25-.09.05 0a.68.68 0 0 1-.55.07 1.69 1.69 0 0 0-.7 0 8.89 8.89 0 0 1-.93.17 11.54 11.54 0 0 0-2.04.49 2.73 2.73 0 0 1-1.16.21c-.21 0-.25 0-.26.07s-.23.17-1.18.38a10.7 10.7 0 0 1-1.35.24.45.45 0 0 0-.3.12c-.1.09-.22.12-.5.09a2.93 2.93 0 0 0-.52 0h-.34a4.66 4.66 0 0 0-1.32.57 4.05 4.05 0 0 0 1.35-.37c.14-.15.7-.15.69 0s.16.12.45.08c.69-.09.73 0 .07.18-.39.1-.55.16-.5.22s-.19.14-.87.31-.92.21-.85.12-.74 0-1 .08c-.06 0-.49.17-1 .3-1 .29-1.57.31-.76 0 .5-.17.51-.19.23-.22s-.69 0-.7.18-.1.12-.48.14a3.83 3.83 0 0 0-.79.15.73.73 0 0 1-.4.06.77.77 0 0 0-.4.07c-.42.17-.67.13-.43-.06s.13-.14-.06-.1-.34.17-.29.37-.05.1-.18.08a1.27 1.27 0 0 0-.35 0 .27.27 0 0 1-.25-.09c-.08-.09-.12-.09-.14 0s-.14.14-.47.2-.47.11-.55.28-.12.19-.27.1-.11-.14-.05-.19 0-.08-.06-.06a.55.55 0 0 0-.24.15c0 .06-.08 0-.08 0s0-.14-.27 0-.18.34.18.26h.22a.56.56 0 0 1-.26.1 2 2 0 0 0-.39 0c-.08 0-.14-.1-.13-.27s-.05-.31-.31-.29-.61.21-.63.42.08.05.34-.12.34-.23.22 0-.05.19 0 .16.17 0 .17.17-.06.19-.21.16a.74.74 0 0 0-.44.1c-.31.16-.52.22-.4.09s0-.1-.06-.11-.15 0-.16.08-.13.11-.34.12-.32.06-.25.14 0 .12-.06.14a.21.21 0 0 0-.16.15c0 .22-.47.23-.48 0s0-.16-.08-.09-.38.2-.37 0 0-.13-.35 0a3.67 3.67 0 0 1-.83.28c-.31.07-.4.11-.26.12s.15 0 .07.09a1 1 0 0 1-.44 0c-.16 0-.21-.06-.11-.08a.27.27 0 0 0 .2-.21c0-.15 0-.15-.23 0a.58.58 0 0 1-.47.12.3.3 0 0 0-.35.09c-.27.27-.21.36.14.22s.3-.1.11 0c-.55.32-.88.19-.56-.22.17-.23-.12-.39-.53-.29-.15 0-.15.06 0 .07s.21.08-.43.3c-.28.1-.51.15-.51.1a2.37 2.37 0 0 0-.81.11 4.62 4.62 0 0 1-1 .14h-.13c.07 0 0 .35-.23.4s-.11 0-.07-.14-.05-.19-.23.07-.81.54-.8.39-.17 0-.41.07a1.38 1.38 0 0 1-.69.09c-.25-.05-.28 0-.37.14s-.14.18-.3.15a.72.72 0 0 0-.44.09 1 1 0 0 1-.58.1c-.34 0-.82.11-.83.25s.14 0 .32 0 .31-.09.31 0a3.22 3.22 0 0 1-1.74.47.44.44 0 0 0-.34 0c-.09 0 0 .12.11.17s.24.09-.07.17-1.12.1-1.11 0 .1 0 .21 0 .2 0 .14-.1-.52 0-.63.29-.22.25-.21 0a.65.65 0 0 1 .33-.36c.26-.14.29-.19.13-.24a.7.7 0 0 0-.38 0c-.42.18-.1-.52.36-.78.19.06.19.06.03.06s-.09-.46.14-.51c.08 0 .11-.06 0-.1-.185-.023-.358.098-.4.28a.59.59 0 0 1-.17.33c-.13.12-.16.12-.11 0s0-.15-.24-.09-.25 0-.19-.05 0-.13-.06-.14-.16 0-.18.08a.67.67 0 0 1-.07.18 2 2 0 0 0-.07.19c0 .06-.09.05-.17 0s-.17-.32 0-.31.15 0 .07 0a.49.49 0 0 0-.27 0h-.15a2.21 2.21 0 0 1 .74-.33 3.09 3.09 0 0 0 .92-.53c.09-.15-.52 0-.68.14a.19.19 0 0 1-.26 0c-.1-.07-.08-.15.06-.26s.16-.15 0-.11-.15 0-.09-.11.07-.13-.14 0-.21.18-.17.2-.09 0-.3 0-.34 0-.3-.08a.46.46 0 0 1 .25.03h.06a.31.31 0 0 0-.29 0c-.11.06-.14 0-.07-.06s0-.13-.13-.1-.19 0-.13 0 0-.14-.14-.17a.94.94 0 0 0-.63.11 1.1 1.1 0 0 1-.4.13c0-.11.36-.42.46-.42a.11.11 0 0 0 .13-.1c0-.16 0-.14-.55.24a1.22 1.22 0 0 1-.79.35c-.31 0-.39-.06-.32-.29.044-.042.1-.07.16-.08a1.52 1.52 0 0 0 .51-.25 3.7 3.7 0 0 1 .74-.38c.59-.2.87-.35.93-.51s-.59-.12-.86.12-.23.19-.25 0-.19-.07-.38 0a.54.54 0 0 1-.36 0c.06-.26 0-.33-.12-.19s-.18.14-.38.08a4.74 4.74 0 0 0-1 0c-.86.11-1.08.07-.68-.1a.48.48 0 0 1 .42 0c.14.09.15.09.34-.08s.25-.16.31-.13.35 0 .36-.11-.14-.09-.32-.06l-.54.11a.58.58 0 0 1-.33 0 .58.58 0 0 0-.38 0 .5.5 0 0 1-.33.06 1.36 1.36 0 0 1 .46-.15 1.9 1.9 0 0 0 .65-.21c.15-.15.37-.08.27.09s-.06.13.16 0a1 1 0 0 1 .42-.4.51.51 0 0 0 .34-.11 1.36 1.36 0 0 1 .44-.2c.26-.06.28 0 .14.11s-.21.37.06.31.19-.09.13-.16 0-.1.28-.07a1.07 1.07 0 0 0 .62-.1c.19-.09.17-.09-.12-.09-.51 0-.43-.1.09-.19h.39c-.02 0 0 .07.11 0s.12-.12.09-.16c.311-.161.651-.259 1-.29a3.9 3.9 0 0 0 1.4-.3c0-.05.08-.07.2 0s.14.1 0 .27-.17.22-.13.23a.08.08 0 0 0 .1-.07c0-.05.11-.12.25-.15s.21-.09.17-.15.07-.13.39-.23a2.15 2.15 0 0 1 .55-.12 11.61 11.61 0 0 0 2-.47 6.88 6.88 0 0 1 1-.35c1-.29 1.6-.35 1.38-.13-.05 0 0 .06.16 0s.25-.11.25-.18-.1-.09-.24-.06-.21 0-.16 0a4 4 0 0 1 1.36-.34 2.58 2.58 0 0 0 1.07 0c.28 0 .43 0 .2.07s-.18.09-.18.16 0 .11.05.1h.34c.2 0 .25 0 .17-.12s0-.15.15-.22.33-.41.09-.35h-.15c.16-.089.332-.157.51-.2.46-.11.48-.11.2 0s-.26.22-.2.29.12.11.43-.13.53-.33.4-.06.14.23.29 0a1.13 1.13 0 0 1 .5-.31c.21-.08.36-.16.32-.19s.07-.07.22-.11.25 0 .21 0a.1.1 0 0 0 0 .15c.08.05.14 0 .21-.14s.81-.53.81-.36-.08.1-.17.12a.19.19 0 0 0-.16.16c0 .07.1.09.24.06s.24-.09.24-.13.45-.11.54 0 .54.08.54-.06.16-.12.34-.16c.53-.13.34-.41-.21-.31-.39.06-.44.09-.35.21s.08.14-.3.11c-.23 0-.35-.08-.29-.15s.13-.08.18 0 .1 0 .17 0a2.19 2.19 0 0 1 1.43-.35c.32.06.39.05.44-.06a.32.32 0 0 1 .19-.17c.08 0 .06.09 0 .24s-.32.33-.79.51c-.83.32-.73.41.26.2.73-.15.8-.18.73-.29s0-.14.26-.2.34 0 .34 0h.23c.14 0 .23-.08.23-.12s.65-.23.79-.13.22.09.47 0a1.36 1.36 0 0 1 .59-.15 2 2 0 0 0 .39 0l.58-.08a2.2 2.2 0 0 0 .66-.17 1.57 1.57 0 0 1 1.21-.2c.3.12.64.11.64 0s-.12-.08-.27-.09-.19 0 .25-.14a1.25 1.25 0 0 0 .52-.2c0-.05.14-.06.3 0s.25.1.19.16.06 0 .24-.12a2.26 2.26 0 0 1 .9-.31c.34-.06.56-.13.57-.19s0-.07.1 0 .18 0 .32 0 .19-.07.06-.12-.1-.09.14-.18.28-.08.23 0 0 .12.14.11a4.76 4.76 0 0 0 1.55-.69.57.57 0 0 1 .22-.13c.39-.07.47-.11.29-.15a1.93 1.93 0 0 0-.68.08 1.68 1.68 0 0 1-.63.07c-.09-.05-.12 0-.12 0-.103.037-.217.037-.32 0-.34-.13-.4-.27-.14-.33.09 0 .16 0 .16.1s.18.13.46.12.47 0 .48-.16 0-.11.13-.05a.19.19 0 0 0 .25 0 .79.79 0 0 1 .41-.14c.17 0 .3-.06.3-.1s.08-.1.17-.13.13 0 .07.06.26 0 .77-.18c.27-.11.38-.21.32-.27s0-.11.05-.12a2.44 2.44 0 0 0 .4-.14c.35-.16 1-.26 1-.15s.1.1.27.11.32 0 .4-.12a.14.14 0 0 0-.1-.21c-.12 0-.13-.09 0-.12a.37.37 0 0 1 .24 0 4.91 4.91 0 0 0 1-.18c.69-.18.88-.2.87-.1s.05.08.12 0a.32.32 0 0 0 .13-.17.8.8 0 0 1 .28-.19.4.4 0 0 1 .27 0c-.01 0-.06.09-.16.08s-.15 0-.15.08.17 0 .38 0 .39-.06.39 0-.13.1-.28.13c-.56.11-1 .25-1 .33s.17 0 .4-.06a1.24 1.24 0 0 1 .69-.08c.28.06.9-.11.74-.2s.9-.29 1.12-.23.5 0 .52-.16.05-.11.1-.06.21 0 .37 0a3.14 3.14 0 0 1 .7 0c.26 0 .38 0 .38-.06s.19-.12.64-.19.62-.12.63-.18a.55.55 0 0 1 .53-.09c.19.09.36 0 .87-.44.2-.18.36-.27.35-.21s.12.05.31 0 .31-.08.27 0 0 .12.15.12a.22.22 0 0 0 .21-.24c0-.13.06-.19.13-.15a1.63 1.63 0 0 0 .52 0 1.15 1.15 0 0 0 .68-.22c.26-.18.28-.19.18 0-.29.45-.29.48 0 .21a1.37 1.37 0 0 0 .34-.39c0-.08 0-.1.12-.07a2.13 2.13 0 0 0 .66 0h.26c-.16 0-.28.09-.05.15s.63-.08.52-.21 0-.14.08-.22.14-.12.14-.05.46-.08.82-.35c.17-.13.29-.19.29-.15s.19.06.39 0 .36 0 .22.16-.14.23-.1.27.08 0 .09-.06a.4.4 0 0 1 .26-.23c.14-.06.2-.14.14-.17s0-.06 0-.06a1 1 0 0 0 .46-.17c.43-.26 1.18-.43 1.17-.27s.07.08.16 0 .12-.11.07-.14 0-.07.16-.1a.29.29 0 0 0 .26-.22.36.36 0 0 1 .18-.25c.12-.06.14 0 .06.1s-.05.18.14.13.23 0 .16.11 0 .14.47 0q1-.28.54-.33c-.16 0-.08 0 .31-.14s.52-.11.43.06 0 .16.22.07.27-.08.22 0 0 .09.08.1a.38.38 0 0 0 .26-.13.7.7 0 0 1 .35-.21 7.78 7.78 0 0 0 .95-.36c.59-.25.71-.28.83-.22s.17 0 .32-.1.18-.19.48-.12.33 0 .43-.07.73-.25.72-.1-.78.35-1.21.35c-.21 0-.24 0-.18.14s.42.09 1-.17c.27-.11.44-.15.51-.11s.15 0 .24-.08.2-.45 0-.34-.15 0-.15 0a1.69 1.69 0 0 1 .55-.19 1.46 1.46 0 0 0 .55-.16.69.69 0 0 1 .23-.12c.12-.03.14.21-.18.38-.12.07-.22.18-.22.27s.06.12.15.07.13-.1.08-.13.07-.1.25-.17.29-.14.24-.17 0-.13.23-.22.29-.2.25-.22 0-.09.44-.11a1.33 1.33 0 0 0 .7-.21c.29-.16.34-.17.4-.05s0 .16-.19.23l-.56.23c-.2.09-.26.1-.19 0s0-.07-.18 0-.29.12-.23.33c0 .05.15 0 .43-.1.51-.22.74-.21.61 0s0 .14.15.06.21-.12.16-.13a7.18 7.18 0 0 1 1.68-.77c.38-.12.44-.12.35 0s0 .13.16 0 .26-.07.26 0 .06 0 .2 0a1.33 1.33 0 0 1 .35-.16.45.45 0 0 0 .23-.2c.06-.15 0-.14-.24 0a.81.81 0 0 1-.53.18c-.21 0-.1-.08.21-.13a1.07 1.07 0 0 0 .34-.15 2.48 2.48 0 0 1 .86-.22c.55-.07.65-.1.66-.21s0-.11.09 0 .14 0 .39-.12.3-.17.3-.12.18 0 .51-.08c.48-.17.49-.17.25 0a2.61 2.61 0 0 1-.71.31c-1.56.38-1.52.36-1.18.44a.73.73 0 0 0 .58-.06 1.27 1.27 0 0 1 .8-.18 1.37 1.37 0 0 0 .65-.21c.36-.18.5-.21.55-.15s.11 0 .25-.08.17-.12.17-.07.19 0 .68-.15l3.18-.94 1.66-.46a2.4 2.4 0 0 1 1-.18c.08 0 .12 0 .13-.07a.7.7 0 0 1 .65-.11c.21.11.14 0 .21-.1s.56-.22.56 0 0 .16.15 0 .29-.25.83-.39l1.22-.31c.63-.17 1.25-.2 1.25-.06s.23.06.4-.17a.92.92 0 0 1 .95-.31c.2.09.21.09.32-.08a.64.64 0 0 1 .48-.21 1 1 0 0 0 .44-.12 5.93 5.93 0 0 1 1-.3 5.15 5.15 0 0 0 1-.29.76.76 0 0 1 .24-.12.35.35 0 0 1 .23 0c-.01 0 0 .08.13 0a.62.62 0 0 1 .39-.14 3.21 3.21 0 0 0 .77-.24c.4-.17.52-.2.57-.14s.12 0 .26 0a6 6 0 0 1 1.16-.37c.72-.19 1-.28 1-.36a.15.15 0 0 1 .16-.1c.09 0 .11.07 0 .12s0 .07.12 0a1.45 1.45 0 0 1 1-.22c.2.07.21.07.14-.08a.13.13 0 0 1 .08-.19c.08 0 .15 0 .15.05s.07 0 .17 0a.4.4 0 0 1 .32 0c.11.06.12 0 .06 0s.31-.27.5-.15.83-.12.84-.28.08-.11.31-.1a1.25 1.25 0 0 0 .51-.1 1.69 1.69 0 0 1 .48-.15c.15 0 .28-.09.28-.15s0-.09.13 0 .23 0 .5-.09a3.28 3.28 0 0 1 .82-.2c.24 0 .44-.07.44-.11a3 3 0 0 1 .86-.25c.5-.1.83-.2.78-.23s.06-.08.24-.13a.56.56 0 0 1 .32 0c-.01 0 0 .06.12 0a1.25 1.25 0 0 1 .43-.19l.75-.24a1.26 1.26 0 0 1 .53-.08q.09.06.21-.06a8.16 8.16 0 0 1 1.58-.49 12.24 12.24 0 0 0 1.68-.53 1.44 1.44 0 0 1 .7-.18c.25 0 .47 0 .47-.09a1.65 1.65 0 0 1 .79-.17 2 2 0 0 0 1-.25 4.51 4.51 0 0 1 1-.38 5.73 5.73 0 0 0 1-.35c.2-.15.47-.22.35-.09s0 .1.08.11.14 0 .08-.05 0-.1.15-.16.23-.07.23 0 .54 0 .76-.16a.49.49 0 0 1 .38-.13 1 1 0 0 0 .51-.11 1.52 1.52 0 0 1 .45-.13.8.8 0 0 0 .37-.1 20.62 20.62 0 0 1 2.11-.66l.71-.21.37-.12a1.4 1.4 0 0 0 .49-.23c.1-.1.22-.12.58-.12a1.08 1.08 0 0 0 .73-.16 3 3 0 0 1 .75-.25 4.22 4.22 0 0 0 .9-.27 3.46 3.46 0 0 1 .65-.23 1.41 1.41 0 0 0 .43-.18 1.38 1.38 0 0 1 .52-.16 1 1 0 0 0 .5-.19c.26-.21.51-.28.39-.11a.09.09 0 0 0 .07.15.16.16 0 0 0 .18-.15c0-.1.15-.2.48-.31l1-.32c.33-.11.47-.13.47 0s0 .07.14 0a4.83 4.83 0 0 1 1.14-.41l2-.61 1.42-.47a3.32 3.32 0 0 0 .68-.25c.1-.07.19-.1.19-.08a1.18 1.18 0 0 0 .48-.13c.37-.14.5-.16.61-.09s.15.09.16 0 .24-.26 1.16-.46a2.83 2.83 0 0 0 .75-.22 2 2 0 0 1 1-.32c.15 0 .23 0 .28-.08s.32-.2 1.31-.49a2 2 0 0 1 .72-.12c.134.003.263-.048.36-.14a6.82 6.82 0 0 1 1.93-.78 11.22 11.22 0 0 0 1.49-.49c.52-.21 1.12-.37 1.12-.29s.06 0 .15-.07.17-.14.16 0 0 .09.14 0a.55.55 0 0 1 .33-.13.84.84 0 0 0 .41-.13 1.49 1.49 0 0 1 .55-.18c.2 0 .32-.08.32-.15s.17-.15.4-.21.39-.06.38 0 .11 0 .24 0c.11-.002.208-.069.25-.17.442-.22.926-.343 1.42-.36.19.11.14 0 .18-.13s.15-.22.49-.3.41-.1.37-.13a3 3 0 0 1 .83-.35l1.2-.46a.6.6 0 0 1 .39-.1 1.94 1.94 0 0 0 1.16-.36c.17-.13.31-.19.37-.15s.39 0 .39-.15 0-.12.16 0 .15 0 .16 0a1.07 1.07 0 0 1 .48-.17c.34-.05.47-.08.44-.15s.12-.13.47-.21a1.51 1.51 0 0 0 .51-.18.5.5 0 0 1 .24-.07c.13 0 .24-.06.24-.11s.14-.11.4-.14.38-.07.39-.17a.13.13 0 0 1 .15-.11c.2 0 .8-.32.81-.45s.08-.1.3-.09c.43 0 .53 0 .45-.18a.16.16 0 0 1 .07-.22h.14s.1.08.31 0 .32-.14.32-.18a1.45 1.45 0 0 1 .48-.2c.25-.08.47-.12.47-.08s.12 0 .29-.08a.92.92 0 0 1 .4-.13.09.09 0 0 0 .11-.07c0-.06.1-.11.23-.12s.23 0 .24-.09.07-.08.23-.05a.49.49 0 0 0 .24 0 1.1 1.1 0 0 1 .38-.16c.21-.04.34-.05.3 0s.16 0 .45-.06.47-.12.21-.12-.29 0 0-.09.35 0 .35 0a1.68 1.68 0 0 1-.82.43c-.46.07-.45.08-.46.27a.63.63 0 0 1-.26.39c-.36.26-.28.37.09.12.18-.12.32-.27.32-.36a.26.26 0 0 1 .17-.18c.08 0 .15 0 .15.05s.07 0 .16 0 .16-.05.15 0 .1.06.24 0 .3.05 0 .18-.22.25 0 .21.5-.5.33-.55-.11-.06 0-.06a1.82 1.82 0 0 0 .53-.28 1.65 1.65 0 0 1 .88-.34c.62-.08.75-.05.57.13s-.21.13-.45.12-.34 0-.41.11-.11.11-.19 0-.13 0-.32.07-.3.37 0 .3h.24s0 .06.14 0a.66.66 0 0 1 .36-.16 2.16 2.16 0 0 0 .6-.21c.49-.24.57-.22.32.05a.36.36 0 0 0-.1.34c.08.1.16.09.4 0 .42-.21.54-.23.3 0s-.15.16 0 .13.17 0 .17 0c-.11.068-.232.116-.36.14a1.54 1.54 0 0 0-.6.23c-.21.16-.24.17-.28.05s-.14-.1-.35 0a.52.52 0 0 1-.44 0c-.13-.08-.15-.07-.16.09a.26.26 0 0 1-.18.22.2.2 0 0 0-.16.17c0 .11 0 .12-.15.06a1.28 1.28 0 0 0-.58 0l-.45.07a1.07 1.07 0 0 0-.27 0c-.17 0-.27.09-.27.19s.11.12.68 0 .7-.15.78 0 .13.15.25 0 .2-.15.45-.13c.42 0 .53 0 .43-.12s0-.12.19-.16a1.56 1.56 0 0 0 .47-.21c.16-.11.23-.13.33-.07s.15 0 .24-.09.14-.15.19-.14a1.92 1.92 0 0 0 .53-.14 1.33 1.33 0 0 1 .64-.13c.15 0 .21 0 .27-.07a.29.29 0 0 1 .21-.11 2 2 0 0 0 .62-.22c.46-.22.51-.23.8-.16s.3.05.31 0 .07-.08.15-.07a.39.39 0 0 0 .25-.1 1.22 1.22 0 0 1 .57-.17 1.51 1.51 0 0 0 .79-.3c.28-.22.77-.33.77-.18s-.3.21-.36.1-.08-.05-.1.09 0 .2.53.07.8-.32.31-.21c-.14 0-.19 0-.13-.08.073-.101.201-.145.32-.11.17.03.22 0 .22-.09a.14.14 0 0 1 .17-.12.16.16 0 0 0 .16-.11 2.66 2.66 0 0 1 1.26-.42 1.67 1.67 0 0 0 .61-.1c.34-.11.54-.13.59-.07s.13.06.32-.06.27-.13.37-.07.11 0 0-.15 0-.24.37-.36l.87-.23c.3-.09.4-.08.33 0a.74.74 0 0 1-.38.2c-.16 0-.29.1-.29.14a.32.32 0 0 0 .37 0 2 2 0 0 1 .46-.27c.19-.1.3-.14.23-.09s0 .11.15.13.24.06 0 .19-.18.12.12 0 .6-.08.22.09c-.23.09-.23.12 0 .13a1.44 1.44 0 0 0 .42 0 .24.24 0 0 0 0-.44c-.032-.002-.062-.017-.082-.042s-.031-.056-.028-.088c.1-.26 0-.42-.25-.34a.4.4 0 0 1-.33 0c-.05-.06.06-.11.38-.17a3 3 0 0 0 .65-.2c.14-.07.21-.06.2 0-.022.077-.083.138-.16.16s-.16.07-.16.1a2.96 2.96 0 0 0 1.17-.37c.17-.2.24-.18.47-.12s.25.05.25-.06a.18.18 0 0 1 .14-.15c.08 0 .1.06.05.18a.3.3 0 0 1-.22.2c-.08 0-.14 0-.14.06s.1.07.23.06.24-.05.24-.11.11-.15.25-.21.22-.16.17-.27 0-.12 0-.08.38 0 .29-.16 0-.19.23-.28.3-.07.23 0 0 .11.17.07a.4.4 0 0 1 .25 0s.31-.21.33-.41.18-.19.18.09 0 .23.41.11l1-.31a2.13 2.13 0 0 0 .69-.28.39.39 0 0 1 .21-.14c.23-.05-.25.37-.55.49s-.28.16-.28.24 0 .1.12 0 .9-.23.89-.08.09.1.19.1.17-.06.12-.12.05-.14.4-.26a1.62 1.62 0 0 0 .48-.22c0-.1-.29-.22-.3-.12s-.14.1-.35.13-.32 0-.05-.09.24-.13.12-.13-.17-.06-.17-.11.07-.07.19 0a1.9 1.9 0 0 0 .92 0c.06 0 .08 0 0 .14s0 .15.12.12l.77-.19c.44-.1.56-.1.5 0s.72-.1 1.08-.38c.16-.13.29-.2.29-.15a.34.34 0 0 1-.17.17c-.09.05-.16.11-.16.15a2.29 2.29 0 0 0 1-.33.35.35 0 0 1 .33-.07.56.56 0 0 0 .33 0h.1a.83.83 0 0 1-.39.14 1.41 1.41 0 0 0-.5.15 1.35 1.35 0 0 1-.52.19 2.45 2.45 0 0 0-.61.19c-.28.15-.25.29 0 .17s.7-.16.7-.07a2 2 0 0 1-.6.26 3.58 3.58 0 0 0-1 .48c-.42.33-.47.43-.11.19s.25-.14.13.13-.08.27.07.18.16 0 .07.23-.12.32.17.12.3-.26.3-.34.1-.15.25-.16a4.31 4.31 0 0 0 1.13-.33c.43-.15.55-.18.49-.09s.07.1.25.08c.33 0 .45-.16.17-.18s-.19-.12.08-.19.24 0 .24 0c.227-.046.461-.053.69-.02zm-.18.36s.09 0 .08-.12 0-.1-.09 0-.04.11.05.12zm-1.19.38a.42.42 0 0 0 .23-.17c.07-.08 0-.1-.13 0s-.33.23-.1.17zm-.63-.11c.21 0 .35-.12.35-.19s0-.09-.23 0-.24.13-.23.06-.07-.07-.16 0c-.34.07-.07.2.27.13zm-1.56-.89c.14-.06.25-.15.25-.21s-.26-.08-.38.1-.15.22.13.11zm-.42 1.08c.18 0 .17-.12 0-.23s-.23 0-.18.14-.08.08-.22.11-.23.09-.23.14.1 0 .24 0zm-.46.7c.23 0 .63-.29.47-.34a1.54 1.54 0 0 0-.41.05c-.18.05-.28.09-.22.1s0 .09-.08.18-.14.16-.08.17.1 0 .1-.06.1-.09.22-.1zm-.48-.55c.19-.05.18-.26 0-.27a3 3 0 0 0-1.1.48c0 .1.43 0 .51-.16s.12-.11.28-.07a1 1 0 0 0 .31.02zm-.37.71a.19.19 0 0 0 .16-.16c0-.06-.06-.1-.15-.07s-.16.08-.16.15.06.1.15.08zm.05.4c.2-.14.1-.2-.22-.13s-.31.11-.32.15a.78.78 0 0 0 .54-.02zm-1 .22c.09 0 .16-.05.16-.08s-.07 0-.16 0a.15.15 0 0 0-.16.07c-.01.01.06.01.15.01zm-1.72.33c.075.004.142-.047.16-.12 0-.05-.07-.06-.16 0s-.16.07-.16.12.06.02.15 0zm-.44-2.46a.84.84 0 0 0 .33-.15c.05-.06 0-.07-.22 0s-.33.12-.33.16.09.02.21-.01zm.06 2.11c.13 0 .24 0 .24-.07s-.17-.13-.34-.09-.16.18.09.18zm-1.83.74a.84.84 0 0 1 .28-.18c.15-.05.25-.09 0-.08-.37 0-.74.24-.5.3s.25.03.25-.04zm0-2c.24-.06.31-.17.14-.22s-.37 0-.38.15.12.06.27.03zm-1 .4c.38-.23.52-.38.29-.32s-.68.37-.68.47.21-.04.42-.19zm-.72.39a.24.24 0 0 0 .17-.2c0-.09-.07-.13-.16-.08a.28.28 0 0 0-.16.2c.062.041.137.055.21.04zm-.13 1.87c.35-.1.22-.25-.17-.19s-.89.31-.89.46.13.05.43-.06zm0-1.09c.06 0 .09 0 .09-.12s0-.1-.09 0 .01.07.06.08zm-1 2.45c.14 0 .24-.09.24-.14s-.09 0-.23 0-.23.09-.23.13.1 0 .24-.03zm0-2.79a.35.35 0 0 0 .09-.15c.01-.07-.07-.08-.17 0s-.04.2.08.11zm-1.26 2a.2.2 0 0 0 .17-.12c0-.02-.07 0-.16 0-.075-.004-.142.047-.16.12 0 .05.07-.03.15-.08zm-.63-1.47c.138.012.274-.032.38-.12a.35.35 0 0 0-.66-.05c-.16.15-.14.17.28.09zm.13 2a.18.18 0 0 0 .17-.12c.01-.05-.07-.06-.16 0s-.16.07-.16.12.06-.04.15-.06zm-1.29 1c.09-.05.16-.12.16-.16s-.06-.06-.15 0-.16.1-.16.16.08-.04.15-.09zm-.91.85c.23-.08.41-.19.41-.24s-.09 0-.23 0-.23.06-.23 0-.12 0-.25.1c-.34.19-.21.23.3.05zm-.68-3.11c.09-.05.16-.1.16-.12s-.07 0-.16 0c-.074 0-.139.049-.16.12 0 .04.07-.04.16-.09zm-.56-.19a.49.49 0 0 0 .3-.13c0-.06-.06-.08-.22 0-.35-.05-.4.1-.08.04zm-.52 3.2c.09 0 .16-.07.16-.11s-.07-.06-.16 0-.16.07-.16.11.07-.06.16-.09zm-.6-1.88c.34.12.54.08.41-.07a.33.33 0 0 0-.28 0c-.12 0-.22 0-.21-.07s-.17-.11-.51 0c-.06 0-.11 0-.11-.06s0-.06-.18 0 0 .27.3.16a1.06 1.06 0 0 1 .58-.05zm.21 1.23s.08 0 .09-.07a.14.14 0 0 0-.14-.15c-.09 0-.15 0-.16.08s-.06.09-.15.08-.16 0-.16.08.1 0 .22 0 .29-.15.29-.11zm-.45 1.31a.17.17 0 0 0 .23 0c.06-.06 0-.11 0-.12-.29-.14-.38-.06-.23.03zm0-3.49c.073-.004.136-.051.16-.12 0-.04-.07-.05-.15 0s-.16.1-.16.12.1-.07.19-.09zm-.7 3.8c.45 0 .71-.08.41-.15a1.21 1.21 0 0 0-.49 0c-.19.03-.17.05.12.06zm-.05-2.24c.33-.21.25-.28-.18-.18s-.37.11-.21.21a.33.33 0 0 0 .43-.12zm-.94 3.45a.82.82 0 0 0 .37-.21 1.22 1.22 0 0 0-.31.05.74.74 0 0 1-.4.06s0-.08.16-.12.22-.1.19-.14-.16-.05-.26 0a1 1 0 0 1-.44 0c-.21 0-.22 0-.11.12a.65.65 0 0 1 .12.3c.04.07.16.06.72-.15zm.24-4.12a.18.18 0 0 0 .16-.08.36.36 0 0 0-.16 0c-.08 0-.15 0-.15.07s.1-.06.19-.08zm-.94 0a.62.62 0 0 0 .25-.14c0-.05 0-.07-.15 0s-.25.1-.25.14.1-.08.19-.1zm-.53 4c.14 0 .18 0 .19-.14s0-.15-.18-.05-.12.07.03.11zm-.45-.32a.68.68 0 0 0 .3-.08h-.2c-.2 0-.18.01-.06 0zm-.39-3.06a1.68 1.68 0 0 0 .57-.25c.15-.13.13-.16-.11-.17a.79.79 0 0 0-.57.2c-.32.2-.3.25.15.14zm-.05.39c.065.004.123-.038.14-.1a.34.34 0 0 0-.38 0c-.1.11.07.07.28.02zm-1 .32c.075.004.142-.047.16-.12 0-.05-.06-.07-.15-.08a.13.13 0 0 0-.16.11c.07-.01.14.03.22.01zm-.2-.66c.24-.06.32-.16.15-.21s-.37 0-.38.15.17.01.3-.02zm-.27.57c.09 0 .16 0 .16-.11s-.06-.11-.15-.08-.16.07-.16.11.13 0 .22 0zm-.55 2.15c.09-.05.15-.11.15-.15-.12-.073-.27-.073-.39 0-.11.1.11.18.31.07zm-.21-2.39a1.5 1.5 0 0 0 .3 0 .93.93 0 0 0-.5-.18c-.16-.03-.03.09.27.1zm-.28 4.07c.26-.1.32-.21.15-.26a.63.63 0 0 0-.33.15c-.22.12-.06.19.25.03zm0-3.37c.44-.19.23-.28-.33-.14-.39.09-.54.16-.51.23a1.69 1.69 0 0 0 .94-.17zm-.9.7c.23 0 .31-.06.16-.15a.17.17 0 0 0-.23 0c.05.01.08.06.17.07zm-.89-.17c.19 0 .38-.11.27-.23s-.12-.12-.23 0 .02.14.06.15zm-.56 0a.26.26 0 0 0 .26-.06c.06-.06 0-.11-.06-.12s-.29.07-.09.12zm-.83.19c.13 0 .25-.09.25-.14s-.06-.06-.15 0a.62.62 0 0 0-.25.14c.09-.05.09-.03.25-.06zm-1.31-.11l1-.24a2.53 2.53 0 0 0-1.13.05c-.66.12-.75.15-.76.28s.14.04.99-.15zm.61.43c.09 0 .16 0 .16-.07s-.06 0-.15 0-.16 0-.16.07.17-.03.25-.03zm-.37 3.49c.28 0 .25-.25 0-.24s-.24.05-.21.13a.24.24 0 0 0 .31.05zm-.59.12a.2.2 0 0 0 .16-.12.34.34 0 0 0-.15 0 .16.16 0 0 0-.17.12 1.98 1.98 0 0 0 .26-.06zm0-1.44a.1.1 0 0 0 .08-.1.15.15 0 0 0-.17 0c-.09.06-.13.06-.08.09a.3.3 0 0 0 .27-.05zm-.7-.06c.075.004.142-.047.16-.12 0-.05-.06-.06-.15 0s-.16.07-.16.12.16-.04.25-.06zm-.36-.75c.15 0 .24 0 .25-.12s-.1-.09-.24-.06-.24.09-.24.13.2 0 .33-.01zm-.77-.32c.05 0 .09-.05.09-.13s0-.1-.1 0 .05.06.11.06zm-1.93 3.12a.36.36 0 0 0 .16-.08.36.36 0 0 0-.16 0 .15.15 0 0 0-.16.07.85.85 0 0 1 .26-.05zm-.54.74c.23 0 .29 0 .31-.14s-.1-.14-.26-.12c-.29-.02-.32.18.05.2zm-1.84.17a.48.48 0 0 0 .17-.12h-.16c-.075-.004-.142.047-.16.12 0 .05.17-.01.25-.1zm-2.47 1.46a.23.23 0 0 0 .22-.15c0-.05-.05-.09-.13-.07a.44.44 0 0 0-.23.15c.078.025.161.029.24.01zm.18-5.45c.09 0 .16-.05.16-.07s-.07 0-.16-.05-.15 0-.15.07.18.01.25-.01zm-2.46 6a.52.52 0 0 0 .25-.14c.13-.1.15-.15.06-.16s-.34.19-.21.19zm-.28.42c.3-.19.3-.24 0-.3s-.26 0-.39.1c-.23.24.07.39.49.12zm-1.68 1.15a.67.67 0 0 1 .11-.28c.1-.14.08-.14-.13 0s-.36.48-.14.42a.19.19 0 0 0 .26-.22zm-.6-.45c.21-.21.21-.36 0-.32a.29.29 0 0 0-.16.26c.1.09.13.1.26-.02zm-.79.19c.075.004.142-.047.16-.12 0-.05-.06-.06-.15 0s-.16.07-.17.12.17-.06.26-.08zm-1.16-4.62a.32.32 0 0 0 .2-.15c.06-.09.08-.14-.08 0s-.21.13-.12.15zm-2 5.61c.05 0 .1 0 .09-.13s0-.1-.09 0 0 .11 0 .13zm-.5-.53c.09-.05.16-.1.16-.12s-.07 0-.16 0c-.075-.004-.142.047-.16.12 0 .05.07.05.16 0zm-.67 1a.18.18 0 0 0 .16-.16c0-.07-.07-.08-.15 0s-.17.12-.17.16.07 0 .16-.02zm-.52-.42a.1.1 0 0 0 .07-.09c-.047-.036-.113-.036-.16 0-.09.06-.12.06-.07.09a.2.2 0 0 0 .16-.02zm-.49.43a.49.49 0 0 0 .4-.16c0-.04-.17-.05-.39 0s-.4.1-.41.17.17.03.4-.03zm-.4-5c.05 0 .09 0 .09-.13s0-.1-.09 0-.05.12 0 .14zm-.65 5.76c.084-.001.153-.066.16-.15 0-.07-.06-.1-.15-.08s-.16.09-.16.15.06.11.15.09zm-1-.16a.38.38 0 0 0 .23-.17c.06-.09 0-.12-.13-.09-.104.013-.193.082-.23.18a.1.1 0 0 0 .18.09zm-7.33.59c.075.004.142-.047.16-.12 0-.05-.06-.06-.15 0s-.16.07-.16.12.11.03.2.01zm-.28 2.7a.21.21 0 0 0 .17-.15c0-.07-.06-.1-.16-.08a.19.19 0 0 0-.16.16c.037.073.123.107.2.08zm-.28-.59c.09 0 .16 0 .16-.11a.14.14 0 0 0-.15-.12c-.09 0-.16 0-.16.1s.11.13.2.14zm-.5.55c.09 0 .16-.07.16-.11s-.06-.08-.15-.09c-.037-.007-.076.002-.107.025s-.05.058-.053.095c0 .07.11.11.2.09zm-.61.43c.18-.18.16-.2-.19-.23s-.33 0-.25.08 0 .13-.29.2c-.46.11-.7.3-.4.33a2.41 2.41 0 0 0 1.18-.37zm-.37.43a.22.22 0 0 0 .17-.13h-.16a.2.2 0 0 0-.16.13c0 .03.11.03.2.01zm-.4-.6c.2 0 .23-.16.07-.2s-.3 0-.33.18a.15.15 0 0 0 .14.18c.1 0 .13 0 .06-.06s-.04-.1.06-.1zm-1.06-.11c.18 0 .31-.07.32-.11s-.14 0-.32 0a1.1 1.1 0 0 0-.31.1.84.84 0 0 0 .31.02zm-5.54 2c.09 0 .16-.12.16-.16s-.06-.07-.15-.07a.16.16 0 0 0-.17.15c0 .06.07.1.16.05zm-2 .64l.36-.09c0-.1-.31-.14-.44-.07s-.18.06-.17 0-.08-.05-.16 0c-.049.029-.111.029-.16 0 0 0 0-.07-.08 0s.33.21.69.13zm-1.94 1.15c.27-.2.28-.24.08-.26s-.16 0-.16.1 0 .08-.15 0-.24 0-.59.11a2.67 2.67 0 0 1-1 .21c-.54 0-.63.05-.85.21s-.17.44.24.24.44-.21.54 0 .12.13.25 0 .16-.14.24-.05.74 0 .84-.2a.35.35 0 0 1 .22-.14 1.41 1.41 0 0 0 .38-.25zM123.29 44c.073-.004.136-.051.16-.12 0-.04-.07 0-.16 0a.2.2 0 0 0-.16.12c0 .02.07 0 .16 0zm-1.48-.11c.14-.1.24-.19.24-.23s-.09 0-.23 0a.3.3 0 0 0-.24.22c0 .12.03.12.23-.01zm-1-.07c.2-.11.32-.24.33-.38v-.21l-.32.27c-.44.35-.45.5-.02.3zm-.41-1.11a.13.13 0 0 0 .16-.11.14.14 0 0 0-.15-.12c-.09 0-.16 0-.16.1s.05.1.14.11zm-.05.75c.2 0 .2 0 0-.16s-.15-.06-.16.06a.1.1 0 0 0 .15.08zm-1-4c.075.004.142-.047.16-.12 0-.05-.06-.06-.15 0s-.16.07-.16.12.01-.02.1-.04zm-.26 4.54c.19 0 .19-.13 0-.23s-.15-.05-.16.1a.13.13 0 0 0 .16.13zm-6.47 1.63c.125.006.245-.05.32-.15.01-.04-.13 0-.32 0s-.31.11-.31.15.13.01.31-.03zm.25-3.81s.09 0 .09-.13 0-.09-.1 0-.04.08.01.1zm-3.76 5.65c.09 0 .16-.07.16-.11s-.06-.07-.15 0-.16.08-.16.12.06-.02.15-.04zm.07.3a.12.12 0 0 0 .08-.1.15.15 0 0 0-.17 0c-.09.06-.13.07-.08.1a.28.28 0 0 0 .17-.03zm-3.1-4s.09 0 .08-.12 0-.1-.09 0-.04.06.01.07zM103.96 50c.14-.06.25-.15.25-.21s-.1-.09-.23 0-.25.12-.25.21.03.1.23 0zm-.23-3.31c.074 0 .139-.049.16-.12 0-.04-.07-.05-.15 0s-.16.1-.16.12.02.05.11.03zm-.44 2.55c.24 0 .21-.26-.05-.37a.38.38 0 0 0-.54.41c.03.36.11.31.33.28s.27-.07.19-.19-.09-.11.03-.1zm0 .75c.16 0 .19-.16 0-.2s-.35 0-.26.13a.25.25 0 0 0 .2.08zm-1-.6s.08 0 .09-.12 0-.14-.08-.08-.13.19-.09.23zm-.21.29c.18 0 .31-.06.31-.1a2.39 2.39 0 0 0-.54 0c-.1 0-.03.15.11.13zm.22.31a.11.11 0 0 0 .08-.1.15.15 0 0 0-.17 0c-.09.06-.13.06-.08.09a.28.28 0 0 0 .09.02zm-.84-.2c.38-.37 0-.58-.59-.33-.34.13-.24.33.11.2.18-.06.33-.07.38 0s0 .11-.09.13-.11.07 0 .1.01.03.11-.07zm-2.3-4.22a.14.14 0 0 0 .16-.1c0-.07-.07-.11-.15-.09s-.16.07-.16.11-.05.11.07.11zm-.06 1.15a.18.18 0 0 0 .16-.08c0-.02-.06 0-.15 0s-.16 0-.16.07.01.06.07.04zm-.33 3.76a.2.2 0 0 0 .16-.12c0-.02-.07 0-.16 0-.074 0-.139.049-.16.12-.01.05-.01.08.08.03zm-.41.27h.24a.5.5 0 0 0-.23-.11c-.08-.012-.16-.012-.24 0a.19.19 0 0 0 .15.14zm0-5.26c.075.004.142-.047.16-.12 0-.05-.06-.06-.15 0s-.16.07-.16.12.01.05.1.03zm-.3 1s.09 0 .09-.12 0-.1-.1 0-.09.12-.04.13zm-1.1.51a.29.29 0 0 0 .24-.09c.06 0 0-.1 0-.1a.29.29 0 0 0-.24.09c-.1.01-.08.1 0 .1zm-.69-1.5c.09 0 .16-.07.16-.11s-.06-.07-.15-.05-.16.08-.16.12.07.02.16 0zm-.5.62c.19-.1.19-.1 0-.19s-.15 0-.16.09.09.11.17.06zm-1.56 5c.4 0 .54 0 .2-.06a1.15 1.15 0 0 0-.58 0 1.18 1.18 0 0 0 .39-.06zm.27 1.07c.052.022.113-.003.135-.055s-.003-.113-.055-.135c-.047-.036-.113-.036-.16 0-.09.06-.12.06-.07.09a.25.25 0 0 0 .16.01zm-.52-.62c.09 0 .16 0 .16-.11a.14.14 0 0 0-.15-.13c-.09 0-.16 0-.16.1a.15.15 0 0 0 .15.14zm-1-3.22a.26.26 0 0 0 .26-.06c.06-.06 0-.11-.06-.11s-.36.12-.2.17zm-.31 3.95a1 1 0 0 0 .34-.25c.16-.18.14-.19-.09-.09l-.33.13a.13.13 0 0 0-.06.13c.02.07.08.1.17.08zm0 .37c.2-.19.19-.23-.09-.28a.48.48 0 0 0-.42.1c-.14.1-.14.12 0 .09a.27.27 0 0 1 .28.1c.1.11.15.11.26-.01zm-.59-1c.84-.25.81-.32-.07-.17a1 1 0 0 1-.43 0c-.06 0-.12 0-.12.15s.06.2.65.03zM91.88 53c.46-.12.51-.26.07-.21a1.72 1.72 0 0 0-.5.1c-.14.11.13.11.43.11zm-.24-.33c.33-.08.33-.29 0-.27a.77.77 0 0 0-.33.07c-.15.07.09.21.33.16zm-.46.57c.28-.06.27-.08 0-.16s-.21-.08 0-.13.19-.06 0-.1-.38 0-.27.26a.3.3 0 0 0 .27.09zm.21-4.48c.13 0 .06-.16-.08-.17s-.11 0-.07.09.11.05.15.04zm-.85 3.45c.28-.11.35-.3.08-.23s-.26.12-.26.18.08.05.18.01zm.15.58s.09 0 .09-.12 0-.1-.09 0-.05.07 0 .08zm-.07-2.67c.075.004.142-.047.16-.12 0-.05-.07-.08-.15-.08s-.16 0-.16.11.06.07.15.05zm-.54 3c.27-.22.39-.46.23-.47s-.14 0-.08 0a1.23 1.23 0 0 1-.68.23c-.21-.05-.16 0-.16 0s.57.24.69.18zm0 .45c.44-.06.51-.12.12-.11-.62 0-.85.08-.76.22s0 .15-.15.19-.24.11-.25.18.43 0 .54-.21.16-.28.48-.33zm-.22-2a.25.25 0 0 0 .25-.21c0-.09-.07-.12-.23-.06s-.25.16-.25.22.08.02.21-.02zm-.28 1a.34.34 0 0 0 .17-.17h-.16c-.09 0-.16.12-.16.16s.04.03.13-.02zm-.27 1c.12-.1.21-.21.2-.25s-.44-.41-.62-.36-.14.05 0 .06a.33.33 0 0 1 .25.48c-.07.11-.12.12-.22.06s-.33 0-.21.17.31.02.58-.22zm-.56-.11c.075-.004.141-.05.17-.12.01-.04-.07-.06-.16 0s-.16.07-.16.11.04-.03.13-.05zm-.16-6c.075.004.142-.047.16-.12 0-.05-.06-.06-.15 0s-.16.07-.16.12.04-.06.13-.08zm-.11 2.2c.075.004.142-.047.16-.12 0-.05-.06-.06-.15 0s-.16.07-.16.12.04-.06.13-.08zm-.19-1.13c.29.06.29 0 0-.12h-.22l.2.04zm-.25.38c.073 0 .14-.043.17-.11.01-.04-.07-.07-.16 0s-.16.08-.16.12.07-.07.13-.09zm-.72 5.53c.24-.06.16-.15-.15-.18s-.32 0-.39.12 0 .11 0 .06a.32.32 0 0 1 .25 0 .38.38 0 0 0 .27-.08zm-1.08.09c0 .13.1.11.57-.27s.54-.52.2-.44a.17.17 0 0 0-.14.14c0 .06-.09.16-.2.22s-.14 0 0-.05 0-.08-.15.05-.32.18-.3.27zm.33-4c.074 0 .139-.049.16-.12 0-.04-.06-.06-.15 0s-.16.07-.16.11.04-.07.13-.09zm-.37 3.26c.39-.14.45-.3.07-.21-.18 0-.32.12-.32.18s.09-.03.23-.07zm-.47-2.46c.09 0 .18-.06.18-.12s-.1-.09-.23-.06c-.3-.03-.26.1.03.08zm-.29 3.06c.35-.21.45-.44.15-.37a.44.44 0 0 0-.25.22.33.33 0 0 1-.44.18 1.52 1.52 0 0 0-.55.27c-.36.25-.43.34-.32.42a.3.3 0 0 0 .46-.26c0-.16.06-.2.31-.23a2.15 2.15 0 0 0 .62-.33zm-.78-.39c.09-.05.16-.1.16-.12s-.07 0-.16 0c-.074 0-.139.049-.16.12 0 .04.07.06.16 0zm-.41.4c.31-.13.32-.25 0-.24s-.46.12-.34.25a.35.35 0 0 0 .34.01zm-.2-2c.3-.07.28-.27 0-.26a.82.82 0 0 0-.31.06c-.17.11.1.27.31.22zm-.2 1.37a.25.25 0 0 0 .26-.06s0-.1-.06-.11c-.24 0-.4.14-.2.19zm-.89 1.15a1.87 1.87 0 0 0 .39-.11l-.18-.17c-.14-.13-.17-.13-.24 0s-.1.15-.21.09-.14 0-.15.1.11.17.39.09zm-.7-1.3a.13.13 0 0 0 .07-.09c0-.05-.07-.06-.16 0s-.13.06-.08.09a.3.3 0 0 0 .19 0zm-.39-1.14a.28.28 0 0 0 .27-.07s0-.11-.06-.11c-.22-.02-.38.13-.19.18zm-.1 1.83a.59.59 0 0 0 .33-.16h-.31c-.38.11-.4.26 0 .16zm-.41 2.08c.27-.06.29-.27 0-.25a1.21 1.21 0 0 0-.4.09c-.22.11.09.24.42.16zm-.81-3.51a1 1 0 0 0 .52-.13c.23-.12.22-.13-.08-.11s-.77.22-.42.24zm-.4-2.61c.09 0 .16-.12.16-.16s-.06 0-.15 0-.16.12-.16.16.08.05.17 0zm-.57 3.37c.27-.06.49-.25.31-.26a.83.83 0 0 0-.33.15c-.14.13-.14.15.04.11zm-.15 1.84a1 1 0 0 0 .32-.14 1.41 1.41 0 0 0-.31 0c-.2 0-.32.07-.32.13s.13.09.33.01zm-.38-1.87c.09 0 .16 0 .16-.08s-.06 0-.15 0-.16 0-.16.07.06.03.17.01zm-.25.29a.49.49 0 0 0 .4-.17c0-.04-.09-.06-.22 0l-.36.08a.3.3 0 0 0-.17.12c-.01.07.14.07.37-.03zm.16 1.28c.073-.004.136-.051.16-.12 0-.04-.07-.05-.16 0s-.16.1-.16.12.16.02.16 0zm-.19-.81c.13 0 .24-.09.24-.14s-.1 0-.23 0-.25.09-.25.14.14.03.28 0zM78 55.64c.075.004.142-.047.16-.12 0-.05-.06-.06-.15 0s-.16.07-.16.12.11.02.19 0zM77.96 54c.074 0 .139-.049.16-.12 0-.04-.07-.06-.16 0s-.16.07-.16.11.09.01.16.01zm-.56 1.57a.16.16 0 0 0 .17-.12c0-.06-.07-.1-.16-.08a.21.21 0 0 0-.16.11 1.08 1.08 0 0 0 .17.04zm-.16.3c.09 0 .16-.06.16-.1s-.12 0-.29 0a.34.34 0 0 0-.3.22c-.01.06 0 .08.12 0s.15 0 .18 0h0s.07-.14.15-.17zm-.09-1.53c.075.004.142-.047.16-.12 0-.05-.06 0-.15 0a.2.2 0 0 0-.16.12c0 .02.08-.03.17-.05zm-.64.24c.19-.05.19-.11 0-.28s-.13-.1-.15.09.09.16.17.14zm.05-2.27a.1.1 0 0 0 .08-.1.15.15 0 0 0-.17 0c-.09.06-.12.06-.08.09a.3.3 0 0 0 .19-.04zm-.13 1c.09 0 .16 0 .16-.07s-.06 0-.15 0-.16 0-.16.07.09-.07.17-.09zm-.68 1.25c.09 0 .16-.07.16-.11s-.17 0-.39 0-.4.06-.39 0-.31 0-.42.14 0 .5.24.4.12-.1.07-.13 0-.07.08-.09a.44.44 0 0 1 .17 0c.043.037.107.037.15 0a.22.22 0 0 0 .17-.16.19.19 0 0 1 .18-.14zm-.31 2.8a.42.42 0 0 0 .23-.17c0-.09 0-.1-.14 0s-.3.13-.07.08zm-.56-.11c-.26.06-.26.05 0-.09s.24-.34-.09-.26c-.13 0-.22 0-.22-.07s-.24-.1-.39 0 0 .1.13.1c.41 0 .28.16-.19.26a3.9 3.9 0 0 0-.76.16 1.78 1.78 0 0 1-.65 0c-.44-.11-.52-.08-.35.12s.08.16 0 .15a.92.92 0 0 0-.43.16c-.19.11-.23.13-.15 0s0-.11 0-.09-.16.09-.17.13-.06.08-.22 0a.32.32 0 0 0-.43.18c-.23.25-.41.27-.6 0s-.2-.18-.21-.13c-.026.064-.091.104-.16.1-.08 0-.16 0-.16.08a.87.87 0 0 1-.28.31c-.23.18-.24.2 0 .15a.44.44 0 0 1 .33 0c.07.06.11.05.18 0s.4-.21.39 0 .1.13.31.08.31-.11.32-.15-.1-.06-.2 0-.14 0 0-.08a.6.6 0 0 1 .47-.05c.14 0 .19.06.13 0s-.1-.18.34-.28a2.42 2.42 0 0 1 .79-.06c.28.032.559-.063.76-.26a3.28 3.28 0 0 1 .5-.33.94.94 0 0 1 .41.16c.23.14.31.15.36 0a.32.32 0 0 1 .29-.17c.13 0 .23-.06.23-.12s-.11-.12-.26-.09zm-.54-1.6c.17 0 .41-.12.29-.19a.18.18 0 0 0-.25.05c-.05-.02-.07.04-.02.05zm0-.43c.2-.07.22-.14.1-.44s-.12-.2-.21-.09-.01.5.18.44zm-.38 1.56a2.26 2.26 0 0 1 .2-.28c.05-.07 0-.1-.15-.06s-.21 0-.13-.11 0-.12 0-.07a.53.53 0 0 1-.34.05c-.16 0-.2 0-.21.17s.06.19.15.17.15.05.14.16.23.19.34-.03zm-.3-.78c.19 0 .2 0 0-.12s-.15 0-.15 0l.15.12zm-.5-.68a.41.41 0 0 0 .21-.14c0-.05-.06-.07-.21 0s-.24.09-.21.13.13-.03.21-.04zm-1.32.41a1.72 1.72 0 0 0 .51-.23c.31-.17.38-.26.25-.27s-.9.41-.76.45zm.5-1c.09-.05.16-.1.16-.12s-.06 0-.15 0a.23.23 0 0 0-.17.12l.16-.1zm-.63 2.64c.23-.12.19-.46 0-.45s-.3.23 0 .25c.08 0 .11.07.06.14s-.13 0-.06-.04zm-.53-4.5c.1 0 .16-.05.16-.07s-.06 0-.15 0-.16 0-.16.07.07-.08.15-.1zM70.72 56c.09-.05.16-.1.16-.12s-.07 0-.16 0c-.074 0-.139.049-.16.12 0 .04.07 0 .16 0zm.06-2.77a.1.1 0 0 0 .07-.1c-.047-.036-.113-.036-.16 0-.09.06-.12.06-.07.09a.25.25 0 0 0 .16-.04zm-.58 4.29a.23.23 0 0 0 .2-.14c.06-.14.08-.14-.08 0s-.16.08-.12.09zm-.36.13c.08 0 .17-.17.21-.32s.01-.33-.09-.33a.32.32 0 0 0-.21.32c-.05.19.01.3.09.28zm-.7 1.09a.49.49 0 0 1 .24-.37c.12-.07.14-.1 0-.08a1.26 1.26 0 0 0-.62.38c0 .08-.06 0 0-.14s0-.24 0-.2a.21.21 0 0 1-.22 0c0-.06-.11 0-.25.08s-.24.4 0 .28.16 0 .16 0a1.37 1.37 0 0 1-.39.17.93.93 0 0 1-.4 0 .3.3 0 0 0-.15.06c-.1.06-.08.14.13.13s.26 0 .21.19 0 .21.24.18.33-.08.33-.18-.08-.14-.18-.13c-.33 0 0-.12.33-.16.2 0 .34 0 .34.07-.06.18.21-.09.23-.33zm0-2.22c.19 0 .31-.07.32-.13s-.14-.16-.4-.05-.29.17.07.13zm.27-3.74a.11.11 0 0 0 .08-.09.15.15 0 0 0-.17 0c-.09.06-.13.07-.08.1a.28.28 0 0 0 .16-.06zm-1.23 4.34a1.5 1.5 0 0 1 .59-.24c.57-.17.58-.17.17-.13a2.74 2.74 0 0 0-.72.16 1.47 1.47 0 0 1-.4.14c-.22 0-.12.16.11.15s.23-.09.24-.13zm.68.33a.78.78 0 0 0 .24 0c-.081-.006-.16-.03-.23-.07a.23.23 0 0 0-.23 0 .95.95 0 0 0 .21.02zm-.11.61c.37 0 .4 0 .08-.12s-.38-.06-.38 0 .11.06.29.06zm-.79-1.99a.23.23 0 0 0 .2-.14c.06-.14.08-.14-.09 0s-.18.13-.11.14zm-.58 4.09a.75.75 0 0 0 .34-.31q.06-.16-.09 0c-.18.17-.66.2-.65 0s-.1-.13-.23-.17-.24 0-.24.1.07.15.18.12.14 0 .08 0a.59.59 0 0 1-.34 0c-.19 0-.22 0-.21.19s.08.21.32.12a.63.63 0 0 1 .43 0c.06.09.16.07.38-.05zm-.33-1h.09c0-.2-.22-.19-.84 0l-.64.24.56-.09a2 2 0 0 0 .65-.19.12.12 0 0 1 .15.02zm-.34-1.66l.39-.1c0-.11-.33-.13-.53 0-.42.11-.34.19.11.08zm0-.74c.077 0 .144-.054.16-.13 0-.05-.07 0-.15 0a.2.2 0 0 0-.16.13c0 .03-.02 0 .07-.02zm0 .23c.075.004.142-.047.16-.12 0-.05-.06-.06-.15 0s-.16.07-.16.12-.03.01.06.01zm-.44 1.12a.1.1 0 0 0 .07-.1c-.047-.036-.113-.036-.16 0-.09.06-.12.07-.07.1a.25.25 0 0 0 .07-.02zM65.84 57c.36-.08.36-.08 0-.15s-.49 0-.41.1a.33.33 0 0 0 .41.05zm.12 1.61c.09 0 .16 0 .16-.07s-.07 0-.16 0-.15 0-.15.08.03.01.15-.01zM65.52 60a.33.33 0 0 0 .24-.08c.06-.06 0-.1 0-.11a.32.32 0 0 0-.25.09s-.08.1.01.1zm.19-6.75c.075.004.142-.047.16-.12 0-.05-.06-.06-.15 0s-.16.07-.17.12.07 0 .16-.02zm-.58 6.66a1.78 1.78 0 0 0 .16-.28c.1-.21.07-.22-.36-.08a1.86 1.86 0 0 1-.71.1c-.18 0-.23 0-.23.09s-.1.13-.57.18-.6.08-.69.17-.18.1-.35.06a.34.34 0 0 0-.34.07c-.08.07-.19.16-2 .48-.61.11-.73.19-.41.28s-.18.11-.71 0-1-.09-.57.06c.16.06.15.08-.08.13s-.24.1-.18.18.07.1-.21 0-.28-.11-.23-.15 0-.09-.08-.09-.16 0-.16.06-.09.09-.2.12a10.38 10.38 0 0 0-1.76.71.68.68 0 0 0 0 .42l.1.33.27-.34c.15-.18.27-.28.27-.22s.05.07.23 0a8.7 8.7 0 0 1 1.77-.52c-.15.16 0 .09.2 0s.32 0 .31.17 0 .22.24.08.19-.17.09-.2a.21.21 0 0 1-.15-.2c0-.12 0-.14.23-.11a.75.75 0 0 0 .49-.09.65.65 0 0 1 .51-.09c.22.06.25 0 .44-.11a.57.57 0 0 1 .51-.12c.43 0 .69-.07.6-.18s.26-.15.63-.09c.126.024.25-.049.29-.17.08-.17.12-.19.43-.13s.28 0 .23 0 0-.12.09-.18c.37-.19.61-.23.55-.08s.09.1.63 0a3.23 3.23 0 0 0 .72-.28zm-.73-.53c.098.007.192-.044.24-.13.01-.05-.1 0-.23 0a.3.3 0 0 0-.24.13c0 .02.09.01.23-.02zM63.96 61c.52 0 .5-.2 0-.17s-.6 0-.6.15.07 0 .15 0h.16c.096.017.193.024.29.02zm-.2-3a1.24 1.24 0 0 1 .35-.2c.19-.08.18-.09-.05-.08a1.66 1.66 0 0 0-.58.17c-.37.18-.41.26-.07.12.14-.06.24-.06.24 0s0-.01.08-.09zm.35.2c.073-.003.137-.051.16-.12.01-.05-.42 0-.66.21s-.19.18.07.07a3.07 3.07 0 0 1 .4-.24zm-.76 2.55a1.41 1.41 0 0 0 .42-.09h-.26a1.59 1.59 0 0 0-.42.09s.04-.06.23-.08zm0-5.81a.61.61 0 0 0 .29-.13c.15-.11.13-.11-.09 0s-.23.04-.18.05zm0 2.31c.09-.05.16-.1.16-.12s-.07 0-.16 0c-.075-.004-.142.047-.16.12 0 .05.06-.03.15-.08zm-.39 1.33c.19 0 .28-.07.28-.16s0-.1-.1-.06a.4.4 0 0 1-.27 0 3.77 3.77 0 0 0-1.37.24c-.16.09-.16.11 0 .08s.2 0 .2.06a1.06 1.06 0 0 0 .8-.07 1.32 1.32 0 0 1 .46-.09zm-.38.73c.25-.07.46-.15.47-.2s-.14 0-.31 0-.34.08-.37 0-.1 0-.15.08.02.21.4.12zm.21 1.82c.075.004.142-.047.16-.12 0-.05-.07 0-.15 0-.07.011-.13.056-.16.12 0 .02.1.03.19 0zm-.35-3.32a.43.43 0 0 0 .28 0c.05 0 0-.06-.19 0s-.2-.04-.05 0zm0 .45c.075.004.142-.047.16-.12 0-.05-.06-.06-.15 0s-.16.07-.16.12.13.02.22 0zm-.14 3c.073-.004.136-.051.16-.12 0-.04-.07-.05-.16 0s-.16.1-.16.12.14.01.23-.01zm.29-7.53a.1.1 0 0 0 .07-.09c0-.05-.07-.06-.16 0s-.12.06-.07.09a.25.25 0 0 0 .23-.01zm-.63 6.06c.075.004.142-.047.16-.12 0-.05-.06-.06-.15 0s-.16.07-.16.12.06.02.15 0zm-.2 1.21a.19.19 0 0 0 .16-.16c0-.06-.07-.09-.16 0s-.16.12-.16.16.07 0 .16 0zm-.33-1.32c.24-.06.31-.17.14-.21s-.37.09-.38.19.1.06.24.03zm-.17-1.28c.09 0 .16-.07.16-.11s-.06-.06-.15 0-.16.07-.16.11.06.03.15 0zm-.31.67a.82.82 0 0 0 .3-.06c.16-.07.16-.08 0-.09s-.45.08-.29.15zm-.14 2.2c.09-.05.16-.1.16-.12s-.07 0-.15 0a.15.15 0 0 0-.17.12c0 .02.07.04.16 0zm-.38-6.62a.31.31 0 0 0 .24-.1.73.73 0 0 0-.24 0c-.13 0-.24 0-.24.09s.1.04.24.01zM60.08 60h.16s-.35-.14-.43 0a.6.6 0 0 1-.29.15c-.107.005-.199.077-.23.18 0 .06.05.1.21 0a.5.5 0 0 1 .32-.11c.063-.003.112-.057.11-.12.01-.12.03-.16.15-.1zm0-.92a.09.09 0 0 0 .08-.09c0-.05-.08-.06-.17 0s-.12.07-.08.09a.24.24 0 0 0 .15 0zm-.75.49a.69.69 0 0 0 .5-.16c.16-.13.15-.15-.05-.1a4 4 0 0 1-.5.07c-.32.02-.32.18.03.19zm.31 2.18a.12.12 0 0 0 .08-.1.15.15 0 0 0-.17 0c-.09.06-.13.07-.08.1a.3.3 0 0 0 .15 0zm0-7.15a.19.19 0 0 0 .13-.19c0-.16 0-.16-.29 0a1.77 1.77 0 0 1-.48.24.18.18 0 0 0-.18.13c0 .05.14 0 .35-.05zm-1.26 5.91a2.91 2.91 0 0 0 .8-.29h-.24l-.31.07h-.47c-.26 0-.4 0-.4.1s-.08.09-.17.11-.11 0-.05-.08 0-.07-.06 0-.26.32-.05.3a8.14 8.14 0 0 0 .92-.21zm.39-1.27a.17.17 0 0 0 .15-.15c0-.06-.13-.09-.33 0s-.31.09-.15.15a.66.66 0 0 0 .3 0zm-.68-4.05c.5-.16.57-.22.39-.32s-.14 0-.14 0a.54.54 0 0 1-.32.15c-.2.02-.31.07-.32.14s.1.1.36.03zm0 7.25c.042-.04.07-.093.08-.15 0-.07-.07-.08-.16 0s-.14.19.02.15zm-.55 0c.09 0 .16-.07.16-.11s-.07-.07-.16 0a.21.21 0 0 0-.16.11c-.06-.02.01-.01.1-.03zm-.65-1.52c.29-.12.32-.18.14-.28s-.18 0-.43.12-.21.32.23.13zm.08.34c.09 0 .16-.07.16-.11s-.06-.07-.15 0-.16.08-.16.12 0-.02.14-.04zm-.16-5.74c.05.12.08.11.26-.09s.18-.22-.18-.13a1.73 1.73 0 0 0-.5.19c0 .06 0 .06.14 0s.19-.08.22 0zm-.12 7.44c.24-.06.29-.43.06-.45-.08 0-.14 0-.15.08s-.11.1-.24.1-.24.06-.24.11a.5.5 0 0 0 .51.13zm.12-7.76c.09-.05.16-.1.16-.12s-.07 0-.16 0c-.075-.004-.142.047-.16.12 0 .05.01.02.1-.03zm-.93 6c.18 0 .32-.11.32-.15s-.13-.08-.3-.09-.32 0-.32.07-.09.09-.21.09a.88.88 0 0 0-.42.19c-.18.14-.18.18 0 .19a.42.42 0 0 0 .33-.09.48.48 0 0 1 .2-.12zm-.19-1.2c.36-.09.45-.15.23-.17a1 1 0 0 0-.35.12c-.19.05-.16.05.12.05zm.27-4.15c.21-.21.17-.28-.09-.16l-.35.13.11.09c.11.09.21.09.33-.06zm-1.42 7.45c.13 0 .26-.18.26-.27v-.17l-.35.25c-.38.28-.34.37.09.19zm-.26-.17a1 1 0 0 1 .28-.27q.18-.11 0-.06a1.12 1.12 0 0 0-.37.2 1 1 0 0 1-.4.17c-.26 0-.45.29-.21.3a.27.27 0 0 0 .24-.09.26.26 0 0 1 .2-.1.36.36 0 0 0 .26-.15zm-.13.63c.086-.006.154-.074.16-.16 0-.07-.06-.11-.15-.08s-.16.09-.16.15.06.11.15.09zm-.12-3.32a.29.29 0 0 0 .23-.21c0-.19-.3-.09-.39.12s.09.12.16.09zm.26-4.66c.05 0 .09 0 .09-.12s-.05-.1-.1 0-.04.1.01.12zm-1.08.74l.6-.22c.18-.08.19-.1-.27 0a1.63 1.63 0 0 0-.6.21c.087.031.181.034.27.01zM52.83 64a.63.63 0 0 0 .34-.18c0-.09-.05-.09-.3 0-.42.07-.46.23-.04.18zm0-.4c.26-.11.29-.17.13-.25s-.89.06-.76.14a.75.75 0 0 0 .37 0h.07c-.12 0-.17.11-.12.13a.48.48 0 0 0 .31-.07zm.06-5.75c.21-.12.17-.15-.1-.09s-.2.08-.14.11.15-.03.24-.07zm-.42-1c.2-.11.2-.22 0-.24s-.36.1-.25.22.16.03.25-.01zm-.39 4.48c.18 0 .32-.13.32-.2s-.08-.09-.24 0l-.32.12a.11.11 0 0 0-.07.09 1.58 1.58 0 0 0 .31-.04zm-.73 2.83c.19.05.27 0 .51-.11s.26-.17-.13-.12-.67.13-.38.2zm.17-3.16a.45.45 0 0 0 .44 0c.12-.09.1-.12-.08-.11-.47-.02-.63.11-.36.11zm0-4.16a.35.35 0 0 0 .27 0c.05 0 0-.05-.19-.05s-.27.03-.11.07zm-.19 4.66c.23 0 .32-.06.17-.15a.18.18 0 0 0-.23 0c-.08.11-.06.16.03.17zm-.21 2.42a.5.5 0 0 0 .15-.15c0-.08 0-.12-.13-.08s-.19.09-.14.14a.2.2 0 0 0 .09.11zm-.49-2.65c.14 0 .24 0 .24-.07s-.17-.13-.33-.09-.18.19.06.18zm0 .33c.28 0 .25-.17 0-.15s-.23 0-.19.09a.29.29 0 0 0 .19.08zm-.25 2.64c.18 0 .32-.1.32-.14s-.13 0-.31 0a1.14 1.14 0 0 0-.32.15c.099.037.208.041.31.01zm-.17-7.08c.19 0 .43-.15.27-.19a2.09 2.09 0 0 0-.49.07c-.33.08-.39.2-.06.13a1.21 1.21 0 0 1 .28.01zm-.25 6c.19 0 .19 0 0-.11s-.15 0-.16 0 .08.18.16.18zm-.3 1.08c.16-.21.14-.22-.13-.1s-.31.22-.11.24a.34.34 0 0 0 .24-.07zm-.08.41c.09 0 .16 0 .16-.06s-.06-.09-.15-.09-.16 0-.16.06a.17.17 0 0 0 .15.16zm-.76-3.5c.075.004.142-.047.16-.12 0-.05-.06-.06-.15 0s-.16.07-.16.12.06.09.15.07zm0-3.65c.076-.004.141-.056.16-.13 0-.05-.07 0-.15 0-.074.015-.137.063-.17.13a.2.2 0 0 0 .19.07zm-.53 5.15c.24 0 .44-.12.44-.17s-.08 0-.17 0a1 1 0 0 1-.49 0c-.31-.07-.31-.07-.26.07s.23.22.51.17zm-.82-.06a.2.2 0 0 0 .16-.12c0-.02-.06 0-.15 0-.075-.004-.142.047-.16.12.011.036.038.065.073.079s.075.01.107-.009zm-.32 2.56c.27 0 .36-.06.36-.15s-.15-.14-.34-.16-.35 0-.41.14-.04.28.42.24zm.06-3.54c.075.004.142-.047.16-.12 0-.05-.06-.06-.15 0s-.16.07-.16.12.09.09.18.07zm-.52.71c.3-.17.19-.25-.2-.16a4.83 4.83 0 0 1-.62.11c-.19 0-.23 0-.16.11a.3.3 0 0 0 .3 0 .66.66 0 0 1 .36 0 .46.46 0 0 0 .35.01zM46.31 65c.076-.004.141-.056.16-.13 0-.05-.07 0-.16 0a.2.2 0 0 0-.16.13c0 .02.07 0 .16 0zm-1.52-6.37c.66-.22.69-.24.24-.18a1.52 1.52 0 0 0-.57.2c-.16.13-.09.13.33-.01zm0 4.25c.19 0 .06-.24-.15-.23s-.21 0-.08.13a.38.38 0 0 0 .21.11zm-1.26.3a2 2 0 0 0 .71-.25c0-.08-.07-.07-.92.12-.57.13-1.14.51-.8.53a2.05 2.05 0 0 0 1.08-.27h-.39c-.24 0-.39.11-.39.07a1.86 1.86 0 0 1 .69-.19zm.14-2.13a.53.53 0 0 0 .26-.18c0-.08.07-.13 0-.12a1 1 0 0 0-.25.17c-.1.08-.12.16-.03.14zm0 5a.22.22 0 0 0 .17-.16c0-.06-.06-.1-.16-.07s-.16.08-.16.15-.01.09.08.03zm.12-7a.37.37 0 0 0 .21-.18c0-.09 0-.12-.14-.06s-.37.26-.14.19zm-.48 6.73c.27 0 .27 0 .06-.14a.48.48 0 0 0-.3-.06c-.28.03-.11.2.17.18zm-.84-1.52a1.37 1.37 0 0 0 .52-.07c.44-.14.23-.2-.28-.08-.36.05-.43.09-.31.13zm.5-2.69c.072 0 .134-.05.15-.12 0-.05-.11 0-.24 0s-.21.09-.16.12a.41.41 0 0 0 .18-.02zm-.29-.63c.075.004.142-.047.16-.12 0-.05-.06-.06-.15 0s-.16.07-.17.12 0 0 .09-.02zm-.28 3.15c.24-.1.37-.3.16-.25a.56.56 0 0 0-.26.18c-.13.07-.09.1.03.05zm-.29 2.29c.36-.14.42-.28.08-.2-.13 0-.24.1-.24.14s-.08.08-.18.07-.14 0-.08 0a.68.68 0 0 0 .35-.03zm0-2.75a.93.93 0 0 0 .28-.21c0-.07 0-.08-.13 0a.56.56 0 0 0-.28.2c-.14.02-.08.03.04-.01zm-.25-4a.5.5 0 0 0 .24-.38c.05-.33-.23-.31-.81 0-.29.18-.29.19 0 .12s.25 0 .09.1-.16.14 0 0 .26-.06.25 0 .04.2.14.15zm-.31 4.21h.23a.72.72 0 0 0-.55 0c-.25.13-.32.31-.09.26a.2.2 0 0 0 .17-.17c-.08-.12-.03-.13.15-.1zm-.11 2.3c.101-.006.19-.068.23-.16 0-.04-.26 0-.36.13s-.11.09.04.02zm-.13-.92c.27-.07.32-.12.11-.14a.45.45 0 0 0-.25.09c-.15.05-.09.07.05.04zm0 1.47c.09 0 .15-.06.15-.1s-.09 0-.22 0-.2.07-.16.1a.35.35 0 0 0 .17-.01zm-.21-3.12a.43.43 0 0 0 .26 0c.11-.08-.07-.13-.28-.08s-.12.04-.04.07zm-.79 2l.57-.13c-.009-.063-.041-.12-.09-.16-.09-.09-.09-.13-.47 0a1.59 1.59 0 0 1-.57.2c-.08 0-.12 0-.08.08s.29.08.58 0zm.25-6.19c.41-.28.41-.3 0-.21a.53.53 0 0 1-.31 0s-.06-.1-.15-.08-.16.09-.16.15-.16.14-.4.19-.4.06-.4 0-.09 0-.23 0c-.112-.002-.21.072-.24.18-.01.07-.11.14-.25.18s-.21 0-.16 0a.8.8 0 0 0-.54 0c-.21.11-.15 0-.15 0a.39.39 0 0 1 .16-.12.19.19 0 0 0 .16-.16c0-.19-.24-.08-.9.36a2.4 2.4 0 0 1-1.12.5c-.32 0-.51.11-.52.17s.13.05.28 0 .22 0-.05.08a3.18 3.18 0 0 0-.57.34c-.22.18-.21.18.13 0s.36-.11.36-.06.15.05.34 0 .29-.09.16-.1-.11-.07.12-.22a.69.69 0 0 1 .59-.16c.36.06.51 0 .52-.12s.1-.14.24-.17.19 0 .14.08.22.15.58-.11a3.1 3.1 0 0 1 1.08-.44 6.78 6.78 0 0 0 1-.31c.17-.09.2-.08.1 0s-.18.23.13.02zm-.44 5.17a.4.4 0 0 1 .07-.25c.07-.09.09-.16-.07-.12s-.33.44-.09.45.07-.04.03-.09zm-.22 2.09a.18.18 0 0 0 .16-.08.36.36 0 0 0-.16 0c-.08 0-.15 0-.15.07s0 .02.09 0zm-.53-7.45a.81.81 0 0 0 .4-.19c.09-.15-.36 0-.57.14s-.16.12.11.04zm-.41 6.74a2.11 2.11 0 0 0 .36-.17c.19-.1.17-.11-.12 0s-.35.12-.35.17-.02 0 .05-.01zm0 .93a.25.25 0 0 0 .22 0v-.13a.23.23 0 0 0-.22 0s-.14.08-.07.12zm-.17.43c.073 0 .14-.043.17-.11.01-.04-.07-.07-.16 0s-.16.07-.16.11-.01.02.08-.01zm-.1-3.08c.28-.06.33-.12.11-.14a.33.33 0 0 0-.25.1c-.13.04-.07.07.07.03zm-.36-3.56c.25-.06.33-.22.1-.21s-.24 0-.25.13-.01.09.08.07zm-.79 6.69c.18 0 .32-.11.32-.17s-.12-.07-.31 0-.32.14-.32.18.06.01.24-.02zM36.87 65c.05 0 .09 0 .08-.13s0-.09-.09 0-.05.13.01.13zm-.34 2.7c.25 0 .3-.06.07-.11s-.22 0-.23 0a.24.24 0 0 0 .16.1zm-1-2.6a.19.19 0 0 0 .16-.12c-.047-.036-.113-.036-.16 0-.09.06-.16.07-.16.12s.1.01.19-.01zm-1.17 1.59c.27-.06.32-.21.08-.25s-.22 0-.22.12a.11.11 0 0 0 .17.12zm-.4-4.69h.22s-.29-.13-.38-.06.02-.01.16.06zm-1.23 4.43a.17.17 0 0 0 .14-.15c0-.13-.4-.15-.57 0s.22.16.41.11zm-.23-.49c.26-.06.31-.2.09-.22s-.51.15-.4.22a.53.53 0 0 0 .29-.04zm-.15 3.17c.13 0 .24 0 .24-.09s-.1 0-.24 0l-.24.09a1.01 1.01 0 0 1 .22-.04zm-.24-1.84c.3-.07.45-.32.18-.3a.38.38 0 0 0-.3.15c-.15.16-.14.17.1.11zm-.15 1.33a.37.37 0 0 0 .28 0s0-.06-.19 0-.28-.04-.09 0zm-.29.55c.18 0 .31-.05.31-.08a2.1 2.1 0 0 0-.79-.06c-.22.05.07.18.44.14zm-.59-2.46a2 2 0 0 0 .63-.24c.31-.18.3-.19-.16-.07a3 3 0 0 1-.68.11q-.2 0-.15.12c-.02.08.14.11.32.08zm0-.36c.24 0 .4-.09.4-.14s-.16-.06-.39 0-.4.1-.4.14.15.04.37 0zm-2.12 1.37c.28 0 .27-.33 0-.32a1.2 1.2 0 0 0-.47.18c-.22.16-.22.18 0 .17a3.13 3.13 0 0 0 .47-.03zm-1.17-.46c.09 0 .16-.07.16-.11s-.06-.06-.15 0-.16.07-.16.11.1.03.19 0zm-.72-.24c.23 0 .18-.18-.07-.17s-.19 0-.15.11a.24.24 0 0 0 .22.06zm-1.32 0c.042-.04.07-.093.08-.15 0-.07-.07-.08-.16 0s-.09.15.08.15zm-2.51.44c.039-.039.066-.087.08-.14.01-.07-.07-.08-.17 0s-.08.15.09.11zm-1.13 2.17a1.61 1.61 0 0 0 .51-.24c.17-.12.11-.11-.31 0s-.51.14-.51.1-.16 0-.37 0-.42 0-.48-.11-.12-.14-.19.08.18.49.58.39c.18 0 .27-.1.22-.13s0-.07.07-.09a.36.36 0 0 1 .16 0 .85.85 0 0 0 .32-.03zm.11-.69a1.27 1.27 0 0 0 .24-.18c-.081.006-.16.03-.23.07-.13.07-.27.11-.27.19s.12 0 .26-.11zm-2.14.67a.75.75 0 0 0 .25-.13c.05-.06 0-.08-.15-.05s-.25.1-.25.14.03.03.15.01zm-.05-5.19c.075.004.142-.047.16-.12 0-.05-.07-.06-.16 0s-.16.07-.16.12.09-.01.16-.03zm-.05 1c.09 0 .16-.07.16-.11s-.07-.08-.15-.08a.14.14 0 0 0-.17.11c0 .06.07.09.14.07zm-1.57 4.83a.72.72 0 0 0 .23 0c-.11-.13-.18-.17-.31-.14s-.17.14.08.13zm-.36-1.46c.13.09.16.08.25-.05s0-.15-.06-.16-.34.1-.19.2zm.15 1.2c.17-.08.2-.19.06-.22s-.36.11-.27.2a.18.18 0 0 0 .21.05zm-4.33-3.7c.09-.05.16-.1.16-.12s-.06 0-.15 0c-.075-.004-.142.047-.16.12 0 .05.06.04.15-.01zm-.91 5.21a.7.7 0 0 0 .38 0c.09 0 0-.09-.12-.13-.39-.09-.62.04-.26.13zm-2.15.61a.22.22 0 0 0 .17-.15c0-.07-.07-.11-.15-.09a.22.22 0 0 0-.17.16c-.03.07.04.1.12.08zm-.5-5.21a.54.54 0 0 0 .26-.14c.12-.09.14-.14.06-.12s-.44.24-.35.26zm-.61.82a.16.16 0 0 0 .08-.14c0-.07-.07-.08-.16 0s-.11.18.05.14zm-.46 3.22a.1.1 0 0 0 .07-.1c-.047-.036-.113-.036-.16 0-.09.06-.12.07-.07.1a.34.34 0 0 0 .13 0zm-.59-2.43c.075.004.142-.047.16-.12 0-.05-.06-.06-.15 0s-.16.07-.16.12.03.02.12 0zm-.6 2.87c.075.004.142-.047.16-.12 0-.05-.06-.08-.15-.08s-.16 0-.16.11.06.11.12.09zm-2.74-1.92a.18.18 0 0 0 .16-.08c0-.02-.06 0-.15 0s-.16 0-.16.07.07.03.15.01zm-.92.23a1.21 1.21 0 0 0 .33-.06c.19-.06.24-.16.18-.17a1.27 1.27 0 0 0-.79.22c-.06.06 0 .07.06 0 .03-.028.071-.043.112-.041s.08.02.108.051zm.4.75c.076-.004.141-.056.16-.13 0-.05-.07 0-.15 0-.074.015-.137.063-.17.13 0 .02.07.02.16 0zM3.71 68.6c.14 0 .24 0 .24-.08s-.1-.06-.23 0-.24 0-.24.08.1.01.23 0zm-1.18 2a1.27 1.27 0 0 0 .24-.18c-.084.006-.166.03-.24.07-.14.07-.23.13-.23.18s.09-.02.23-.1zm-.15-1.91a.23.23 0 0 0 .17-.12c0-.05-.08-.05-.16 0s-.16.1-.16.12.06-.01.15-.03z"/><path d="M197.96 16.75c-.18.05-.34.11-.34.15.202.025.406-.029.57-.15.17-.15-.06-.04-.23 0zm.06-1.84a.3.3 0 0 0-.22.13c-.06.08 0 .1.14 0s.27-.11.08-.13zm-.06.98a.56.56 0 0 0-.25.19q-.09.14.09.06c.27-.09.4-.3.16-.25zm-.54 3.79c-.32 0-.33 0-.08.06a.59.59 0 0 0 .34 0c.05-.01-.07-.05-.26-.06z"/><path d="M197.52 15.34c-.23 0-.4.12-.2.17a.24.24 0 0 0 .26-.06c.06-.05.03-.1-.06-.11zm-.38 3.66a1.67 1.67 0 0 1-.53.15c-.07 0 0 0 .17.08s.47.06.48-.08a.46.46 0 0 1 .14-.18c.1-.14.04-.13-.26.03z"/><path d="M197.24 16.67c-.24-.06-1 .14-1 .27a3.13 3.13 0 0 0 1.19-.15.39.39 0 0 0-.19-.12zm-.49-1.28c-.18.06-.32.14-.32.17s.13 0 .31 0 .31-.08.32-.18-.1-.08-.31.01zm-.07.35a.27.27 0 0 0-.27.2c0 .08.05.08.11 0a1.89 1.89 0 0 1 .27-.2c.09-.02.04-.04-.11 0zm-.25 3.99a.79.79 0 0 0-.21.11h.21c.12 0 .21-.06.21-.11s-.09-.05-.21 0z"/><path d="M196.3 16.22c-.18.05-.22.08-.1.07a.64.64 0 0 0 .31-.08s-.04-.03-.21.01zm-.16 3.1c-.33 0-.33 0-.77.33-.28.19-.35.28-.22.27a1.19 1.19 0 0 0 .52-.26 1.4 1.4 0 0 1 .53-.26c.29-.02.24-.09-.06-.08z"/><path d="M195.96 20a.36.36 0 0 0-.31.06c-.06.05 0 .08.21.06.39-.02.41-.04.1-.12zm0-4c-.075-.004-.142.047-.16.12 0 .05.06.06.15 0s.16-.07.17-.12-.09 0-.16 0zm-.33 4.34c-.18.05-.22.07-.1.07a.6.6 0 0 0 .3-.08c.06-.03-.03-.03-.2.01zm-.08-2.86c-.19.05-.2.13 0 .23s.15.05.16-.09a.12.12 0 0 0-.16-.14zm-.41.41c-.13 0-.24.09-.24.13s.1 0 .24 0a.54.54 0 0 0 .24-.13.54.54 0 0 0-.24 0zm-1.51-1.11c-.14 0-.2.08-.15.11a.29.29 0 0 0 .25 0c.23-.14.17-.18-.1-.11zm-.12 4.73a.47.47 0 0 0-.29 0c-.15.1.06.13.29 0s.16.01 0 0zm-.28-.91a.18.18 0 0 0-.17.12c-.01.05.07.06.16 0s.16-.07.16-.12-.06-.02-.15 0zm-.36.72c-.21.05-.3.09-.19.08a1.16 1.16 0 0 0 .39-.09c.1-.05.01-.04-.2.01zm-1.25.2c-.086.014-.152.084-.16.17 0 .07.07.08.15 0s.17-.12.17-.16-.07-.03-.16-.01zm-.66-.21c-.4 0-1 .2-.89.23a1.74 1.74 0 0 0 .59-.11l.3-.12zm-.92-4.31a3.29 3.29 0 0 1-.4.14.2.2 0 0 0-.14.17c0 .09 0 .09.09 0a.79.79 0 0 1 .39-.18c.16 0 .3-.12.3-.17s-.11.04-.24.04zm-.44 5.71c-.18.05-.22.08-.1.07a.73.73 0 0 0 .3-.07c.06-.04-.03-.04-.2 0zm-.01-.93a.74.74 0 0 0-.33.24c-.2.21 0 .2.29 0s.25-.29.04-.24zm-1.05.88c-.25 0-.4 0-.41.09s.38.09.64 0c.1-.06 0-.09-.23-.09zm.22-6.11a.18.18 0 0 0-.23 0c0 .06 0 .11.06.12s.31-.03.17-.12zm-.8 6.59a1 1 0 0 0-.35.12c-.18.1-.15.11.12 0s.47-.1.23-.12zm0-6.33a.18.18 0 0 0-.17.12c-.01.05.07.06.16 0s.16-.07.16-.12-.06-.02-.15 0zm-.55 5.74a.39.39 0 0 0-.3 0 1.19 1.19 0 0 1-.46 0 1 1 0 0 0-.56.07c-.36.12-.36.12 0 .1h.83c.52-.03.59-.05.49-.17zm-.31.73c-.19.08-.24 0-.23-.18s-.06-.27-.21-.23a2.98 2.98 0 0 1-.51.07c-.15.01-.24 0-.05 0s.18 0 .11.06 0 .06.07.09a.47.47 0 0 0 .31 0 .13.13 0 0 1 .15.1c.03.1.59.17.6 0s-.1.03-.24.09z"/><path d="M186.23 18.35a2.79 2.79 0 0 1-.71.24c-.07 0-.13 0-.14.07s.06.09.81-.2a2.19 2.19 0 0 0 .61-.3 2.39 2.39 0 0 0-.57.19zm-2.14 5.46a.87.87 0 0 0-.4.14c-.12.08 0 .08.23 0 .48-.12.52-.15.17-.14zm.01.37a.3.3 0 0 0-.24.09.57.57 0 0 0 .23 0c.14 0 .23 0 .24-.08s-.1-.04-.23-.01zm-1.21-5.38a.38.38 0 0 0-.23.17c-.06.09 0 .12.13.09s.24-.11.24-.18-.07-.1-.14-.08z"/><path d="M182.56 24.35c-.15.07-.24.13-.2.15a.48.48 0 0 0 .28-.12c.16-.12.15-.12-.08-.03zm-.24-5.88c-.2.11-.33.2-.28.21a.94.94 0 0 0 .36-.19c.26-.19.25-.19-.08-.02zm-.63 8.4a.75.75 0 0 0-.45.09c-.31.16-.13.2.31.06s.32-.11.14-.15zm.03-7.63c-.42.09-.57.23-.28.25.09 0 .17 0 .17-.07s.12-.12.28-.18.07-.06-.17 0z"/><path d="M181.5 24.62a.54.54 0 0 0-.38 0c-.09.09 0 .11.42.08s.33-.01-.04-.08zm-.19.78c-.22.05-.31.09-.2.08a1.37 1.37 0 0 0 .4-.09c.11-.05.03-.04-.2.01zm-.83-.33c-.21.08-.4.11-.43.07s-.18 0-.42.08-.33.17-.17.19a3.18 3.18 0 0 0 1.4-.41 1.33 1.33 0 0 0-.38.07zm.39-5.43c-.14 0-.52.07-.52.14s.13 0 .31 0c.3-.07.37-.1.21-.14zm-.28 5.81a1.38 1.38 0 0 0-.36 0c-.21.06-.21.07 0 .08s.55-.02.36-.08zm-.87.67a.14.14 0 0 0-.16.11c0 .07.07.09.15 0a.6.6 0 0 0 .16-.11zm.01-6.68a.43.43 0 0 0-.16.11h.16c.075.004.142-.047.16-.12 0-.05-.07-.04-.16.01zm-.84 6.14c-.13 0-.24.09-.24.13s.1.06.24 0 .24-.1.24-.14-.1-.02-.24.01z"/><path d="M179.03 19.64h-.23c.06.063.136.108.22.13a.49.49 0 0 0 .23 0c-.06-.063-.136-.108-.22-.13zm-.48 6.56a.25.25 0 0 0-.24.17c0 .06.08.08.23 0s.25-.14.25-.18-.1-.02-.24.01zm-.08-6.31c-.09.05-.12.11-.07.14s.21 0 .22-.1-.06-.09-.15-.04zm-.44 5.77c-.24 0-.4.13-.2.18a.26.26 0 0 0 .26-.06c.06-.06.03-.11-.06-.12zm-.77-5.27c-.18 0-.22 0-.22.11a.11.11 0 0 0 .14.13c.25-.06.3-.19.08-.24zm-.17.44a2.35 2.35 0 0 0-.59.27c-.16.12-.14.12.09 0a3.84 3.84 0 0 1 .6-.2c.119.004.234-.048.31-.14.01-.04-.18 0-.41.07zm-.5 6.17a.49.49 0 0 0-.29.05c-.14.1.06.13.28 0s.16-.05.01-.05zm-.63.22c-.075-.004-.142.047-.16.12 0 .05.07 0 .15 0a.48.48 0 0 0 .17-.12.4.4 0 0 0-.16 0zm-.5-6.22c-.08 0-.16.07-.16.12s.07 0 .16 0a.2.2 0 0 0 .16-.12c0-.02-.07 0-.16 0zm-.34.56c-.2.07-.32.08-.32 0s-.1 0-.22 0-.25.06-.29 0-.18 0-.51.11c-.59.24-1.18.34-1.17.19s-.06-.08-.32.05-.28.19-.22.23.18.4 0 .44-.12.06-.06.09.71-.17.72-.33.13-.18.35-.24c.74-.2.82-.24.79-.33s0-.09.12-.08.16.06.16.12.16 0 .51-.05l.63-.18a.12.12 0 0 0 .12-.1c0-.04-.11.01-.29.08zm-.29-.41a.2.2 0 0 0-.16.12c0 .02.07 0 .16 0 .074 0 .139-.049.16-.12 0-.04-.03-.05-.16 0zm-.45 6.05a.6.6 0 0 0-.25.13c-.06.06 0 .06.16 0s.32-.19.09-.13zm-.73.72a.87.87 0 0 0-.32.14c-.05.06 0 .05.23 0 .4-.16.4-.22.09-.14z"/><path d="M173.47 27.56c0-.07-.23-.09-.42-.06s-.35.07-.29.18.1.1.15.07a.71.71 0 0 1 .37-.05 1.23 1.23 0 0 0 .28 0zm-.51.99c-.18 0-.22.07-.1.07a.73.73 0 0 0 .31-.08c.07-.04-.03-.03-.21.01zm-1.28-.13a.37.37 0 0 0-.17.13h.16c.077 0 .144-.054.16-.13 0-.05-.07-.04-.15 0zm-.35-6.18c-.19.18-.31.35-.27.36s.21-.11.35-.28c.38-.43.32-.48-.08-.08zm-.77 6.62c-.43.05-.61.14-.39.19a1.06 1.06 0 0 0 .46-.1c.33-.12.33-.12-.07-.09zM167.71 30c-.4 0-.42 0-.55.16s0 .11.1.06a1.08 1.08 0 0 1 .48 0c.22 0 .27 0 .27-.06s-.12-.16-.3-.16zm-.1.37c-.14 0-.24.08-.24.13s.1 0 .23 0a.3.3 0 0 0 .24-.13c0-.02-.1-.04-.23 0zm-.65.13a.51.51 0 0 0-.29.05c-.14.1.07.13.29 0s.12-.04 0-.05z"/><path d="M166.96 29.44c-.49 0-1 .23-.64.26.1 0 .16.06.16.13s-.08.12-.17.11-.12-.05-.07-.1 0-.09-.1-.1-.45.22-.34.34 0 .11-.18.14-.26.1-.26.15a2.61 2.61 0 0 0 1.07-.36.45.45 0 0 0 .2-.27.34.34 0 0 1 .21-.22c.12-.05.12-.09.12-.08zm-.68 1.21a.29.29 0 0 0-.23.13c-.05.08 0 .11.13.08s.32-.19.1-.21zm-2.07 0c-1.12.35-1.24.41-.91.44a.31.31 0 0 0 .27-.07.86.86 0 0 1 .38-.16c.18-.05.27 0 .21 0s0 .05.15 0 .25-.14.25-.19.06-.06.14 0 .49-.07.5-.22-.24-.04-.99.2z"/><path d="M163.53 30.7a1 1 0 0 0-.36 0c-.18 0-.2.07-.07.1a.64.64 0 0 0 .36 0c.1-.04.13-.08.07-.1zm-.35.88c-.14 0-.21.08-.16.11a.35.35 0 0 0 .25 0c.069 0 .129-.044.15-.11 0-.04-.11-.03-.24 0zm-.49-.58c-.4 0-.76.24-.41.22s.71-.11.71-.19-.13-.03-.3-.03zm-.73.65c-.18.05-.22.08-.1.07a.64.64 0 0 0 .31-.08.35.35 0 0 0-.21.01zm-.43.4h-.15s.06.1.14.11.2 0 .01-.11zm.15-8.05a.81.81 0 0 0-.4.12c-.18.09-.32.12-.38.08s-.38 0-.39.13.28.07.92-.17c.19-.07.31-.16.25-.16zm-.93 8.21c-.18 0-.31.07-.32.11s.14 0 .32 0a1 1 0 0 0 .31-.11c-.103-.013-.207-.013-.31 0zm-1.1.13a.5.5 0 0 0-.3.07c-.12.07-.17.15-.11.18s0 .13-.07.21-.1.16.12.2.3 0 .37-.27.04-.36-.01-.39z"/><path d="M159.13 24.71a1.42 1.42 0 0 0-.36.16c-.19.1-.17.11.11.05s.37-.12.37-.16-.05-.07-.12-.05zm-.44 8.37c-.09 0-.16 0-.16.07s.07.07.15.05.16-.05.16-.07-.07-.05-.15-.05zm-.39-8.17c-.075-.004-.142.047-.16.12 0 .05.07 0 .15 0a.48.48 0 0 0 .17-.12c-.052-.018-.108-.018-.16 0zm-.8 7.93v.15c0 .01.1 0 .09-.12s-.04-.1-.09-.03z"/><path d="M157.44 33.35a.18.18 0 0 0-.24 0c-.05.06 0 .1.14.09s.27.01.1-.09zm-.72.01c-.13 0-.19.09-.14.15s.11.09.13.08a.41.41 0 0 0 .14-.15c.11-.08 0-.11-.13-.08zm.08.49c0-.07-.14-.09-.26 0a.2.2 0 0 1-.28 0c-.04-.06-.08 0-.1.05a.56.56 0 0 0 .56.16.14.14 0 0 0 .08-.21zm-.78-.6c-.09 0-.12.11-.07.14s.22 0 .23-.11-.07-.08-.16-.03zm-.12 1.05c-.14 0-.23 0-.24.09s.1 0 .23 0a.32.32 0 0 0 .24-.09c0-.02-.1 0-.23 0zm-1.19-.15c-.43.1-.73.36-.43.38.1 0 .13 0 .08-.05s.09-.14.33-.24l.44-.18zm-1.32.09c.33.16.29.35-.08.45-.18.05-.32.06-.31 0s-.07 0-.15 0a.29.29 0 0 1-.25 0 .77.77 0 0 0-.39 0c-.2 0-.3 0-.29-.09a.28.28 0 0 1 .24-.21c.14-.03.23-.1.23-.16s.06-.07.15 0 .17 0 .29-.13.17-.2.35-.14.15.09.09.1-.01.12.12.18zm-.19.26c.22 0 .14-.24-.09-.23s-.52.22-.24.24a1.15 1.15 0 0 0 .33-.01zm-1.43-.25c-.18 0-.31.09-.31.13a.93.93 0 0 0 .53 0c.12-.06.1-.2-.22-.13zm-3.81 1.43c-.18 0-.28.1-.23.13a.57.57 0 0 0 .32 0c.12 0 .23-.09.23-.13s-.14-.04-.32 0zm-.61.14c-.27.07-.34.22-.1.21s.24-.05.25-.13-.06-.1-.15-.08zm-.26.46c-.13 0-.23 0-.23-.1s-.14-.16-.52.06c-.2.12-.23.19-.12.24s.15.06.15 0a.21.21 0 0 1 .17-.17h.13c-.01 0 .2.27.41.18s.31-.28.01-.21zm-.41.41c-.075-.004-.142.047-.16.12 0 .05.07 0 .15 0 .072-.011.135-.056.17-.12 0-.02-.07-.02-.16 0zm-.02.47a.43.43 0 0 0-.23.18c-.09.12-.06.12.14 0s.3-.23.09-.18zm-1.42-.54a2 2 0 0 0-1.19.47c-.05.09-.14.16-.21.15a.34.34 0 0 0-.23.1c-.21.21.39 0 .62-.25s.25-.2.25-.09.29.1.42-.09.15-.11.38 0l.28.1v-.21c.03-.19-.04-.22-.32-.18zm-2.99 1.14a.32.32 0 0 0-.28-.1c-.13 0-.39.32-.3.34a3 3 0 0 0 .73-.08zm-3.09 1.37c-.12 0-.23.08-.23.12s.05 0 .14 0a.63.63 0 0 0 .23-.12s-.02-.03-.14 0zm-4.5 1.59a.62.62 0 0 0-.25.14h.14c.14 0 .33-.19.11-.14z"/><path d="M133.96 40.75a.79.79 0 0 1-.39 0c-.07-.11-.33 0-.33.1s.1.11.23.1.19 0 .14.09c-.21.21.17.1.42-.13s.26-.23-.07-.16zm-1.32-.24c-.25.06-.33.21-.1.2s.24-.06.25-.13-.07-.09-.15-.07z"/><path d="M132.66 41v.15c0 .02.1 0 .09-.12s-.04-.15-.09-.03zm-2.38 1v.15c0 .01.09 0 .08-.12s-.03-.12-.08-.03zm-1.76 0a.24.24 0 0 0-.17.2c0 .09.06.12.15.07s.17-.14.17-.2a.09.09 0 0 0-.053-.083.09.09 0 0 0-.097.013zm-.56 1c-.18 0-.22.08-.1.07a.6.6 0 0 0 .3-.08c.01-.08-.08-.07-.2.01zm-1.68.34a.51.51 0 0 0-.25.14c-.06.06 0 .08.14 0s.25-.09.25-.13-.06-.03-.14-.01zm-4.22.74c.16-.07.2 0 .17.17a.8.8 0 0 0 0 .29 1.14 1.14 0 0 1-.32 0c-.31 0-.44-.28-.16-.34zm-.12.38a.14.14 0 0 0 .08-.14c0-.07-.07-.08-.16 0s-.09.18.1.14zm-.98.16c-.25 0-.31 0-.31.11s.12.09.3.05a.83.83 0 0 0 .32-.11c-.102-.024-.206-.04-.31-.05zm-1.38-.14q-.45.1-.15.33c.19.13.19.13.27-.13s.01-.23-.12-.2zm-1.17 1.35v.15c0 .02.09 0 .09-.13s-.04-.1-.09-.02zm-.16-.49a.47.47 0 0 0-.24.13 1 1 0 0 1-.43.13c-.23 0-.3 0-.23.1s1-.13 1-.27-.02-.11-.1-.09zm-.16-.24c-.075.007-.138.059-.16.13 0 .03.06 0 .15 0a.22.22 0 0 0 .17-.13c-.051-.023-.109-.023-.16 0zm-.46.11c-.09 0-.16 0-.16.08s.07.07.15.05.16-.06.16-.08-.07-.04-.15-.05zm-.52.63c-.09 0-.12.07-.07.1a.34.34 0 0 0 .16 0 .1.1 0 0 0 .07-.1.36.36 0 0 0-.16 0zm-.9.55a.61.61 0 0 1-.35 0c-.21 0-.22 0 0 0s.49.06.49-.07-.08.03-.14.07z"/><path d="M116.11 45.4a.24.24 0 0 0-.38.14c0 .13-.11.17-.78.31a3.12 3.12 0 0 0-.88.26.38.38 0 0 1-.35.06c-.21 0-.22 0-.07.08s.13.15 0 .22-.06.05.12 0a5.7 5.7 0 0 0 1.8-.49c.09-.09.16-.11.23-.07.27.18.54-.25.31-.51z"/><path d="M115.55 46.22a.18.18 0 0 0-.17.12c-.01.05.07 0 .16 0a.2.2 0 0 0 .16-.12c0-.02-.06-.03-.15 0zm-.49.54c-.09.05-.16.1-.16.12s.06 0 .15 0a.23.23 0 0 0 .17-.12c-.049-.029-.111-.029-.16 0zm-.28-.17c-.12-.07-.65-.06-.65 0s.36.14.57.11.26-.03.08-.11zm-1.18.33c-.122-.004-.233.073-.27.19 0 .07 0 .09.11 0a1.85 1.85 0 0 1 .27-.19c.09-.03.04-.04-.11 0zm-.89.17c-.18 0-.31 0-.32-.11s0-.11-.15 0-.16.12-.15.07-.11 0-.25.15-.18.45.12.23.44-.19.32 0 0 .2.07.17a.27.27 0 0 0 .18-.23c0-.21.24-.33.37-.2s.09 0 .1 0c-.081-.067-.186-.096-.29-.08zm-1.25.53a.37.37 0 0 0-.21-.18c-.11 0-.13 0-.06.16.15.31.39.32.27.02zm-.84.66c-.09 0-.13.12-.08.14s.23 0 .24-.1-.07-.09-.16-.04zm-1.89.58c-.09 0-.16.07-.16.11s.06.07.15 0 .16-.07.16-.11-.06-.02-.15 0zm-.89-.78c-.21 0-.31 0-.25-.09s0-.11 0-.09a.48.48 0 0 0-.22.24c0 .12 0 .17.08.12s.11 0 0 .17-.06.2 0 .15l.43-.33c.17-.12.29-.25-.04-.17zm-.36.92a.2.2 0 0 0-.16.12c0 .02.07 0 .16 0 .073-.004.136-.051.16-.12.01-.04-.07-.09-.16 0zm-.91-.56c-.083.005-.15.068-.16.15 0 .06.06.1.15.08s.16-.08.16-.15-.06-.1-.15-.08zm-.67 1.01a1.2 1.2 0 0 0-.48.18 1.1 1.1 0 0 0 .48-.09 2.49 2.49 0 0 0 .47-.17 1.77 1.77 0 0 0-.47.08z"/><path d="M105.9 49a1.13 1.13 0 0 1-.51.21c-.12 0-.22.06-.22.11s.19 0 .43 0a.56.56 0 0 0 .51-.31c.05-.15.07-.17-.21-.01zm-3.32 1.61c-.18 0-.32.06-.32.1s.13 0 .31 0 .31-.06.31-.1-.13-.02-.3 0zm-1.41.01c-.08 0-.11 0-.06.09s.21.11.22 0-.07-.08-.16-.09zm-.76.38a1.42 1.42 0 0 0-.47.05c-.09.07.56.08.73 0s-.03-.05-.26-.05zm-.17-.62c-.09 0-.12.11-.07.14s.23 0 .24-.11-.07-.08-.17-.03zm-.28.49a2.15 2.15 0 0 0-.54.28 1.32 1.32 0 0 1-.5.23c-.08 0-.14 0-.14.06s.18 0 .39 0 .39-.13.39-.19.13-.17.29-.25.22-.15.11-.13zm-1.34.84c-.18 0-.31.07-.31.11s.13 0 .31 0a1.1 1.1 0 0 0 .31-.1 1.01 1.01 0 0 0-.31-.01zm-1.24.13c-.09 0-.16 0-.16.07s.07.06.15 0 .16-.05.16-.07-.06 0-.15 0zm-.55.09c-.13 0-.24.09-.24.13s.06.07.14 0a.58.58 0 0 0 .23-.06c.07-.09 0-.11-.13-.07zm-1.77.23l-.55.22c-.15.06-.24.13-.2.16s-.11.1-.35.16-.37.11-.13.08a.8.8 0 0 1 .41 0c.06 0 .17-.05.29-.21s.22-.25.39-.22a.26.26 0 0 0 .32-.12c.16-.23.13-.23-.18-.07zm-2.73 1c-.08 0-.16.07-.16.12s.07 0 .16 0a.2.2 0 0 0 .16-.12c0-.02-.07-.02-.16 0zm-.72.58a.48.48 0 0 1-.33 0 .62.62 0 0 0-.33 0c-.19 0-.2.06 0 .11s.9 0 .91-.15-.1-.02-.25.04zm-5.19 1.31c-.32 0-.4 0-.49.17s-.16.13-.22.1a1.09 1.09 0 0 0-.49 0c-.26 0-.3.06-.11 0s.25 0 .18.12-.06.13.08 0a.83.83 0 0 1 .57-.14.92.92 0 0 0 .62-.19c.21-.04.2-.06-.14-.06zm-1.79.62c-.17 0-.84.13-.84.22s.2 0 .47 0c.48-.14.54-.17.37-.22zm-1.95.53a.15.15 0 0 0-.16.07c.046.04.114.04.16 0 .08-.07.16 0 .16-.07s-.07 0-.16 0zm-2.97.48a.52.52 0 0 0-.26.1c-.06.07 0 .12.08.13.25 0-.09.21-.4.23a.54.54 0 0 0-.3.08c0 .05.15 0 .43 0 .44-.1.52-.14.55-.31s-.02-.22-.1-.23z"/><path d="M79.85 48.87c-.13 0-.23.08-.23.12s.09 0 .23 0 .23-.08.23-.11-.12-.04-.23-.01zm-.67 7.19c-.18 0-.22 0-.22.12s-.25.27-.69.34c-.061.003-.111.049-.12.11 0 .05.13 0 .31-.05s.32-.08.33.06a1 1 0 0 1 0 .28c0 .06.1.08.23 0s.22-.08.17-.11 0-.09.11-.13.16-.1 0-.11-.16-.09 0-.27.05-.21-.12-.24zm-.64-6.81a5.85 5.85 0 0 0-1 .35c-.11.08.14 0 .75-.17 1.18-.37 1.34-.49.25-.18zm.15 6.84a.19.19 0 0 0 0 .19s.08 0 .08-.12-.03-.16-.08-.07zm-1.51-6.44a2.31 2.31 0 0 1-.52.19.66.66 0 0 0-.37.16c0 .13.4 0 .74-.23.17-.12.24-.17.15-.12zm-1.73 8.05c-.09 0-.12.1-.07.13s.22 0 .22-.1-.06-.08-.15-.03zm-3.62-6.82a1.51 1.51 0 0 0-.52.19c-.27.17-.25.17.17 0 .57-.16.65-.2.35-.19zm-2.14.54a.21.21 0 0 0-.16.11c-.113.059-.234.1-.36.12-.2.03-.33.05 0 .05.45 0 .51 0 .62-.17s-.02-.13-.1-.11zm-.91-.42c-.075-.004-.142.047-.16.12 0 .05.07 0 .15 0s.19-.12.19-.12zm-3.24 1c-.13 0-.25.09-.25.13s.06.07.15.05a.62.62 0 0 0 .25-.14c.06-.04-.01-.04-.15-.04zm-1.28.44c-.13 0-.23.08-.23.11s.06.05.15 0a.5.5 0 0 0 .23-.12s-.01-.03-.15.01zm-1.59.38c.47-.13-.08.31-.57.46l-.43.12.36-.25a2.17 2.17 0 0 1 .64-.33zm-.22.25c.073 0 .14-.043.17-.11.01-.04-.07-.06-.16 0s-.16.07-.16.11.06.03.15 0zm-1.03.02c-.18 0-.22.08-.1.07a.6.6 0 0 0 .3-.08c.06-.03-.03-.03-.2.01zm-.76.35a6 6 0 0 0-1 .15c-.38.09-.4.11-.11.06s.35 0 .35.05.14.14.31.18c.33.07.33.07.3-.08s0-.29.33-.28.31 0 .31-.05a1.14 1.14 0 0 0-.49-.03zm-1.86.85c-.24 0-.4.12-.2.18a.26.26 0 0 0 .26-.06c.1-.06.03-.11-.06-.12zm-1.24-.05a.24.24 0 0 0-.16.12h.16a.2.2 0 0 0 .16-.12c0-.02-.07-.02-.16 0zm-1.97 8.95c-.17.09-.28.19-.23.22s.53-.22.53-.32-.14.01-.3.1zM55.1 55c-.18 0-.22.07-.1.07a.82.82 0 0 0 .31-.08c-.07.01-.14.013-.21.01zm-.44-.14a1.58 1.58 0 0 0-.4.17c-.14.08-.18.12-.09.1a1.66 1.66 0 0 0 .4-.18c.14-.07.18-.12.09-.09zm-.09.25c-.075-.004-.142.047-.16.12 0 .05.06.06.15 0s.16-.07.17-.12-.07-.02-.16 0zm-.61.19c-.08 0-.16 0-.16.07s.07.07.15.05.16-.05.16-.07-.08-.05-.15-.05zm-2.15.24c-.18.05-.22.08-.1.08a.63.63 0 0 0 .31-.09.33.33 0 0 0-.21.01zm-.78.23c-.58.2-.62.23-.35.21a1.23 1.23 0 0 0 .52-.19c.27-.16.26-.17-.17-.02zm-.37.71c-.16 0-.52.08-.53.17s0 .06.1 0a.42.42 0 0 1 .32 0c.2.01.3-.11.11-.17zm-1.16-.29c-.58.16-.92.32-.92.45s.05 0 .19 0 .61-.27.6-.15-.1.07-.2.07-.12 0 0 .05a.26.26 0 0 0 .28-.05.39.39 0 0 1 .31-.12c.15 0 .23-.07.23-.18s-.03-.18-.49-.07zm-1.96.68c-.18.05-.22.08-.1.07a.73.73 0 0 0 .3-.07c.06-.04-.03-.04-.2 0zm-.07.32a.51.51 0 0 0-.25.14c-.06.06 0 .06.15 0s.32-.19.1-.14zm-1.08 5.93a.18.18 0 0 0-.15.15v.11a.58.58 0 0 0 .16-.16c.1-.07.08-.12-.01-.1zm0-5.98h-.25c.05 0 0-.07-.21 0-.51.12-.52.23 0 .23a1.15 1.15 0 0 0 .65-.14c.12-.14.07-.15-.19-.09z"/><path d="M45.31 57.48l-.45.18c-.3.14-.3.14 0 .07a1.08 1.08 0 0 0 .45-.18c.08-.06.07-.09 0-.07z"/><path d="M44.96 57.37c-.09.05-.16.1-.16.12s.06 0 .15 0a.18.18 0 0 0 .17-.12c.01-.05-.07-.05-.16 0zm-.88.47l-.5.11c-.31.08-.24 0 .15-.17s.36-.16-.06-.06a1.61 1.61 0 0 0-.53.2.29.29 0 0 1-.29.08c-.26 0-.72.14-.73.29s.09.09.29 0a1.52 1.52 0 0 1 .51-.1 4 4 0 0 0 .85-.21c.36-.1.49-.17.31-.14zm-.81 6.55c-.05.08-.05.14 0 .15s.09 0 .08-.12-.03-.1-.08-.03zm-5.24 1.35a.81.81 0 0 1-.4 0c-.13-.08-1 .19-.9.29s-.05.14-.17.21 0 .07.26 0a2.27 2.27 0 0 0 .58-.27.13.13 0 0 1 .21 0c.13.18-.19.46-.39.34s-.16 0-.24 0a.55.55 0 0 1-.35.13c-.16 0-.22.06-.19.14s1.06 0 1.07-.16.14-.11.33-.13.32-.06.25-.24 0-.23.08-.25.16-.07.16-.11-.14.01-.3.05z"/><path d="M36.83 67.93a.65.65 0 0 0-.33.16c-.16.13-.16.15 0 .1s.53-.19.33-.26zm-.62-8.17a1.67 1.67 0 0 0-.59.06c-.13 0-.11.06.07 0s.28 0 .27.06.13.09.31.05c.41-.08.4-.12-.06-.17zM35.44 67l-.7.11a2 2 0 0 0-.77.27c-.32.19-.31.19.08 0a2 2 0 0 1 .63-.17 2.37 2.37 0 0 0 .62-.15c.21-.06.28-.06.14-.06zm-.23-7a.56.56 0 0 0-.26.18c-.08.13-.06.13.14 0s.32-.26.12-.18z"/><path d="M34.67 60c-.24.08-.65.36-.57.39a1 1 0 0 0 .32-.08c.3-.09.54-.31.25-.31zm-.98.41c-.104-.007-.201.048-.25.14-.01.05.1.05.24 0s.24-.09.24-.14-.1-.03-.23 0zm-.25.68a.6.6 0 0 0-.26.14c-.06.06 0 .09.06.07a.74.74 0 0 0 .25-.14c.06-.06.04-.09-.05-.07zm-.66-.09c-.3-.06-.33 0-.26 0s0 .14-.09.18-.12.08 0 .08a1.08 1.08 0 0 0 .43-.11c.24-.1.24-.15-.08-.15zm-1.53.07a.22.22 0 0 0-.17.16c0 .06.07.1.15.08a.22.22 0 0 0 .17-.16c0-.07-.07-.1-.15-.08zm-.09.36a2.3 2.3 0 0 0-.45 0 1.55 1.55 0 0 1-.48 0c-.17 0-.26 0-.26.05s.07.07.16 0c.34-.08.1.21-.3.35l-.42.16h.39a1.72 1.72 0 0 0 .82-.25 1.77 1.77 0 0 1 .6-.22c.08 0 .16 0 .16-.07s-.1-.03-.22-.02zm-.55 7.41c-.18 0-.22.07-.1.07a.73.73 0 0 0 .31-.08c.06-.04-.04-.04-.21.01zm-.26.67c-.09 0-.12.07-.07.1a.25.25 0 0 0 .16 0 .1.1 0 0 0 .07-.1.36.36 0 0 0-.16 0z"/><path d="M30.31 61.06c-.075-.004-.142.047-.16.12 0 .05.06.06.15 0s.16-.07.17-.12-.07-.06-.16 0zM29.76 68a1.11 1.11 0 0 0-1 .19.77.77 0 0 1-.33.16c-.22.05-.22.06 0 .08.43 0 .77-.09.68-.25s-.05-.15.48-.07.68.04.17-.11zm-.15-6.62c-.121.002-.227.083-.26.2 0 .07 0 .09.11 0l.27-.2c.09-.02.03-.03-.12 0z"/><path d="M29.03 61.76c-.26 0-.32 0-.32.11s.07.08.15 0a.11.11 0 0 1 .08-.034.11.11 0 0 1 .08.034c.047.036.113.036.16 0 .27.02.17-.1-.15-.11zm.13.35c-.09 0-.13.07-.07.1a.25.25 0 0 0 .16 0 .1.1 0 0 0 .07-.1.36.36 0 0 0-.16 0zm-.72.02c-.21 0-.22 0-.06-.1s.13-.13-.22 0a2.14 2.14 0 0 0-.6.26c-.1.08-.12.11 0 .06a.82.82 0 0 1 .39-.07c.18 0 .18 0 0 .16s-.25.27.11.14.76-.58.38-.45zm-.29 6.02a.84.84 0 0 0-.27 0c-.1 0-.1.06 0 .09a.47.47 0 0 0 .27 0c.07-.04.06-.07 0-.09z"/><path d="M27.01 62.28a1.8 1.8 0 0 0-.46.09c-.17.12.07.13.44 0l.38-.12zm.05.34a.82.82 0 0 0-.26.17c-.17.14-.16.15.05.1s.26-.11.26-.17-.02-.11-.05-.1zm-.7-.46l-.47.06c-.28 0-.34.07-.21.1a.93.93 0 0 0 .47-.06c.16-.06.26-.1.21-.1zm-.56 6.51c-.18 0-.22.07-.1.06a.78.78 0 0 0 .3-.07c.05-.04-.04-.04-.2.01z"/><path d="M25.49 69.11c-.3 0-.38 0-.46.08s.16.15.63.09c.3-.04.23-.13-.17-.17zm-.04-6.45c-.15 0-.87.14-.77.2a1.34 1.34 0 0 0 .47 0c.43-.15.45-.16.3-.2zm-.49.34c-.18 0-.3.07-.31.13s.43.11.53 0-.09-.2-.22-.13zm-1 7.78a1.14 1.14 0 0 0-.41 0c-.24.06-.28.09-.14.14s.13.1.06.14a.31.31 0 0 1-.28 0 2 2 0 0 0-1.3.22 1.17 1.17 0 0 1-.7.14 1.4 1.4 0 0 0-.67.11c-.29.12-.28.12.08 0s.31 0 .11 0a1.34 1.34 0 0 1-.51.06c-.18 0-.22 0-.23.08s-.14.19-.54.21-.16-.15.19-.17c.19 0 .22 0 .1-.07s-.69.12-.69.24-.07.07-.16.07-.16 0-.16.08-.11.1-.23.1a.91.91 0 0 0-.48.27c-.23.21-.23.24 0 .2a.87.87 0 0 0 .32-.15 1.29 1.29 0 0 1 .51-.15c.28 0 .38-.08.31-.12s0-.08.06-.11c.056-.016.114-.016.17 0a11.29 11.29 0 0 0 2.38-.58c.19-.09.29-.1.35 0s.23.06.41 0 .32-.12.29-.24.05-.2.17-.24.19 0 .1.11-.07.18.14.09.22-.06.17 0 0 .07.2 0 .29-.11.23-.22a.21.21 0 0 1 .11-.25c.04.11.11.05.04.04z"/><path d="M24.2 62.74v.15c0 .02.1 0 .09-.13s-.04-.1-.09-.02zm-.19.26a.87.87 0 0 0-.79.35c0 .07 0 .09 0 0a.32.32 0 0 1 .29 0c.14.07.2.06.42-.12s.27-.15.08-.23zm-.65 0c-.18.12-.29.22-.25.23a1.19 1.19 0 0 0 .57-.39.82.82 0 0 0-.32.16zm-.4 6.8c-.48 0-.54 0-.54.12a.94.94 0 0 0 .47 0c.26 0 .47 0 .47-.09s-.2-.04-.4-.03zm-1.47-6.16a.64.64 0 0 0-.26.13c-.06.06 0 .09.05.07a.6.6 0 0 0 .26-.14c.06-.06.04-.09-.05-.06zm-3.84 8.55c-.3.1-.62.43-.34.36h.09a.53.53 0 0 1-.3 0 1.57 1.57 0 0 0-.59.08 3.43 3.43 0 0 1-.71.11c-.54 0-.76 0-.54.12s.13.08-.36.15-.58.12-.66.24 0 .12.05.07.16 0 .16 0a3 3 0 0 0 1.31-.32.21.21 0 0 1 .26 0c.12.06.15.06.16 0s.07-.1.23-.07a1.64 1.64 0 0 0 .66-.1l.55-.17c.06 0 .13-.14.18-.27s.01-.25-.15-.2z"/><path d="M17.23 70.55c-.075-.004-.142.047-.16.12 0 .05.07.06.16 0s.16-.07.16-.12-.07-.02-.16 0zm-.7 1.92a.36.36 0 0 0-.27.11c-.07.07 0 .08.06 0s.21 0 .24 0h.09c-.014-.058-.061-.101-.12-.11zm-.34-1.59c-.18.05-.22.08-.09.07a.6.6 0 0 0 .3-.08c.06-.04-.04-.03-.21.01zm-.51-5.96a5.05 5.05 0 0 0-.75.2l-.63.2.74-.15c.66-.12.98-.25.64-.25zM15.19 71c-.21.08-.25.2-.05.16a.29.29 0 0 0 .18-.13c.04-.09-.02-.1-.13-.03zm-.42.46c-.18 0-.22.07-.1.06a.83.83 0 0 0 .3-.07c.05-.04-.01-.04-.2.01zm-.81.42c-.18.05-.22.08-.1.07a.64.64 0 0 0 .31-.08s-.04-.03-.21.01zm-7.69.32a.32.32 0 0 0-.18.22c0 .11 0 .11.16 0s.21-.33.02-.22zm-1.66-.78c-.54.27-.61.45-.13.38.18 0 .24-.07.17-.11s0-.17.2-.29l.3-.24zm-.65.05c-.09 0-.13.07-.08.1a.28.28 0 0 0 .17 0 .11.11 0 0 0 .08-.09.35.35 0 0 0-.17-.01zm-.17-.88c-.13.09-.2.17-.17.17s.38-.16.39-.24-.05-.01-.22.07zM124.35 43c-.096-.007-.188.039-.24.12 0 .03.1 0 .23 0a.27.27 0 0 0 .24-.12c.01-.04-.1-.08-.23 0zM72.8 57.39a.11.11 0 0 0-.13.11.33.33 0 0 1-.21.19q-.18.08.06.06c.27-.01.53-.34.28-.36zm-15.24 4.03c-.17-.08-.8.09-.71.19s.24 0 .45 0c.41-.1.42-.11.26-.19z"/></svg>