<svg xmlns="http://www.w3.org/2000/svg" width="198" height="198" viewBox="0 0 198 198"><g transform="translate(-2480.34 -995.744)"><path d="M0,0H198V198H0Z" transform="translate(2480.34 995.744)" fill="none"/><g transform="translate(2490.941 1048.75)"><g transform="translate(72.492)"><path d="M1362.24,396.12l-86.025-90.335,1.15-1.208,86.025,90.335Z" transform="translate(-1276.22 -304.576)" fill="#fff"/></g><g transform="translate(16.007)"><path d="M1179.21,396.12l-1.15-1.208,86.025-90.335,1.15,1.208Z" transform="translate(-1178.057 -304.576)" fill="#fff"/></g><g transform="translate(0 90.085)"><rect width="180.002" height="1.708" fill="#fff"/></g><g transform="translate(56.348 57.669)"><path d="M1249.31,438.47l-1.15-1.208,30.915-32.464,1.15,1.208Z" transform="translate(-1248.164 -404.798)" fill="#fff"/></g><g transform="translate(87.262 57.669)"><path d="M1332.8,438.47l-30.914-32.464,1.15-1.208,30.914,32.464Z" transform="translate(-1301.889 -404.798)" fill="#fff"/></g></g></g></svg>