<svg xmlns="http://www.w3.org/2000/svg" width="56.63" height="21.44" viewBox="0 0 56.63 21.44"><defs><style>.a{opacity:0.75;}.b{fill:#fff;}</style></defs><g class="a"><path class="b" d="M8.87,16.79,4.44,21.44,4,21H4L0,16.77l.46-.48,4,4.18,4-4.17Z"/><path class="b" d="M16.83,16.79,12.4,21.44,11.93,21h0L8,16.77l.45-.48,4,4.18,4-4.17Z"/><path class="b" d="M24.67,16.79l-4.43,4.65L19.77,21h0l-4-4.18.46-.48,4,4.18,4-4.17Z"/><path class="b" d="M32.57,16.79l-4.44,4.65L27.67,21h0l-4-4.18.45-.48,4,4.18,4-4.17Z"/><path class="b" d="M40.46,16.79,36,21.44,35.57,21h0l-4-4.18.46-.48,4,4.18,4-4.17Z"/><path class="b" d="M48.31,16.79l-4.44,4.65L43.41,21h0l-4-4.18.45-.48,4,4.18,4-4.17Z"/><path class="b" d="M56.26,16.79l-4.43,4.65L51.36,21h0l-4-4.18.45-.48,4,4.18,4-4.17Z"/><path class="b" d="M9.25,9.15,4.82,13.8l-.47-.48h0l-4-4.18.45-.48,4,4.18,4-4.17Z"/><path class="b" d="M17.2,9.15,12.77,13.8l-.46-.48h0l-4-4.18.46-.48,4,4.18,4-4.17Z"/><path class="b" d="M25.05,9.15,20.61,13.8l-.46-.48h0l-4-4.18.45-.48,4,4.18,4-4.17Z"/><path class="b" d="M32.94,9.15,28.51,13.8,28,13.32h0l-4-4.18.46-.48,4,4.18,4-4.17Z"/><path class="b" d="M40.84,9.15,36.41,13.8l-.47-.48h0L32,9.13l.46-.48,4,4.18,4-4.17Z"/><path class="b" d="M48.68,9.15,44.25,13.8l-.47-.48h0l-4-4.18.46-.48,4,4.18,4-4.17Z"/><path class="b" d="M56.63,9.15,52.2,13.8l-.46-.48h0l-4-4.18.46-.48,4,4.18,4-4.17Z"/><path class="b" d="M5.05,4.72l-.47-.49L8.61,0l.47.49Z"/><path class="b" d="M12.92,4.72l-.46-.49,4-4.23L17,.49Z"/><path class="b" d="M20.83,4.72l-.46-.49L24.4,0l.46.49Z"/><path class="b" d="M28.74,4.72l-.47-.49,4-4.23.46.49Z"/><path class="b" d="M36.64,4.72l-.46-.49,4-4.23.47.49Z"/><path class="b" d="M44.5,4.72,44,4.23l4-4.23.46.49Z"/><path class="b" d="M52.46,4.72,52,4.23,56,0l.47.49Z"/></g></svg>